G04*
G04 #@! TF.GenerationSoftware,Altium Limited,Altium Designer,23.6.0 (18)*
G04*
G04 Layer_Color=65535*
%FSLAX25Y25*%
%MOIN*%
G70*
G04*
G04 #@! TF.SameCoordinates,7954F5F0-22A1-4131-B6F7-0AC426F17986*
G04*
G04*
G04 #@! TF.FilePolarity,Positive*
G04*
G01*
G75*
%ADD10C,0.00800*%
%ADD11C,0.00984*%
%ADD12C,0.00600*%
%ADD13C,0.00787*%
%ADD14C,0.01000*%
%ADD15C,0.00394*%
%ADD16C,0.00591*%
G36*
X25295Y68996D02*
X16320D01*
Y90256D01*
X25295D01*
Y68996D01*
D02*
G37*
G36*
X-15157Y90256D02*
Y68996D01*
X-24103D01*
Y90256D01*
X-15157D01*
D02*
G37*
G36*
X-25984Y68996D02*
X-34929D01*
Y90256D01*
X-25984D01*
Y68996D01*
D02*
G37*
G36*
X4626Y68996D02*
X-4319D01*
Y90256D01*
X4626D01*
Y68996D01*
D02*
G37*
G36*
X14961Y90256D02*
Y68996D01*
X6016D01*
Y90256D01*
X14961D01*
D02*
G37*
G36*
X31350Y185138D02*
X23068D01*
Y203983D01*
X31350D01*
Y185138D01*
D02*
G37*
G36*
X29563Y111319D02*
X-27559D01*
Y120261D01*
X29563D01*
Y111319D01*
D02*
G37*
%LPC*%
G36*
X24016Y88425D02*
X23393D01*
Y85331D01*
X23273D01*
X23174Y85353D01*
X23076Y85364D01*
X22999Y85386D01*
X22923Y85408D01*
X22879Y85419D01*
X22846Y85441D01*
X22835D01*
X22748Y85495D01*
X22650Y85550D01*
X22573Y85627D01*
X22497Y85692D01*
X22431Y85747D01*
X22376Y85801D01*
X22343Y85834D01*
X22333Y85845D01*
X22223Y85965D01*
X22103Y86118D01*
X21972Y86293D01*
X21841Y86457D01*
X21731Y86610D01*
X21644Y86730D01*
X21600Y86785D01*
X21578Y86818D01*
X21567Y86840D01*
X21557Y86851D01*
X21349Y87124D01*
X21163Y87353D01*
X20977Y87539D01*
X20824Y87692D01*
X20682Y87802D01*
X20584Y87878D01*
X20518Y87933D01*
X20507Y87944D01*
X20496D01*
X20289Y88053D01*
X20081Y88130D01*
X19884Y88195D01*
X19688Y88228D01*
X19524Y88250D01*
X19458Y88261D01*
X19403Y88272D01*
X19349D01*
X19316D01*
X19294D01*
X19283D01*
X19141D01*
X18999Y88250D01*
X18748Y88195D01*
X18529Y88108D01*
X18354Y88020D01*
X18201Y87933D01*
X18103Y87845D01*
X18037Y87791D01*
X18015Y87780D01*
Y87769D01*
X17928Y87670D01*
X17851Y87572D01*
X17742Y87353D01*
X17655Y87135D01*
X17589Y86916D01*
X17556Y86730D01*
X17545Y86654D01*
Y86577D01*
X17534Y86523D01*
Y86545D01*
Y86446D01*
X17545Y86271D01*
X17556Y86097D01*
X17633Y85780D01*
X17731Y85506D01*
X17786Y85386D01*
X17840Y85277D01*
X17895Y85178D01*
X17950Y85091D01*
X18004Y85014D01*
X18048Y84949D01*
X18092Y84905D01*
X18124Y84872D01*
X18135Y84851D01*
X18146Y84840D01*
X18890D01*
X18769Y84960D01*
X18649Y85091D01*
X18562Y85211D01*
X18474Y85321D01*
X18420Y85419D01*
X18365Y85495D01*
X18343Y85539D01*
X18332Y85561D01*
X18267Y85714D01*
X18212Y85856D01*
X18179Y85987D01*
X18146Y86107D01*
X18135Y86217D01*
X18124Y86293D01*
Y86359D01*
X18135Y86556D01*
X18179Y86730D01*
X18223Y86883D01*
X18289Y87015D01*
X18343Y87124D01*
X18398Y87190D01*
X18441Y87244D01*
X18452Y87255D01*
X18584Y87364D01*
X18726Y87452D01*
X18879Y87507D01*
X19021Y87550D01*
X19152Y87572D01*
X19250Y87594D01*
X19294D01*
X19327D01*
X19338D01*
X19349D01*
X19545Y87583D01*
X19731Y87550D01*
X19895Y87496D01*
X20037Y87452D01*
X20157Y87397D01*
X20245Y87343D01*
X20300Y87310D01*
X20322Y87299D01*
X20485Y87168D01*
X20638Y87026D01*
X20791Y86862D01*
X20933Y86698D01*
X21043Y86545D01*
X21141Y86424D01*
X21174Y86381D01*
X21196Y86348D01*
X21207Y86326D01*
X21218Y86315D01*
X21404Y86053D01*
X21578Y85834D01*
X21721Y85648D01*
X21852Y85495D01*
X21950Y85375D01*
X22027Y85288D01*
X22070Y85244D01*
X22092Y85222D01*
X22223Y85102D01*
X22354Y85004D01*
X22475Y84916D01*
X22584Y84851D01*
X22682Y84807D01*
X22748Y84774D01*
X22792Y84752D01*
X22814Y84741D01*
X22956Y84698D01*
X23109Y84665D01*
X23262Y84632D01*
X23404Y84621D01*
X23524Y84610D01*
X23622Y84599D01*
X17534D01*
X24016D01*
Y88425D01*
D02*
G37*
G36*
Y82315D02*
X17502D01*
Y80151D01*
Y82031D01*
X17611Y81899D01*
X17709Y81757D01*
X17808Y81615D01*
X17906Y81484D01*
X17982Y81353D01*
X18037Y81255D01*
X18081Y81189D01*
X18092Y81178D01*
Y81167D01*
X18201Y80970D01*
X18289Y80774D01*
X18365Y80610D01*
X18420Y80457D01*
X18474Y80326D01*
X18507Y80238D01*
X18518Y80172D01*
X18529Y80161D01*
Y80151D01*
X17502D01*
X24016D01*
X19272D01*
X19229Y80293D01*
X19174Y80435D01*
X19130Y80577D01*
X19075Y80697D01*
X19021Y80806D01*
X18977Y80894D01*
X18955Y80949D01*
X18944Y80970D01*
X18857Y81123D01*
X18780Y81265D01*
X18704Y81375D01*
X18649Y81462D01*
X18595Y81539D01*
X18551Y81582D01*
X18529Y81615D01*
X18518Y81626D01*
X24016D01*
Y82315D01*
D02*
G37*
G36*
X24114Y78795D02*
X17534D01*
X20748D01*
X20485Y78784D01*
X20245Y78763D01*
X20005Y78719D01*
X19786Y78664D01*
X19578Y78610D01*
X19392Y78544D01*
X19218Y78467D01*
X19054Y78391D01*
X18912Y78314D01*
X18791Y78238D01*
X18682Y78172D01*
X18595Y78118D01*
X18518Y78063D01*
X18474Y78019D01*
X18441Y77997D01*
X18431Y77987D01*
X18278Y77833D01*
X18135Y77659D01*
X18015Y77495D01*
X17917Y77320D01*
X17829Y77134D01*
X17753Y76959D01*
X17698Y76784D01*
X17644Y76620D01*
X17611Y76467D01*
X17578Y76325D01*
X17556Y76194D01*
X17545Y76085D01*
Y75997D01*
X17534Y75921D01*
Y75866D01*
X17545Y75604D01*
X17578Y75363D01*
X17622Y75123D01*
X17676Y74904D01*
X17742Y74708D01*
X17829Y74522D01*
X17906Y74347D01*
X17993Y74194D01*
X18081Y74063D01*
X18157Y73942D01*
X18234Y73844D01*
X18310Y73757D01*
X18365Y73691D01*
X18409Y73647D01*
X18441Y73615D01*
X18452Y73603D01*
X18627Y73462D01*
X18824Y73330D01*
X19021Y73221D01*
X19229Y73123D01*
X19425Y73046D01*
X19633Y72980D01*
X19830Y72926D01*
X20026Y72882D01*
X20212Y72838D01*
X20376Y72817D01*
X20529Y72795D01*
X20660Y72784D01*
X20759D01*
X20846Y72773D01*
X20912D01*
X21174Y72784D01*
X21415Y72806D01*
X21655Y72849D01*
X21873Y72904D01*
X22081Y72959D01*
X22267Y73035D01*
X22442Y73112D01*
X22606Y73188D01*
X22748Y73265D01*
X22868Y73330D01*
X22977Y73407D01*
X23065Y73462D01*
X23141Y73516D01*
X23185Y73560D01*
X23218Y73582D01*
X23229Y73593D01*
X23382Y73757D01*
X23524Y73921D01*
X23644Y74095D01*
X23743Y74281D01*
X23830Y74456D01*
X23896Y74642D01*
X23961Y74817D01*
X24005Y74981D01*
X24038Y75145D01*
X24070Y75287D01*
X24081Y75418D01*
X24103Y75538D01*
Y75626D01*
X24114Y75702D01*
Y72773D01*
D01*
Y78795D01*
D02*
G37*
G36*
X24016Y71505D02*
X17644D01*
Y70806D01*
X24016D01*
Y71505D01*
D02*
G37*
%LPD*%
G36*
X24114Y75757D02*
X24103Y76019D01*
X24070Y76259D01*
X24027Y76489D01*
X23972Y76697D01*
X23896Y76894D01*
X23819Y77079D01*
X23743Y77243D01*
X23655Y77396D01*
X23568Y77527D01*
X23491Y77648D01*
X23404Y77746D01*
X23338Y77823D01*
X23283Y77888D01*
X23240Y77943D01*
X23207Y77965D01*
X23196Y77975D01*
X23021Y78118D01*
X22824Y78249D01*
X22628Y78358D01*
X22431Y78446D01*
X22223Y78533D01*
X22016Y78599D01*
X21819Y78653D01*
X21622Y78697D01*
X21447Y78730D01*
X21283Y78752D01*
X21130Y78773D01*
X20999Y78784D01*
X20890Y78795D01*
X24114D01*
Y75757D01*
D02*
G37*
G36*
X21076Y78052D02*
X21294Y78041D01*
X21491Y78008D01*
X21677Y77965D01*
X21852Y77921D01*
X22005Y77866D01*
X22147Y77812D01*
X22278Y77757D01*
X22398Y77702D01*
X22497Y77648D01*
X22584Y77593D01*
X22660Y77549D01*
X22715Y77506D01*
X22759Y77473D01*
X22781Y77462D01*
X22792Y77451D01*
X22912Y77331D01*
X23021Y77200D01*
X23120Y77068D01*
X23196Y76926D01*
X23262Y76784D01*
X23316Y76642D01*
X23404Y76380D01*
X23437Y76249D01*
X23458Y76128D01*
X23469Y76030D01*
X23480Y75932D01*
X23491Y75866D01*
Y75757D01*
X23480Y75571D01*
X23458Y75396D01*
X23426Y75232D01*
X23371Y75079D01*
X23316Y74926D01*
X23251Y74795D01*
X23185Y74675D01*
X23120Y74565D01*
X23054Y74467D01*
X22977Y74380D01*
X22923Y74303D01*
X22868Y74238D01*
X22814Y74194D01*
X22781Y74161D01*
X22759Y74139D01*
X22748Y74128D01*
X22606Y74019D01*
X22453Y73931D01*
X22300Y73844D01*
X22136Y73778D01*
X21819Y73669D01*
X21513Y73593D01*
X21382Y73571D01*
X21250Y73549D01*
X21141Y73538D01*
X21043Y73527D01*
X20955Y73516D01*
X20901D01*
X20857D01*
X20846D01*
X20638Y73527D01*
X20431Y73538D01*
X20234Y73571D01*
X20059Y73615D01*
X19884Y73658D01*
X19731Y73713D01*
X19589Y73768D01*
X19458Y73833D01*
X19338Y73888D01*
X19229Y73942D01*
X19141Y73997D01*
X19064Y74041D01*
X19010Y74085D01*
X18966Y74117D01*
X18944Y74128D01*
X18933Y74139D01*
X18802Y74259D01*
X18682Y74391D01*
X18584Y74522D01*
X18496Y74664D01*
X18420Y74806D01*
X18365Y74937D01*
X18310Y75079D01*
X18278Y75210D01*
X18245Y75331D01*
X18223Y75451D01*
X18201Y75549D01*
X18190Y75637D01*
X18179Y75713D01*
Y75811D01*
X18190Y76008D01*
X18212Y76194D01*
X18245Y76358D01*
X18289Y76522D01*
X18343Y76675D01*
X18409Y76806D01*
X18463Y76937D01*
X18529Y77047D01*
X18606Y77145D01*
X18660Y77232D01*
X18726Y77309D01*
X18780Y77364D01*
X18824Y77407D01*
X18857Y77451D01*
X18879Y77462D01*
X18890Y77473D01*
X19032Y77582D01*
X19174Y77670D01*
X19338Y77746D01*
X19502Y77812D01*
X19819Y77921D01*
X20136Y77987D01*
X20289Y78019D01*
X20420Y78030D01*
X20540Y78041D01*
X20649Y78052D01*
X20737Y78063D01*
X20802D01*
X20846D01*
X20857D01*
X21076Y78052D01*
D02*
G37*
%LPC*%
G36*
X-19630Y88884D02*
X-22811D01*
Y83790D01*
X-16439D01*
Y85441D01*
X-16449Y85714D01*
X-16482Y85987D01*
X-16526Y86239D01*
X-16581Y86468D01*
X-16646Y86687D01*
X-16723Y86894D01*
X-16799Y87080D01*
X-16887Y87255D01*
X-16963Y87408D01*
X-17040Y87539D01*
X-17116Y87649D01*
X-17182Y87747D01*
X-17247Y87823D01*
X-17291Y87878D01*
X-17313Y87911D01*
X-17324Y87922D01*
X-17499Y88097D01*
X-17684Y88239D01*
X-17881Y88370D01*
X-18078Y88479D01*
X-18275Y88567D01*
X-18472Y88654D01*
X-18657Y88709D01*
X-18843Y88763D01*
X-19018Y88807D01*
X-19182Y88829D01*
X-19324Y88851D01*
X-19455Y88873D01*
X-19554D01*
X-19630Y88884D01*
D02*
G37*
G36*
X-16439Y82096D02*
X-22811D01*
Y77003D01*
X-16439D01*
Y77702D01*
X-21106D01*
X-21324D01*
X-21510D01*
X-21652Y77691D01*
X-21772D01*
X-21871Y77680D01*
X-21936D01*
X-21969Y77670D01*
X-21980D01*
Y77691D01*
X-21816Y77768D01*
X-21750Y77801D01*
X-21696Y77823D01*
X-21652Y77855D01*
X-21619Y77866D01*
X-21598Y77888D01*
X-21587D01*
X-16439Y81222D01*
Y82096D01*
D02*
G37*
G36*
X-16876Y75505D02*
X-19739D01*
Y73396D01*
X-19094D01*
Y74806D01*
X-17269D01*
X-17171Y74587D01*
X-17094Y74369D01*
X-17040Y74150D01*
X-17007Y73942D01*
X-16985Y73757D01*
X-16974Y73680D01*
X-16963Y73615D01*
Y73483D01*
X-16974Y73276D01*
X-16996Y73090D01*
X-17029Y72904D01*
X-17072Y72740D01*
X-17127Y72576D01*
X-17182Y72434D01*
X-17247Y72303D01*
X-17313Y72183D01*
X-17379Y72084D01*
X-17444Y71986D01*
X-17499Y71909D01*
X-17553Y71844D01*
X-17597Y71789D01*
X-17630Y71756D01*
X-17652Y71734D01*
X-17663Y71724D01*
X-17805Y71614D01*
X-17947Y71516D01*
X-18100Y71429D01*
X-18264Y71363D01*
X-18417Y71297D01*
X-18581Y71243D01*
X-18898Y71166D01*
X-19040Y71144D01*
X-19171Y71122D01*
X-19291Y71112D01*
X-19390Y71101D01*
X-19477Y71090D01*
X-19543D01*
X-19586D01*
X-19597D01*
X-19816Y71101D01*
X-20023Y71122D01*
X-20209Y71155D01*
X-20395Y71199D01*
X-20570Y71254D01*
X-20723Y71308D01*
X-20865Y71374D01*
X-21007Y71439D01*
X-21116Y71494D01*
X-21226Y71560D01*
X-21313Y71614D01*
X-21390Y71669D01*
X-21444Y71713D01*
X-21488Y71746D01*
X-21510Y71767D01*
X-21521Y71778D01*
X-21652Y71909D01*
X-21772Y72052D01*
X-21871Y72205D01*
X-21958Y72357D01*
X-22035Y72500D01*
X-22089Y72653D01*
X-22144Y72795D01*
X-22177Y72937D01*
X-22209Y73057D01*
X-22231Y73177D01*
X-22253Y73287D01*
X-22264Y73385D01*
X-22275Y73450D01*
Y73757D01*
X-22253Y73942D01*
X-22199Y74292D01*
X-22166Y74456D01*
X-22122Y74598D01*
X-22078Y74740D01*
X-22035Y74871D01*
X-21980Y74981D01*
X-21936Y75090D01*
X-21893Y75178D01*
X-21860Y75254D01*
X-21827Y75309D01*
X-21805Y75352D01*
X-21794Y75374D01*
X-21783Y75385D01*
X-22570D01*
X-22691Y75123D01*
X-22778Y74828D01*
X-22833Y74543D01*
X-22876Y74270D01*
X-22887Y74139D01*
X-22898Y74019D01*
X-22909Y73921D01*
X-22920Y73822D01*
Y75505D01*
D01*
Y70346D01*
X-16340D01*
X-19532D01*
X-19269Y70357D01*
X-19018Y70379D01*
X-18778Y70423D01*
X-18559Y70478D01*
X-18351Y70543D01*
X-18165Y70609D01*
X-17991Y70685D01*
X-17838Y70773D01*
X-17695Y70849D01*
X-17564Y70926D01*
X-17466Y70991D01*
X-17379Y71057D01*
X-17302Y71112D01*
X-17258Y71155D01*
X-17225Y71177D01*
X-17214Y71188D01*
X-17062Y71352D01*
X-16930Y71527D01*
X-16810Y71713D01*
X-16712Y71887D01*
X-16624Y72073D01*
X-16559Y72259D01*
X-16493Y72434D01*
X-16449Y72609D01*
X-16417Y72762D01*
X-16384Y72915D01*
X-16362Y73046D01*
X-16351Y73166D01*
Y73254D01*
X-16340Y73330D01*
Y73385D01*
X-16351Y73603D01*
X-16362Y73811D01*
X-16428Y74205D01*
X-16460Y74391D01*
X-16515Y74565D01*
X-16559Y74729D01*
X-16613Y74882D01*
X-16657Y75024D01*
X-16712Y75145D01*
X-16756Y75254D01*
X-16788Y75341D01*
X-16832Y75407D01*
X-16854Y75462D01*
X-16865Y75494D01*
X-16876Y75505D01*
D02*
G37*
%LPD*%
G36*
X-19980Y88873D02*
X-20242Y88851D01*
X-20493Y88796D01*
X-20723Y88742D01*
X-20942Y88665D01*
X-21138Y88578D01*
X-21324Y88468D01*
X-21499Y88359D01*
X-21652Y88239D01*
X-21794Y88108D01*
X-21925Y87966D01*
X-22046Y87823D01*
X-22155Y87670D01*
X-22253Y87517D01*
X-22417Y87200D01*
X-22548Y86883D01*
X-22647Y86577D01*
X-22712Y86293D01*
X-22767Y86042D01*
X-22778Y85933D01*
X-22789Y85823D01*
X-22800Y85736D01*
Y85659D01*
X-22811Y85605D01*
Y88884D01*
X-19696D01*
X-19980Y88873D01*
D02*
G37*
G36*
X-19455Y88140D02*
X-19248Y88119D01*
X-19051Y88086D01*
X-18865Y88042D01*
X-18690Y87987D01*
X-18537Y87922D01*
X-18395Y87867D01*
X-18264Y87802D01*
X-18144Y87725D01*
X-18045Y87670D01*
X-17958Y87605D01*
X-17892Y87550D01*
X-17838Y87507D01*
X-17794Y87474D01*
X-17772Y87452D01*
X-17761Y87441D01*
X-17641Y87299D01*
X-17531Y87157D01*
X-17444Y86993D01*
X-17368Y86829D01*
X-17302Y86665D01*
X-17236Y86501D01*
X-17160Y86184D01*
X-17127Y86031D01*
X-17105Y85889D01*
X-17094Y85769D01*
X-17083Y85659D01*
X-17072Y85572D01*
Y84490D01*
X-22166D01*
Y85495D01*
X-22155Y85736D01*
X-22133Y85965D01*
X-22100Y86173D01*
X-22057Y86370D01*
X-22002Y86556D01*
X-21936Y86730D01*
X-21860Y86883D01*
X-21783Y87037D01*
X-21685Y87168D01*
X-21587Y87288D01*
X-21379Y87507D01*
X-21160Y87681D01*
X-20931Y87823D01*
X-20690Y87933D01*
X-20472Y88009D01*
X-20264Y88075D01*
X-20078Y88108D01*
X-19914Y88130D01*
X-19794Y88151D01*
X-19750D01*
X-19717D01*
X-19696D01*
X-19685D01*
X-19455Y88140D01*
D02*
G37*
G36*
X-17313Y81419D02*
X-17346Y81397D01*
X-17411Y81364D01*
X-17477Y81320D01*
X-17542Y81276D01*
X-17619Y81244D01*
X-17674Y81200D01*
X-17717Y81178D01*
X-17728Y81167D01*
X-22811Y77932D01*
Y81386D01*
X-18253D01*
X-18034D01*
X-17849Y81397D01*
X-17684Y81408D01*
X-17553Y81419D01*
X-17444D01*
X-17368Y81429D01*
X-17324Y81440D01*
X-17313D01*
Y81419D01*
D02*
G37*
G36*
X-22909Y73385D02*
X-22876Y73134D01*
X-22833Y72893D01*
X-22767Y72675D01*
X-22701Y72467D01*
X-22625Y72270D01*
X-22537Y72084D01*
X-22450Y71920D01*
X-22352Y71778D01*
X-22275Y71647D01*
X-22188Y71538D01*
X-22122Y71450D01*
X-22057Y71374D01*
X-22013Y71319D01*
X-21980Y71286D01*
X-21969Y71276D01*
X-21783Y71112D01*
X-21587Y70969D01*
X-21390Y70849D01*
X-21182Y70740D01*
X-20985Y70652D01*
X-20778Y70576D01*
X-20581Y70510D01*
X-20395Y70467D01*
X-20220Y70423D01*
X-20056Y70401D01*
X-19903Y70379D01*
X-19783Y70357D01*
X-19674D01*
X-19597Y70346D01*
X-22920D01*
Y73647D01*
X-22909Y73385D01*
D02*
G37*
%LPC*%
G36*
X-27167Y86709D02*
D01*
Y84468D01*
X-27178Y84643D01*
X-27189Y84818D01*
X-27243Y85135D01*
X-27331Y85408D01*
X-27375Y85528D01*
X-27429Y85637D01*
X-27473Y85736D01*
X-27517Y85823D01*
X-27560Y85900D01*
X-27604Y85965D01*
X-27637Y86009D01*
X-27659Y86042D01*
X-27681Y86064D01*
Y86075D01*
X-27779Y86184D01*
X-27888Y86282D01*
X-27998Y86370D01*
X-28118Y86446D01*
X-28227Y86501D01*
X-28347Y86556D01*
X-28566Y86632D01*
X-28763Y86676D01*
X-28839Y86687D01*
X-28916Y86698D01*
X-28970Y86709D01*
X-29058D01*
X-29287Y86687D01*
X-29495Y86643D01*
X-29670Y86577D01*
X-29823Y86501D01*
X-29943Y86424D01*
X-30031Y86359D01*
X-30085Y86315D01*
X-30107Y86293D01*
X-30249Y86129D01*
X-30358Y85954D01*
X-30446Y85769D01*
X-30501Y85594D01*
X-30544Y85441D01*
X-30577Y85310D01*
Y85266D01*
X-30588Y85233D01*
Y85200D01*
X-30599D01*
X-30675Y85430D01*
X-30774Y85627D01*
X-30883Y85790D01*
X-31014Y85944D01*
X-31145Y86064D01*
X-31277Y86162D01*
X-31419Y86250D01*
X-31550Y86315D01*
X-31681Y86370D01*
X-31812Y86414D01*
X-31921Y86435D01*
X-32031Y86457D01*
X-32107Y86468D01*
X-32173Y86479D01*
X-32217D01*
X-32228D01*
X-32348D01*
X-32468Y86457D01*
X-32686Y86403D01*
X-32872Y86326D01*
X-33025Y86239D01*
X-33156Y86140D01*
X-33244Y86064D01*
X-33299Y86009D01*
X-33321Y85998D01*
Y85987D01*
X-33463Y85790D01*
X-33572Y85583D01*
X-33648Y85375D01*
X-33692Y85178D01*
X-33725Y85004D01*
X-33736Y84927D01*
Y84861D01*
X-33747Y84807D01*
Y84730D01*
X-33736Y84424D01*
X-33692Y84151D01*
X-33626Y83900D01*
X-33561Y83692D01*
X-33495Y83517D01*
X-33463Y83451D01*
X-33430Y83397D01*
X-33408Y83353D01*
X-33386Y83320D01*
X-33375Y83298D01*
Y83288D01*
X-32686D01*
X-32774Y83397D01*
X-32840Y83517D01*
X-32960Y83736D01*
X-33047Y83943D01*
X-33102Y84140D01*
X-33135Y84315D01*
X-33146Y84381D01*
Y84446D01*
X-33156Y84490D01*
Y84555D01*
X-33146Y84774D01*
X-33113Y84960D01*
X-33058Y85113D01*
X-32982Y85255D01*
X-32905Y85375D01*
X-32807Y85474D01*
X-32708Y85550D01*
X-32610Y85616D01*
X-32501Y85670D01*
X-32402Y85703D01*
X-32304Y85736D01*
X-32228Y85747D01*
X-32151Y85758D01*
X-32096Y85769D01*
X-32063D01*
X-32053D01*
X-31845Y85747D01*
X-31659Y85703D01*
X-31495Y85627D01*
X-31353Y85517D01*
X-31244Y85397D01*
X-31145Y85266D01*
X-31069Y85124D01*
X-31003Y84971D01*
X-30949Y84818D01*
X-30916Y84676D01*
X-30883Y84544D01*
X-30872Y84424D01*
X-30861Y84326D01*
X-30850Y84238D01*
Y83670D01*
X-30271D01*
Y84195D01*
X-30260Y84512D01*
X-30216Y84785D01*
X-30151Y85036D01*
X-30074Y85233D01*
X-29976Y85408D01*
X-29867Y85561D01*
X-29746Y85681D01*
X-29637Y85769D01*
X-29517Y85845D01*
X-29397Y85900D01*
X-29287Y85944D01*
X-29189Y85965D01*
X-29112Y85987D01*
X-29047Y85998D01*
X-29003D01*
X-28992D01*
X-28784Y85976D01*
X-28610Y85933D01*
X-28446Y85867D01*
X-28315Y85790D01*
X-28216Y85714D01*
X-28140Y85648D01*
X-28085Y85605D01*
X-28074Y85583D01*
X-27965Y85419D01*
X-27877Y85244D01*
X-27823Y85069D01*
X-27779Y84894D01*
X-27757Y84741D01*
X-27746Y84621D01*
X-27735Y84577D01*
Y84512D01*
X-27746Y84359D01*
X-27757Y84217D01*
X-27823Y83943D01*
X-27899Y83692D01*
X-27998Y83473D01*
X-28052Y83375D01*
X-28096Y83288D01*
X-28140Y83211D01*
X-28183Y83156D01*
X-28216Y83102D01*
X-28238Y83069D01*
X-28249Y83047D01*
X-28260Y83036D01*
X-33747D01*
D01*
X-27167D01*
Y86709D01*
D02*
G37*
G36*
X-27265Y82380D02*
D01*
Y80009D01*
X-33637Y82380D01*
Y81626D01*
X-28544Y79790D01*
X-28336Y79724D01*
X-28238Y79692D01*
X-28151Y79670D01*
X-28074Y79659D01*
X-28019Y79648D01*
X-27987Y79637D01*
X-27976D01*
Y79615D01*
X-28096Y79593D01*
X-28205Y79582D01*
X-28293Y79560D01*
X-28380Y79539D01*
X-28446Y79517D01*
X-28489Y79506D01*
X-28522Y79495D01*
X-28533D01*
X-33637Y77702D01*
Y76915D01*
X-27265Y79243D01*
Y76915D01*
X-33637D01*
X-27265D01*
Y82380D01*
D02*
G37*
G36*
X-27167Y76194D02*
X-33747D01*
X-29058D01*
X-29287Y76172D01*
X-29495Y76128D01*
X-29670Y76063D01*
X-29823Y75986D01*
X-29943Y75910D01*
X-30031Y75844D01*
X-30085Y75801D01*
X-30107Y75779D01*
X-30249Y75615D01*
X-30358Y75440D01*
X-30446Y75254D01*
X-30501Y75079D01*
X-30544Y74926D01*
X-30577Y74795D01*
Y74751D01*
X-30588Y74718D01*
Y74686D01*
X-30599D01*
X-30675Y74915D01*
X-30774Y75112D01*
X-30883Y75276D01*
X-31014Y75429D01*
X-31145Y75549D01*
X-31277Y75647D01*
X-31419Y75735D01*
X-31550Y75801D01*
X-31681Y75855D01*
X-31812Y75899D01*
X-31921Y75921D01*
X-32031Y75943D01*
X-32107Y75954D01*
X-32173Y75964D01*
X-32217D01*
X-32228D01*
X-32348D01*
X-32468Y75943D01*
X-32686Y75888D01*
X-32872Y75811D01*
X-33025Y75724D01*
X-33156Y75626D01*
X-33244Y75549D01*
X-33299Y75494D01*
X-33321Y75484D01*
Y75473D01*
X-33463Y75276D01*
X-33572Y75068D01*
X-33648Y74861D01*
X-33692Y74664D01*
X-33725Y74489D01*
X-33736Y74412D01*
Y74347D01*
X-33747Y74292D01*
Y74216D01*
X-33736Y73910D01*
X-33692Y73636D01*
X-33626Y73385D01*
X-33561Y73177D01*
X-33495Y73002D01*
X-33463Y72937D01*
X-33430Y72882D01*
X-33408Y72838D01*
X-33386Y72806D01*
X-33375Y72784D01*
Y72773D01*
X-32686D01*
X-32774Y72882D01*
X-32840Y73002D01*
X-32960Y73221D01*
X-33047Y73429D01*
X-33102Y73625D01*
X-33135Y73800D01*
X-33146Y73866D01*
Y73931D01*
X-33156Y73975D01*
Y74041D01*
X-33146Y74259D01*
X-33113Y74445D01*
X-33058Y74598D01*
X-32982Y74740D01*
X-32905Y74861D01*
X-32807Y74959D01*
X-32708Y75035D01*
X-32610Y75101D01*
X-32501Y75156D01*
X-32402Y75188D01*
X-32304Y75221D01*
X-32228Y75232D01*
X-32151Y75243D01*
X-32096Y75254D01*
X-32063D01*
X-32053D01*
X-31845Y75232D01*
X-31659Y75188D01*
X-31495Y75112D01*
X-31353Y75003D01*
X-31244Y74882D01*
X-31145Y74751D01*
X-31069Y74609D01*
X-31003Y74456D01*
X-30949Y74303D01*
X-30916Y74161D01*
X-30883Y74030D01*
X-30872Y73910D01*
X-30861Y73811D01*
X-30850Y73724D01*
Y73155D01*
X-30271D01*
Y73680D01*
X-30260Y73997D01*
X-30216Y74270D01*
X-30151Y74522D01*
X-30074Y74718D01*
X-29976Y74893D01*
X-29867Y75046D01*
X-29746Y75166D01*
X-29637Y75254D01*
X-29517Y75331D01*
X-29397Y75385D01*
X-29287Y75429D01*
X-29189Y75451D01*
X-29112Y75473D01*
X-29047Y75484D01*
X-29003D01*
X-28992D01*
X-28784Y75462D01*
X-28610Y75418D01*
X-28446Y75352D01*
X-28315Y75276D01*
X-28216Y75199D01*
X-28140Y75134D01*
X-28085Y75090D01*
X-28074Y75068D01*
X-27965Y74904D01*
X-27877Y74729D01*
X-27823Y74555D01*
X-27779Y74380D01*
X-27757Y74227D01*
X-27746Y74106D01*
X-27735Y74063D01*
Y73997D01*
X-27746Y73844D01*
X-27757Y73702D01*
X-27823Y73429D01*
X-27899Y73177D01*
X-27998Y72959D01*
X-28052Y72860D01*
X-28096Y72773D01*
X-28140Y72696D01*
X-28183Y72642D01*
X-28216Y72587D01*
X-28238Y72554D01*
X-28249Y72532D01*
X-28260Y72522D01*
X-27495D01*
X-27386Y72740D01*
X-27309Y72980D01*
X-27243Y73210D01*
X-27211Y73440D01*
X-27189Y73647D01*
X-27178Y73735D01*
Y73811D01*
X-27167Y73866D01*
Y72522D01*
D01*
Y76194D01*
D02*
G37*
%LPD*%
G36*
Y83036D02*
X-27495D01*
X-27386Y83255D01*
X-27309Y83495D01*
X-27243Y83725D01*
X-27211Y83954D01*
X-27189Y84162D01*
X-27178Y84249D01*
Y84326D01*
X-27167Y84381D01*
Y83036D01*
D02*
G37*
G36*
Y73953D02*
X-27178Y74128D01*
X-27189Y74303D01*
X-27243Y74620D01*
X-27331Y74893D01*
X-27375Y75014D01*
X-27429Y75123D01*
X-27473Y75221D01*
X-27517Y75309D01*
X-27560Y75385D01*
X-27604Y75451D01*
X-27637Y75494D01*
X-27659Y75527D01*
X-27681Y75549D01*
Y75560D01*
X-27779Y75669D01*
X-27888Y75768D01*
X-27998Y75855D01*
X-28118Y75932D01*
X-28227Y75986D01*
X-28347Y76041D01*
X-28566Y76117D01*
X-28763Y76161D01*
X-28839Y76172D01*
X-28916Y76183D01*
X-28970Y76194D01*
X-27167D01*
Y73953D01*
D02*
G37*
%LPC*%
G36*
X1487Y85949D02*
X-3027D01*
X1399D01*
X1235Y85938D01*
X1082Y85927D01*
X809Y85861D01*
X569Y85774D01*
X372Y85676D01*
X208Y85566D01*
X143Y85523D01*
X99Y85479D01*
X55Y85446D01*
X22Y85413D01*
X11Y85403D01*
X0Y85392D01*
X-87Y85282D01*
X-175Y85162D01*
X-295Y84911D01*
X-393Y84659D01*
X-448Y84408D01*
X-491Y84189D01*
X-502Y84091D01*
Y84003D01*
X-513Y83938D01*
Y83621D01*
X-502Y83522D01*
Y83424D01*
X-491Y83348D01*
Y83282D01*
X-481Y83238D01*
Y83227D01*
X-2404Y83369D01*
Y85665D01*
X-3027D01*
Y82746D01*
X164Y82528D01*
X143Y82736D01*
X121Y82932D01*
X110Y83107D01*
Y83271D01*
X99Y83413D01*
Y83610D01*
X110Y83894D01*
X153Y84135D01*
X208Y84353D01*
X274Y84517D01*
X339Y84659D01*
X394Y84758D01*
X438Y84812D01*
X448Y84834D01*
X591Y84976D01*
X754Y85085D01*
X919Y85162D01*
X1072Y85206D01*
X1225Y85238D01*
X1334Y85250D01*
X1378Y85260D01*
X1410D01*
X1432D01*
X1443D01*
X1673Y85238D01*
X1869Y85195D01*
X2055Y85129D01*
X2197Y85053D01*
X2317Y84965D01*
X2405Y84900D01*
X2460Y84856D01*
X2482Y84834D01*
X2613Y84670D01*
X2711Y84484D01*
X2777Y84310D01*
X2820Y84135D01*
X2853Y83982D01*
X2864Y83850D01*
X2875Y83807D01*
Y83741D01*
X2853Y83490D01*
X2809Y83249D01*
X2744Y83031D01*
X2656Y82823D01*
X2580Y82659D01*
X2547Y82583D01*
X2514Y82528D01*
X2492Y82473D01*
X2471Y82441D01*
X2449Y82419D01*
Y82408D01*
X-3027D01*
X3443D01*
Y83730D01*
X3432Y83916D01*
X3421Y84091D01*
X3356Y84408D01*
X3312Y84561D01*
X3268Y84692D01*
X3225Y84812D01*
X3170Y84922D01*
X3115Y85020D01*
X3072Y85107D01*
X3028Y85173D01*
X2984Y85238D01*
X2952Y85282D01*
X2919Y85315D01*
X2908Y85337D01*
X2897Y85348D01*
X2788Y85457D01*
X2678Y85545D01*
X2558Y85632D01*
X2427Y85698D01*
X2186Y85807D01*
X1946Y85873D01*
X1727Y85916D01*
X1640Y85927D01*
X1552Y85938D01*
X1487Y85949D01*
D02*
G37*
G36*
X3443Y81271D02*
D01*
Y78232D01*
X3432Y78495D01*
X3400Y78735D01*
X3356Y78965D01*
X3301Y79172D01*
X3225Y79369D01*
X3148Y79555D01*
X3072Y79719D01*
X2984Y79872D01*
X2897Y80003D01*
X2820Y80123D01*
X2733Y80222D01*
X2667Y80298D01*
X2613Y80364D01*
X2569Y80418D01*
X2536Y80440D01*
X2525Y80451D01*
X2350Y80593D01*
X2154Y80725D01*
X1957Y80834D01*
X1760Y80921D01*
X1552Y81009D01*
X1345Y81074D01*
X1148Y81129D01*
X951Y81173D01*
X776Y81205D01*
X612Y81227D01*
X459Y81249D01*
X328Y81260D01*
X219Y81271D01*
X77D01*
X-185Y81260D01*
X-426Y81238D01*
X-666Y81194D01*
X-885Y81140D01*
X-1093Y81085D01*
X-1278Y81020D01*
X-1453Y80943D01*
X-1617Y80866D01*
X-1759Y80790D01*
X-1880Y80713D01*
X-1989Y80648D01*
X-2076Y80593D01*
X-2153Y80539D01*
X-2197Y80495D01*
X-2229Y80473D01*
X-2240Y80462D01*
X-2393Y80309D01*
X-2535Y80134D01*
X-2656Y79970D01*
X-2754Y79795D01*
X-2841Y79610D01*
X-2918Y79435D01*
X-2973Y79260D01*
X-3027Y79096D01*
X-3060Y78943D01*
X-3093Y78801D01*
X-3115Y78670D01*
X-3126Y78560D01*
Y78473D01*
X-3136Y78396D01*
Y78342D01*
X-3126Y78079D01*
X-3093Y77839D01*
X-3049Y77599D01*
X-2994Y77380D01*
X-2929Y77183D01*
X-2841Y76997D01*
X-2765Y76822D01*
X-2678Y76669D01*
X-2590Y76538D01*
X-2513Y76418D01*
X-2437Y76320D01*
X-2361Y76232D01*
X-2306Y76167D01*
X-2262Y76123D01*
X-2229Y76090D01*
X-2218Y76079D01*
X-2043Y75937D01*
X-1847Y75806D01*
X-1650Y75697D01*
X-1442Y75598D01*
X-1246Y75522D01*
X-1038Y75456D01*
X-841Y75402D01*
X-644Y75358D01*
X-459Y75314D01*
X-295Y75292D01*
X-142Y75270D01*
X-11Y75260D01*
X88D01*
X175Y75248D01*
X-3136D01*
D01*
X3443D01*
Y81271D01*
D02*
G37*
G36*
X3345Y73981D02*
X-3027D01*
Y73281D01*
X3345D01*
Y73981D01*
D02*
G37*
%LPD*%
G36*
X3443Y82408D02*
X3192D01*
X3279Y82594D01*
X3334Y82801D01*
X3378Y83020D01*
X3410Y83238D01*
X3432Y83424D01*
Y83512D01*
X3443Y83588D01*
Y82408D01*
D02*
G37*
G36*
X405Y80528D02*
X623Y80517D01*
X820Y80484D01*
X1006Y80440D01*
X1181Y80397D01*
X1334Y80342D01*
X1476Y80287D01*
X1607Y80233D01*
X1727Y80178D01*
X1826Y80123D01*
X1913Y80069D01*
X1990Y80025D01*
X2044Y79981D01*
X2088Y79948D01*
X2110Y79937D01*
X2121Y79927D01*
X2241Y79806D01*
X2350Y79675D01*
X2449Y79544D01*
X2525Y79402D01*
X2591Y79260D01*
X2645Y79118D01*
X2733Y78855D01*
X2766Y78724D01*
X2788Y78604D01*
X2798Y78506D01*
X2809Y78407D01*
X2820Y78342D01*
Y78232D01*
X2809Y78047D01*
X2788Y77872D01*
X2755Y77708D01*
X2700Y77555D01*
X2645Y77402D01*
X2580Y77271D01*
X2514Y77150D01*
X2449Y77041D01*
X2383Y76943D01*
X2307Y76855D01*
X2252Y76779D01*
X2197Y76713D01*
X2143Y76669D01*
X2110Y76637D01*
X2088Y76615D01*
X2077Y76604D01*
X1935Y76494D01*
X1782Y76407D01*
X1629Y76320D01*
X1465Y76254D01*
X1148Y76145D01*
X842Y76068D01*
X711Y76046D01*
X580Y76025D01*
X470Y76014D01*
X372Y76003D01*
X285Y75992D01*
X230D01*
X186D01*
X175D01*
X-32Y76003D01*
X-240Y76014D01*
X-437Y76046D01*
X-612Y76090D01*
X-787Y76134D01*
X-940Y76188D01*
X-1082Y76243D01*
X-1213Y76309D01*
X-1333Y76363D01*
X-1442Y76418D01*
X-1530Y76473D01*
X-1606Y76516D01*
X-1661Y76560D01*
X-1705Y76593D01*
X-1727Y76604D01*
X-1737Y76615D01*
X-1869Y76735D01*
X-1989Y76866D01*
X-2087Y76997D01*
X-2175Y77139D01*
X-2251Y77281D01*
X-2306Y77413D01*
X-2361Y77555D01*
X-2393Y77686D01*
X-2426Y77806D01*
X-2448Y77926D01*
X-2470Y78025D01*
X-2481Y78112D01*
X-2492Y78189D01*
Y78287D01*
X-2481Y78484D01*
X-2459Y78670D01*
X-2426Y78834D01*
X-2382Y78997D01*
X-2328Y79150D01*
X-2262Y79282D01*
X-2207Y79413D01*
X-2142Y79522D01*
X-2065Y79620D01*
X-2011Y79708D01*
X-1945Y79785D01*
X-1891Y79839D01*
X-1847Y79883D01*
X-1814Y79927D01*
X-1792Y79937D01*
X-1781Y79948D01*
X-1639Y80058D01*
X-1497Y80145D01*
X-1333Y80222D01*
X-1169Y80287D01*
X-852Y80397D01*
X-535Y80462D01*
X-382Y80495D01*
X-251Y80506D01*
X-131Y80517D01*
X-21Y80528D01*
X66Y80539D01*
X132D01*
X175D01*
X186D01*
X405Y80528D01*
D02*
G37*
G36*
X3443Y75248D02*
X241D01*
X503Y75260D01*
X744Y75281D01*
X984Y75325D01*
X1203Y75380D01*
X1410Y75434D01*
X1596Y75511D01*
X1771Y75587D01*
X1935Y75664D01*
X2077Y75740D01*
X2197Y75806D01*
X2307Y75883D01*
X2394Y75937D01*
X2471Y75992D01*
X2514Y76035D01*
X2547Y76057D01*
X2558Y76068D01*
X2711Y76232D01*
X2853Y76396D01*
X2973Y76571D01*
X3072Y76757D01*
X3159Y76932D01*
X3225Y77118D01*
X3290Y77292D01*
X3334Y77456D01*
X3367Y77620D01*
X3400Y77762D01*
X3410Y77894D01*
X3432Y78014D01*
Y78101D01*
X3443Y78178D01*
Y75248D01*
D02*
G37*
%LPC*%
G36*
X13680Y86113D02*
X11515D01*
Y85271D01*
X7307D01*
Y86113D01*
D01*
D01*
Y84539D01*
X7668Y84364D01*
X8029Y84167D01*
X8379Y83971D01*
X8542Y83872D01*
X8696Y83774D01*
X8838Y83687D01*
X8969Y83599D01*
X9078Y83522D01*
X9187Y83457D01*
X9264Y83402D01*
X9319Y83359D01*
X9362Y83337D01*
X9373Y83326D01*
X9788Y83031D01*
X10193Y82725D01*
X10565Y82429D01*
X10729Y82298D01*
X10892Y82167D01*
X11035Y82047D01*
X11166Y81938D01*
X11275Y81839D01*
X11373Y81763D01*
X11450Y81686D01*
X11515Y81643D01*
X11548Y81610D01*
X11559Y81599D01*
X7307D01*
X12139D01*
Y84594D01*
X13680D01*
Y85271D01*
X12139D01*
Y86113D01*
X13680D01*
D02*
G37*
G36*
X13778Y81107D02*
Y78069D01*
X13767Y78331D01*
X13734Y78571D01*
X13690Y78801D01*
X13636Y79008D01*
X13559Y79205D01*
X13483Y79391D01*
X13406Y79555D01*
X13319Y79708D01*
X13231Y79839D01*
X13155Y79959D01*
X13068Y80058D01*
X13002Y80134D01*
X12947Y80200D01*
X12904Y80255D01*
X12871Y80276D01*
X12860Y80287D01*
X12685Y80429D01*
X12488Y80560D01*
X12291Y80670D01*
X12095Y80757D01*
X11887Y80845D01*
X11679Y80910D01*
X11483Y80965D01*
X11286Y81009D01*
X11111Y81041D01*
X10947Y81063D01*
X10794Y81085D01*
X10663Y81096D01*
X10554Y81107D01*
X10412D01*
X10149Y81096D01*
X9909Y81074D01*
X9668Y81030D01*
X9450Y80976D01*
X9242Y80921D01*
X9056Y80856D01*
X8881Y80779D01*
X8717Y80703D01*
X8575Y80626D01*
X8455Y80550D01*
X8346Y80484D01*
X8258Y80429D01*
X8182Y80375D01*
X8138Y80331D01*
X8105Y80309D01*
X8094Y80298D01*
X7941Y80145D01*
X7799Y79970D01*
X7679Y79806D01*
X7581Y79631D01*
X7493Y79446D01*
X7417Y79271D01*
X7362Y79096D01*
X7307Y78932D01*
X7275Y78779D01*
X7242Y78637D01*
X7220Y78506D01*
X7209Y78396D01*
Y78309D01*
X7198Y78232D01*
Y78178D01*
X7209Y77915D01*
X7242Y77675D01*
X7286Y77434D01*
X7340Y77216D01*
X7406Y77019D01*
X7493Y76833D01*
X7570Y76658D01*
X7657Y76506D01*
X7745Y76374D01*
X7821Y76254D01*
X7898Y76156D01*
X7974Y76068D01*
X8029Y76003D01*
X8072Y75959D01*
X8105Y75926D01*
X8116Y75915D01*
X8291Y75773D01*
X8488Y75642D01*
X8685Y75533D01*
X8892Y75434D01*
X9089Y75358D01*
X9297Y75292D01*
X9493Y75238D01*
X9690Y75194D01*
X9876Y75150D01*
X10040Y75128D01*
X10193Y75106D01*
X10324Y75095D01*
X10423D01*
X10510Y75085D01*
X7198D01*
D01*
X13778D01*
Y81107D01*
D02*
G37*
G36*
X13680Y73817D02*
X7307D01*
Y73117D01*
X13680D01*
Y73817D01*
D02*
G37*
%LPD*%
G36*
X11515Y82397D02*
X10936Y82856D01*
X10510Y83195D01*
X10062Y83512D01*
X9635Y83807D01*
X9428Y83938D01*
X9231Y84069D01*
X9056Y84178D01*
X8881Y84288D01*
X8739Y84375D01*
X8608Y84452D01*
X8510Y84506D01*
X8433Y84561D01*
X8379Y84583D01*
X8368Y84594D01*
X11515D01*
Y82397D01*
D02*
G37*
G36*
X10739Y80364D02*
X10958Y80353D01*
X11155Y80320D01*
X11341Y80276D01*
X11515Y80233D01*
X11669Y80178D01*
X11811Y80123D01*
X11942Y80069D01*
X12062Y80014D01*
X12160Y79959D01*
X12248Y79905D01*
X12324Y79861D01*
X12379Y79817D01*
X12423Y79785D01*
X12444Y79773D01*
X12455Y79763D01*
X12576Y79642D01*
X12685Y79511D01*
X12783Y79380D01*
X12860Y79238D01*
X12925Y79096D01*
X12980Y78954D01*
X13068Y78692D01*
X13100Y78560D01*
X13122Y78440D01*
X13133Y78342D01*
X13144Y78243D01*
X13155Y78178D01*
Y78069D01*
X13144Y77883D01*
X13122Y77708D01*
X13089Y77544D01*
X13035Y77391D01*
X12980Y77238D01*
X12914Y77107D01*
X12849Y76986D01*
X12783Y76877D01*
X12718Y76779D01*
X12641Y76691D01*
X12587Y76615D01*
X12532Y76549D01*
X12477Y76506D01*
X12444Y76473D01*
X12423Y76451D01*
X12412Y76440D01*
X12270Y76331D01*
X12117Y76243D01*
X11964Y76156D01*
X11800Y76090D01*
X11483Y75981D01*
X11177Y75904D01*
X11045Y75883D01*
X10914Y75861D01*
X10805Y75850D01*
X10707Y75839D01*
X10619Y75828D01*
X10565D01*
X10521D01*
X10510D01*
X10302Y75839D01*
X10095Y75850D01*
X9898Y75883D01*
X9723Y75926D01*
X9548Y75970D01*
X9395Y76025D01*
X9253Y76079D01*
X9122Y76145D01*
X9002Y76199D01*
X8892Y76254D01*
X8805Y76309D01*
X8728Y76352D01*
X8674Y76396D01*
X8630Y76429D01*
X8608Y76440D01*
X8597Y76451D01*
X8466Y76571D01*
X8346Y76702D01*
X8247Y76833D01*
X8160Y76976D01*
X8083Y77118D01*
X8029Y77249D01*
X7974Y77391D01*
X7941Y77522D01*
X7909Y77642D01*
X7887Y77762D01*
X7865Y77861D01*
X7854Y77948D01*
X7843Y78025D01*
Y78123D01*
X7854Y78320D01*
X7876Y78506D01*
X7909Y78670D01*
X7952Y78834D01*
X8007Y78987D01*
X8072Y79118D01*
X8127Y79249D01*
X8193Y79358D01*
X8269Y79457D01*
X8324Y79544D01*
X8389Y79620D01*
X8444Y79675D01*
X8488Y79719D01*
X8521Y79763D01*
X8542Y79773D01*
X8553Y79785D01*
X8696Y79894D01*
X8838Y79981D01*
X9002Y80058D01*
X9166Y80123D01*
X9482Y80233D01*
X9799Y80298D01*
X9952Y80331D01*
X10084Y80342D01*
X10204Y80353D01*
X10313Y80364D01*
X10401Y80375D01*
X10466D01*
X10510D01*
X10521D01*
X10739Y80364D01*
D02*
G37*
G36*
X13778Y75085D02*
X10576D01*
X10838Y75095D01*
X11078Y75117D01*
X11319Y75161D01*
X11537Y75216D01*
X11745Y75270D01*
X11931Y75347D01*
X12106Y75423D01*
X12270Y75500D01*
X12412Y75576D01*
X12532Y75642D01*
X12641Y75718D01*
X12729Y75773D01*
X12805Y75828D01*
X12849Y75871D01*
X12882Y75893D01*
X12893Y75904D01*
X13046Y76068D01*
X13188Y76232D01*
X13308Y76407D01*
X13406Y76593D01*
X13494Y76768D01*
X13559Y76954D01*
X13625Y77128D01*
X13669Y77292D01*
X13701Y77456D01*
X13734Y77599D01*
X13745Y77730D01*
X13767Y77850D01*
Y77937D01*
X13778Y78014D01*
Y75085D01*
D02*
G37*
%LPC*%
G36*
X30169Y202802D02*
D01*
Y201220D01*
X30162Y201365D01*
X30147Y201497D01*
X30125Y201628D01*
X30096Y201745D01*
X30060Y201854D01*
X30016Y201956D01*
X29965Y202051D01*
X29907Y202131D01*
X29783Y202291D01*
X29644Y202415D01*
X29491Y202517D01*
X29338Y202605D01*
X29185Y202670D01*
X29032Y202721D01*
X28893Y202751D01*
X28769Y202780D01*
X28660Y202794D01*
X28616D01*
X28580Y202802D01*
X30169D01*
X25635D01*
X25708D01*
Y202350D01*
X26130D01*
Y202335D01*
X26043Y202277D01*
X25970Y202211D01*
X25897Y202138D01*
X25846Y202065D01*
X25795Y201992D01*
X25759Y201912D01*
X25693Y201766D01*
X25664Y201628D01*
X25649Y201570D01*
X25642Y201519D01*
X25635Y201475D01*
Y201416D01*
X25642Y201300D01*
X25657Y201190D01*
X25678Y201088D01*
X25708Y200994D01*
X25780Y200819D01*
X25824Y200739D01*
X25861Y200673D01*
X25904Y200607D01*
X25948Y200556D01*
X25984Y200513D01*
X26021Y200476D01*
X26050Y200440D01*
X26072Y200418D01*
X26087Y200411D01*
X26094Y200403D01*
X26181Y200338D01*
X26276Y200279D01*
X26378Y200228D01*
X26480Y200192D01*
X26684Y200119D01*
X26881Y200075D01*
X26969Y200061D01*
X27056Y200053D01*
X27129Y200046D01*
X27195Y200039D01*
X27253Y200031D01*
X30169D01*
Y202802D01*
D02*
G37*
G36*
X28806Y199244D02*
D01*
Y197837D01*
X28798Y197954D01*
X28784Y198063D01*
X28755Y198158D01*
X28718Y198253D01*
X28682Y198340D01*
X28638Y198413D01*
X28587Y198486D01*
X28536Y198544D01*
X28485Y198602D01*
X28434Y198646D01*
X28390Y198690D01*
X28354Y198719D01*
X28317Y198748D01*
X28288Y198763D01*
X28274Y198777D01*
X28266D01*
Y198785D01*
X28740D01*
Y199244D01*
X28806D01*
X25708D01*
Y198785D01*
X27457D01*
X27610Y198777D01*
X27749Y198748D01*
X27865Y198712D01*
X27967Y198668D01*
X28048Y198617D01*
X28106Y198581D01*
X28142Y198551D01*
X28157Y198544D01*
X28244Y198450D01*
X28310Y198355D01*
X28361Y198253D01*
X28390Y198165D01*
X28412Y198078D01*
X28419Y198012D01*
X28427Y197968D01*
Y197954D01*
X28412Y197822D01*
X28383Y197706D01*
X28339Y197604D01*
X28274Y197516D01*
X28201Y197451D01*
X28113Y197385D01*
X28026Y197334D01*
X27931Y197298D01*
X27843Y197268D01*
X27756Y197239D01*
X27668Y197225D01*
X27596Y197218D01*
X27530Y197210D01*
X27486Y197203D01*
X27450D01*
X27442D01*
X25708D01*
Y196751D01*
X28806D01*
Y199244D01*
D02*
G37*
G36*
Y196029D02*
X24250D01*
X27012D01*
X26896Y196015D01*
X26677Y195978D01*
X26582Y195949D01*
X26487Y195920D01*
X26407Y195891D01*
X26335Y195861D01*
X26269Y195832D01*
X26210Y195803D01*
X26160Y195774D01*
X26116Y195745D01*
X26087Y195723D01*
X26065Y195708D01*
X26050Y195701D01*
X26043Y195694D01*
X25970Y195628D01*
X25904Y195555D01*
X25853Y195482D01*
X25810Y195410D01*
X25737Y195256D01*
X25686Y195111D01*
X25657Y194979D01*
X25649Y194928D01*
X25642Y194877D01*
X25635Y194841D01*
Y194783D01*
X25642Y194659D01*
X25664Y194542D01*
X25693Y194425D01*
X25729Y194323D01*
X25773Y194228D01*
X25831Y194141D01*
X25883Y194068D01*
X25941Y193995D01*
X25999Y193930D01*
X26050Y193879D01*
X26101Y193835D01*
X26152Y193791D01*
X26189Y193762D01*
X26218Y193740D01*
X26240Y193733D01*
X26247Y193726D01*
Y193718D01*
X24250D01*
D01*
Y193259D01*
X28740D01*
Y193718D01*
X28295D01*
Y193726D01*
X28383Y193791D01*
X28463Y193857D01*
X28529Y193930D01*
X28587Y194003D01*
X28638Y194076D01*
X28682Y194156D01*
X28718Y194228D01*
X28740Y194301D01*
X28777Y194440D01*
X28791Y194491D01*
X28798Y194542D01*
X28806Y194586D01*
Y193259D01*
Y194644D01*
X28798Y194761D01*
X28784Y194870D01*
X28762Y194972D01*
X28733Y195067D01*
X28667Y195235D01*
X28624Y195315D01*
X28580Y195380D01*
X28543Y195446D01*
X28500Y195497D01*
X28463Y195541D01*
X28427Y195584D01*
X28405Y195614D01*
X28383Y195635D01*
X28368Y195643D01*
X28361Y195650D01*
X28274Y195716D01*
X28179Y195774D01*
X28077Y195825D01*
X27982Y195869D01*
X27778Y195934D01*
X27581Y195985D01*
X27486Y196000D01*
X27406Y196007D01*
X27326Y196015D01*
X27260Y196022D01*
X27209Y196029D01*
X28806D01*
D02*
G37*
G36*
Y192508D02*
X26969D01*
X26852Y192493D01*
X26735Y192479D01*
X26633Y192457D01*
X26539Y192435D01*
X26451Y192406D01*
X26371Y192377D01*
X26298Y192348D01*
X26232Y192311D01*
X26181Y192282D01*
X26130Y192253D01*
X26094Y192231D01*
X26057Y192209D01*
X26036Y192195D01*
X26028Y192187D01*
X26021Y192180D01*
X25955Y192114D01*
X25890Y192049D01*
X25839Y191976D01*
X25795Y191903D01*
X25729Y191750D01*
X25686Y191604D01*
X25657Y191473D01*
X25649Y191415D01*
X25642Y191364D01*
X25635Y191327D01*
Y189884D01*
Y191269D01*
X25642Y191159D01*
X25657Y191057D01*
X25678Y190955D01*
X25708Y190868D01*
X25780Y190693D01*
X25861Y190554D01*
X25904Y190489D01*
X25941Y190438D01*
X25984Y190387D01*
X26014Y190350D01*
X26043Y190321D01*
X26065Y190299D01*
X26079Y190285D01*
X26087Y190277D01*
X26174Y190212D01*
X26269Y190146D01*
X26356Y190095D01*
X26458Y190051D01*
X26648Y189979D01*
X26830Y189935D01*
X26910Y189920D01*
X26991Y189906D01*
X27056Y189898D01*
X27114Y189891D01*
X27165Y189884D01*
X28806D01*
Y191247D01*
X28791Y191480D01*
X28762Y191684D01*
X28718Y191867D01*
X28689Y191947D01*
X28660Y192020D01*
X28638Y192085D01*
X28609Y192144D01*
X28587Y192187D01*
X28565Y192231D01*
X28551Y192260D01*
X28536Y192282D01*
X28521Y192297D01*
Y192304D01*
X28077D01*
X28135Y192224D01*
X28186Y192144D01*
X28274Y191976D01*
X28332Y191816D01*
X28376Y191670D01*
X28398Y191546D01*
X28412Y191488D01*
Y191444D01*
X28419Y191407D01*
Y191356D01*
X28405Y191196D01*
X28376Y191050D01*
X28332Y190926D01*
X28281Y190824D01*
X28230Y190744D01*
X28186Y190686D01*
X28157Y190649D01*
X28142Y190635D01*
X28026Y190547D01*
X27902Y190481D01*
X27763Y190430D01*
X27639Y190401D01*
X27523Y190379D01*
X27472Y190372D01*
X27428Y190365D01*
X27391Y190358D01*
X27362D01*
X27348D01*
X27340D01*
Y192508D01*
X28806D01*
D02*
G37*
G36*
Y189089D02*
Y187573D01*
X28798Y187704D01*
X28784Y187821D01*
X28755Y187937D01*
X28711Y188039D01*
X28667Y188134D01*
X28624Y188222D01*
X28565Y188294D01*
X28514Y188367D01*
X28463Y188426D01*
X28405Y188477D01*
X28361Y188521D01*
X28310Y188557D01*
X28274Y188586D01*
X28244Y188608D01*
X28230Y188615D01*
X28223Y188622D01*
Y188637D01*
X28740D01*
Y189089D01*
X28806D01*
X24250D01*
Y188637D01*
X26130D01*
Y188622D01*
X26043Y188564D01*
X25970Y188499D01*
X25897Y188433D01*
X25846Y188353D01*
X25795Y188280D01*
X25759Y188207D01*
X25693Y188054D01*
X25664Y187915D01*
X25649Y187857D01*
X25642Y187806D01*
X25635Y187762D01*
Y187704D01*
X25642Y187587D01*
X25657Y187478D01*
X25678Y187376D01*
X25708Y187281D01*
X25780Y187113D01*
X25824Y187033D01*
X25861Y186968D01*
X25904Y186902D01*
X25948Y186851D01*
X25984Y186807D01*
X26021Y186771D01*
X26050Y186734D01*
X26072Y186713D01*
X26087Y186705D01*
X26094Y186698D01*
X26181Y186632D01*
X26276Y186574D01*
X26371Y186523D01*
X26473Y186479D01*
X26670Y186414D01*
X26867Y186370D01*
X26954Y186348D01*
X27034Y186341D01*
X27107Y186334D01*
X27173Y186326D01*
X27224Y186319D01*
X24250D01*
X27297D01*
X27421Y186326D01*
X27545Y186334D01*
X27661Y186348D01*
X27763Y186370D01*
X27865Y186399D01*
X27953Y186428D01*
X28040Y186457D01*
X28113Y186494D01*
X28179Y186523D01*
X28237Y186552D01*
X28288Y186581D01*
X28332Y186610D01*
X28361Y186632D01*
X28383Y186647D01*
X28398Y186662D01*
X28405D01*
X28478Y186727D01*
X28536Y186800D01*
X28587Y186873D01*
X28638Y186946D01*
X28711Y187099D01*
X28755Y187245D01*
X28784Y187376D01*
X28791Y187434D01*
X28798Y187478D01*
X28806Y187522D01*
Y186319D01*
D01*
Y189089D01*
D02*
G37*
%LPD*%
G36*
X27537Y202335D02*
X27683Y202306D01*
X27814Y202262D01*
X27924Y202218D01*
X28011Y202167D01*
X28077Y202124D01*
X28113Y202095D01*
X28128Y202080D01*
X28230Y201978D01*
X28303Y201861D01*
X28354Y201752D01*
X28390Y201642D01*
X28412Y201548D01*
X28419Y201475D01*
X28427Y201446D01*
Y201402D01*
X28412Y201256D01*
X28376Y201132D01*
X28332Y201015D01*
X28274Y200921D01*
X28215Y200848D01*
X28172Y200790D01*
X28135Y200760D01*
X28120Y200746D01*
X27997Y200658D01*
X27858Y200600D01*
X27720Y200556D01*
X27588Y200520D01*
X27472Y200505D01*
X27421Y200498D01*
X27377D01*
X27340Y200491D01*
X27311D01*
X27297D01*
X27289D01*
X27078Y200505D01*
X26896Y200534D01*
X26735Y200571D01*
X26604Y200622D01*
X26502Y200673D01*
X26458Y200695D01*
X26422Y200709D01*
X26400Y200731D01*
X26378Y200739D01*
X26371Y200753D01*
X26364D01*
X26305Y200804D01*
X26247Y200862D01*
X26167Y200979D01*
X26101Y201096D01*
X26065Y201212D01*
X26036Y201314D01*
X26028Y201402D01*
X26021Y201431D01*
Y201475D01*
X26036Y201606D01*
X26065Y201723D01*
X26101Y201832D01*
X26152Y201920D01*
X26203Y201992D01*
X26240Y202051D01*
X26269Y202080D01*
X26283Y202095D01*
X26386Y202182D01*
X26495Y202240D01*
X26597Y202284D01*
X26699Y202321D01*
X26786Y202335D01*
X26852Y202342D01*
X26881Y202350D01*
X26903D01*
X26910D01*
X26918D01*
X27377D01*
X27537Y202335D01*
D02*
G37*
G36*
X28777D02*
X28959Y202299D01*
X29119Y202248D01*
X29258Y202175D01*
X29374Y202087D01*
X29476Y201992D01*
X29557Y201890D01*
X29615Y201788D01*
X29666Y201679D01*
X29702Y201577D01*
X29732Y201482D01*
X29746Y201395D01*
X29761Y201322D01*
X29768Y201271D01*
Y201220D01*
X29754Y201037D01*
X29724Y200862D01*
X29681Y200695D01*
X29622Y200549D01*
X29571Y200418D01*
X29549Y200367D01*
X29528Y200323D01*
X29513Y200287D01*
X29498Y200257D01*
X29484Y200243D01*
Y200236D01*
X29950D01*
X30023Y200403D01*
X30074Y200571D01*
X30118Y200739D01*
X30140Y200892D01*
X30154Y201023D01*
X30162Y201081D01*
Y201125D01*
X30169Y201169D01*
Y200031D01*
X27326D01*
X27450Y200039D01*
X27566Y200046D01*
X27778Y200082D01*
X27880Y200112D01*
X27967Y200141D01*
X28048Y200170D01*
X28120Y200206D01*
X28186Y200236D01*
X28244Y200265D01*
X28288Y200294D01*
X28332Y200323D01*
X28361Y200345D01*
X28383Y200359D01*
X28398Y200374D01*
X28405D01*
X28478Y200440D01*
X28536Y200513D01*
X28587Y200585D01*
X28638Y200666D01*
X28711Y200819D01*
X28755Y200964D01*
X28784Y201088D01*
X28791Y201147D01*
X28798Y201190D01*
X28806Y201234D01*
Y201285D01*
X28798Y201409D01*
X28784Y201526D01*
X28755Y201642D01*
X28718Y201745D01*
X28675Y201839D01*
X28624Y201920D01*
X28572Y202000D01*
X28514Y202073D01*
X28463Y202131D01*
X28412Y202189D01*
X28361Y202233D01*
X28317Y202269D01*
X28281Y202299D01*
X28252Y202321D01*
X28237Y202328D01*
X28230Y202335D01*
Y202350D01*
X28565D01*
X28777Y202335D01*
D02*
G37*
G36*
X28806Y196751D02*
X27639D01*
X27749Y196765D01*
X27946Y196795D01*
X28120Y196853D01*
X28266Y196919D01*
X28390Y197006D01*
X28492Y197093D01*
X28580Y197196D01*
X28645Y197298D01*
X28696Y197392D01*
X28740Y197494D01*
X28769Y197582D01*
X28784Y197669D01*
X28798Y197735D01*
X28806Y197793D01*
Y196751D01*
D02*
G37*
G36*
X27340Y195555D02*
X27530Y195526D01*
X27698Y195482D01*
X27836Y195439D01*
X27894Y195410D01*
X27946Y195388D01*
X27982Y195366D01*
X28019Y195351D01*
X28048Y195329D01*
X28069Y195322D01*
X28077Y195308D01*
X28084D01*
X28142Y195256D01*
X28193Y195205D01*
X28281Y195089D01*
X28339Y194972D01*
X28383Y194855D01*
X28405Y194753D01*
X28419Y194673D01*
X28427Y194644D01*
Y194600D01*
X28412Y194462D01*
X28383Y194345D01*
X28346Y194236D01*
X28295Y194141D01*
X28244Y194068D01*
X28208Y194010D01*
X28179Y193981D01*
X28164Y193966D01*
X28055Y193886D01*
X27946Y193820D01*
X27836Y193777D01*
X27734Y193747D01*
X27647Y193733D01*
X27574Y193726D01*
X27545Y193718D01*
X27523D01*
X27515D01*
X27508D01*
X27078D01*
X26918Y193733D01*
X26772Y193762D01*
X26641Y193798D01*
X26531Y193850D01*
X26444Y193901D01*
X26378Y193937D01*
X26342Y193966D01*
X26327Y193981D01*
X26225Y194090D01*
X26152Y194199D01*
X26094Y194316D01*
X26057Y194425D01*
X26036Y194527D01*
X26028Y194600D01*
X26021Y194630D01*
Y194673D01*
X26036Y194819D01*
X26065Y194943D01*
X26116Y195052D01*
X26167Y195147D01*
X26225Y195220D01*
X26276Y195271D01*
X26305Y195308D01*
X26320Y195315D01*
X26436Y195395D01*
X26568Y195461D01*
X26699Y195504D01*
X26830Y195534D01*
X26947Y195548D01*
X26998Y195555D01*
X27034Y195563D01*
X27071D01*
X27100D01*
X27114D01*
X27122D01*
X27340Y195555D01*
D02*
G37*
G36*
X26932Y190358D02*
X26786Y190387D01*
X26655Y190438D01*
X26546Y190489D01*
X26451Y190540D01*
X26378Y190591D01*
X26320Y190635D01*
X26291Y190664D01*
X26276Y190671D01*
X26196Y190766D01*
X26130Y190868D01*
X26087Y190970D01*
X26057Y191057D01*
X26043Y191138D01*
X26028Y191203D01*
Y191261D01*
X26036Y191393D01*
X26065Y191502D01*
X26101Y191604D01*
X26145Y191684D01*
X26196Y191750D01*
X26232Y191794D01*
X26262Y191823D01*
X26269Y191830D01*
X26364Y191896D01*
X26473Y191947D01*
X26582Y191983D01*
X26692Y192012D01*
X26786Y192027D01*
X26859Y192034D01*
X26888D01*
X26910D01*
X26925D01*
X26932D01*
Y190358D01*
D02*
G37*
G36*
X28806Y189884D02*
X27231D01*
X27370Y189891D01*
X27494Y189898D01*
X27617Y189920D01*
X27727Y189942D01*
X27829Y189964D01*
X27924Y190000D01*
X28011Y190030D01*
X28091Y190066D01*
X28157Y190095D01*
X28223Y190132D01*
X28274Y190161D01*
X28310Y190183D01*
X28346Y190212D01*
X28368Y190226D01*
X28383Y190234D01*
X28390Y190241D01*
X28463Y190314D01*
X28529Y190387D01*
X28580Y190467D01*
X28631Y190554D01*
X28667Y190635D01*
X28704Y190722D01*
X28755Y190882D01*
X28784Y191028D01*
X28791Y191087D01*
X28798Y191145D01*
X28806Y191189D01*
Y189884D01*
D02*
G37*
G36*
X27537Y188622D02*
X27683Y188593D01*
X27814Y188550D01*
X27924Y188506D01*
X28011Y188455D01*
X28077Y188411D01*
X28113Y188382D01*
X28128Y188367D01*
X28230Y188265D01*
X28303Y188149D01*
X28354Y188039D01*
X28390Y187937D01*
X28412Y187843D01*
X28419Y187762D01*
X28427Y187733D01*
Y187697D01*
X28419Y187617D01*
X28412Y187544D01*
X28376Y187412D01*
X28325Y187296D01*
X28266Y187201D01*
X28215Y187128D01*
X28164Y187070D01*
X28128Y187041D01*
X28113Y187026D01*
X27982Y186946D01*
X27843Y186880D01*
X27705Y186837D01*
X27574Y186807D01*
X27457Y186793D01*
X27406Y186785D01*
X27362D01*
X27326Y186778D01*
X27297D01*
X27282D01*
X27275D01*
X27071Y186793D01*
X26888Y186822D01*
X26735Y186858D01*
X26604Y186909D01*
X26502Y186960D01*
X26458Y186982D01*
X26422Y186997D01*
X26400Y187019D01*
X26378Y187026D01*
X26371Y187041D01*
X26364D01*
X26305Y187092D01*
X26247Y187150D01*
X26167Y187267D01*
X26101Y187383D01*
X26065Y187500D01*
X26036Y187602D01*
X26028Y187682D01*
X26021Y187711D01*
Y187755D01*
X26036Y187893D01*
X26065Y188010D01*
X26101Y188119D01*
X26152Y188214D01*
X26203Y188287D01*
X26240Y188338D01*
X26269Y188367D01*
X26283Y188382D01*
X26386Y188470D01*
X26495Y188528D01*
X26597Y188572D01*
X26699Y188608D01*
X26786Y188622D01*
X26852Y188630D01*
X26881Y188637D01*
X26903D01*
X26910D01*
X26918D01*
X27377D01*
X27537Y188622D01*
D02*
G37*
%LPC*%
G36*
X12303Y119080D02*
X12150D01*
X11888Y119069D01*
X11637Y119036D01*
X11407Y118992D01*
X11178Y118927D01*
X10970Y118850D01*
X10784Y118774D01*
X10609Y118686D01*
X10445Y118599D01*
X10303Y118501D01*
X10172Y118413D01*
X10063Y118337D01*
X9975Y118260D01*
X9910Y118195D01*
X9855Y118151D01*
X9822Y118118D01*
X9811Y118107D01*
X9647Y117921D01*
X9516Y117725D01*
X9396Y117528D01*
X9287Y117320D01*
X9199Y117113D01*
X9123Y116905D01*
X9068Y116708D01*
X9013Y116522D01*
X8981Y116347D01*
X8948Y116183D01*
X8937Y116030D01*
X8915Y115910D01*
Y115801D01*
X8904Y115724D01*
Y115659D01*
X8915Y115407D01*
X8937Y115156D01*
X8981Y114927D01*
X9035Y114708D01*
X9090Y114511D01*
X9166Y114325D01*
X9243Y114151D01*
X9319Y113997D01*
X9396Y113855D01*
X9461Y113724D01*
X9538Y113626D01*
X9593Y113538D01*
X9647Y113462D01*
X9691Y113418D01*
X9713Y113385D01*
X9724Y113374D01*
X9888Y113221D01*
X10052Y113090D01*
X10227Y112970D01*
X10412Y112872D01*
X10587Y112784D01*
X10773Y112719D01*
X10948Y112653D01*
X11123Y112609D01*
X11276Y112577D01*
X11429Y112544D01*
X11560Y112522D01*
X11669Y112511D01*
X11768D01*
X11844Y112500D01*
X11899D01*
X12270Y112511D01*
X12609Y112555D01*
X12762Y112587D01*
X12904Y112609D01*
X13047Y112642D01*
X13167Y112686D01*
X13276Y112719D01*
X13363Y112751D01*
X13451Y112773D01*
X13517Y112806D01*
X13571Y112828D01*
X13615Y112850D01*
X13637Y112861D01*
X13648D01*
Y113549D01*
X13374Y113407D01*
X13090Y113298D01*
X12806Y113232D01*
X12544Y113178D01*
X12424Y113156D01*
X12314Y113145D01*
X12216Y113134D01*
X12139D01*
X12074Y113123D01*
X11975D01*
X11779Y113134D01*
X11604Y113156D01*
X11429Y113189D01*
X11265Y113232D01*
X11112Y113287D01*
X10970Y113353D01*
X10850Y113407D01*
X10729Y113484D01*
X10631Y113549D01*
X10533Y113604D01*
X10456Y113670D01*
X10402Y113724D01*
X10347Y113768D01*
X10314Y113801D01*
X10292Y113823D01*
X10281Y113833D01*
X10172Y113976D01*
X10074Y114118D01*
X9986Y114271D01*
X9921Y114435D01*
X9855Y114588D01*
X9800Y114741D01*
X9724Y115036D01*
X9702Y115178D01*
X9680Y115298D01*
X9669Y115418D01*
X9658Y115517D01*
X9647Y115593D01*
Y115648D01*
Y115692D01*
Y115702D01*
X9658Y115921D01*
X9680Y116129D01*
X9713Y116326D01*
X9757Y116522D01*
X9800Y116697D01*
X9855Y116850D01*
X9921Y117003D01*
X9986Y117134D01*
X10041Y117255D01*
X10106Y117364D01*
X10161Y117451D01*
X10216Y117528D01*
X10249Y117593D01*
X10281Y117637D01*
X10303Y117659D01*
X10314Y117670D01*
X10445Y117801D01*
X10587Y117921D01*
X10729Y118020D01*
X10882Y118118D01*
X11035Y118184D01*
X11188Y118249D01*
X11342Y118304D01*
X11484Y118337D01*
X11615Y118369D01*
X11746Y118391D01*
X11855Y118413D01*
X11954Y118424D01*
X12030Y118435D01*
X12139D01*
X12445Y118424D01*
X12730Y118380D01*
X12981Y118315D01*
X13210Y118249D01*
X13298Y118205D01*
X13385Y118173D01*
X13462Y118140D01*
X13528Y118118D01*
X13582Y118085D01*
X13615Y118074D01*
X13637Y118052D01*
X13648D01*
Y118807D01*
X13418Y118894D01*
X13167Y118960D01*
X12915Y119014D01*
X12675Y119047D01*
X12467Y119069D01*
X12380D01*
X12303Y119080D01*
D02*
G37*
G36*
X3035D02*
X2882D01*
X2619Y119069D01*
X2368Y119036D01*
X2138Y118992D01*
X1909Y118927D01*
X1701Y118850D01*
X1515Y118774D01*
X1340Y118686D01*
X1177Y118599D01*
X1034Y118501D01*
X903Y118413D01*
X794Y118337D01*
X707Y118260D01*
X641Y118195D01*
X586Y118151D01*
X554Y118118D01*
X543Y118107D01*
X379Y117921D01*
X247Y117725D01*
X127Y117528D01*
X18Y117320D01*
X-69Y117113D01*
X-146Y116905D01*
X-201Y116708D01*
X-255Y116522D01*
X-288Y116347D01*
X-321Y116183D01*
X-332Y116030D01*
X-354Y115910D01*
Y115801D01*
X-365Y115724D01*
Y115659D01*
X-354Y115407D01*
X-332Y115156D01*
X-288Y114927D01*
X-233Y114708D01*
X-179Y114511D01*
X-102Y114325D01*
X-26Y114151D01*
X51Y113997D01*
X127Y113855D01*
X193Y113724D01*
X269Y113626D01*
X324Y113538D01*
X379Y113462D01*
X422Y113418D01*
X444Y113385D01*
X455Y113374D01*
X619Y113221D01*
X783Y113090D01*
X958Y112970D01*
X1144Y112872D01*
X1319Y112784D01*
X1505Y112719D01*
X1679Y112653D01*
X1854Y112609D01*
X2007Y112577D01*
X2160Y112544D01*
X2291Y112522D01*
X2401Y112511D01*
X2499D01*
X2576Y112500D01*
X2630D01*
X3002Y112511D01*
X3341Y112555D01*
X3494Y112587D01*
X3636Y112609D01*
X3778Y112642D01*
X3898Y112686D01*
X4008Y112719D01*
X4095Y112751D01*
X4182Y112773D01*
X4248Y112806D01*
X4303Y112828D01*
X4346Y112850D01*
X4368Y112861D01*
X4379D01*
Y113549D01*
X4106Y113407D01*
X3822Y113298D01*
X3537Y113232D01*
X3275Y113178D01*
X3155Y113156D01*
X3046Y113145D01*
X2947Y113134D01*
X2871D01*
X2805Y113123D01*
X2707D01*
X2510Y113134D01*
X2335Y113156D01*
X2160Y113189D01*
X1996Y113232D01*
X1843Y113287D01*
X1701Y113353D01*
X1581Y113407D01*
X1461Y113484D01*
X1362Y113549D01*
X1264Y113604D01*
X1187Y113670D01*
X1133Y113724D01*
X1078Y113768D01*
X1045Y113801D01*
X1024Y113823D01*
X1013Y113833D01*
X903Y113976D01*
X805Y114118D01*
X717Y114271D01*
X652Y114435D01*
X586Y114588D01*
X532Y114741D01*
X455Y115036D01*
X433Y115178D01*
X411Y115298D01*
X400Y115418D01*
X390Y115517D01*
X379Y115593D01*
Y115648D01*
Y115692D01*
Y115702D01*
X390Y115921D01*
X411Y116129D01*
X444Y116326D01*
X488Y116522D01*
X532Y116697D01*
X586Y116850D01*
X652Y117003D01*
X717Y117134D01*
X772Y117255D01*
X838Y117364D01*
X892Y117451D01*
X947Y117528D01*
X980Y117593D01*
X1013Y117637D01*
X1034Y117659D01*
X1045Y117670D01*
X1177Y117801D01*
X1319Y117921D01*
X1461Y118020D01*
X1614Y118118D01*
X1767Y118184D01*
X1920Y118249D01*
X2073Y118304D01*
X2215Y118337D01*
X2346Y118369D01*
X2477Y118391D01*
X2587Y118413D01*
X2685Y118424D01*
X2761Y118435D01*
X2871D01*
X3177Y118424D01*
X3461Y118380D01*
X3712Y118315D01*
X3942Y118249D01*
X4029Y118205D01*
X4117Y118173D01*
X4193Y118140D01*
X4259Y118118D01*
X4313Y118085D01*
X4346Y118074D01*
X4368Y118052D01*
X4379D01*
Y118807D01*
X4149Y118894D01*
X3898Y118960D01*
X3647Y119014D01*
X3406Y119047D01*
X3199Y119069D01*
X3111D01*
X3035Y119080D01*
D02*
G37*
G36*
X-13491Y118971D02*
X-14191D01*
Y116151D01*
X-17536D01*
Y118971D01*
X-18235D01*
Y112598D01*
X-17536D01*
Y115517D01*
X-14191D01*
Y112598D01*
X-13491D01*
Y118971D01*
D02*
G37*
G36*
X7909Y115407D02*
X5483D01*
Y114861D01*
X7909D01*
Y115407D01*
D02*
G37*
G36*
X-7196D02*
X-9622D01*
Y114861D01*
X-7196D01*
Y115407D01*
D02*
G37*
G36*
X-19929Y118971D02*
X-20793D01*
X-22837Y114500D01*
X-22913Y114293D01*
X-22990Y114129D01*
X-23033Y113987D01*
X-23077Y113888D01*
X-23110Y113812D01*
X-23132Y113757D01*
X-23143Y113735D01*
Y113724D01*
X-23176D01*
X-23208Y113812D01*
X-23241Y113932D01*
X-23296Y114052D01*
X-23339Y114183D01*
X-23394Y114293D01*
X-23427Y114391D01*
X-23460Y114456D01*
X-23471Y114468D01*
Y114478D01*
X-25471Y118971D01*
X-26378D01*
Y112598D01*
X-25700D01*
Y116916D01*
Y117091D01*
Y117244D01*
Y117386D01*
Y117517D01*
X-25711Y117626D01*
Y117725D01*
Y117812D01*
Y117889D01*
X-25722Y117954D01*
Y117998D01*
Y118074D01*
X-25733Y118118D01*
Y118129D01*
X-25711D01*
X-25678Y117976D01*
X-25646Y117845D01*
X-25613Y117736D01*
X-25580Y117648D01*
X-25558Y117582D01*
X-25536Y117528D01*
X-25525Y117506D01*
Y117495D01*
X-23307Y112598D01*
X-23001D01*
X-20771Y117528D01*
X-20738Y117604D01*
X-20705Y117692D01*
X-20651Y117900D01*
X-20629Y117987D01*
X-20607Y118063D01*
X-20585Y118107D01*
Y118129D01*
X-20563D01*
X-20585Y117867D01*
X-20596Y117626D01*
X-20618Y117419D01*
Y117244D01*
X-20629Y117102D01*
Y116992D01*
Y116927D01*
Y116916D01*
Y116905D01*
Y112598D01*
X-19929D01*
Y118971D01*
D02*
G37*
G36*
X25802D02*
X25102D01*
Y112598D01*
X28381D01*
Y113232D01*
X25802D01*
Y118971D01*
D02*
G37*
G36*
X21659D02*
X19692D01*
Y112598D01*
X20391D01*
Y115320D01*
X21025D01*
X21168Y115309D01*
X21288Y115287D01*
X21397Y115265D01*
X21495Y115233D01*
X21572Y115189D01*
X21637Y115167D01*
X21670Y115145D01*
X21681Y115134D01*
X21791Y115058D01*
X21889Y114948D01*
X21998Y114817D01*
X22086Y114697D01*
X22173Y114577D01*
X22239Y114478D01*
X22282Y114413D01*
X22293Y114402D01*
Y114391D01*
X23365Y112598D01*
X24206D01*
X23015Y114511D01*
X22895Y114697D01*
X22796Y114839D01*
X22709Y114970D01*
X22643Y115069D01*
X22589Y115134D01*
X22545Y115189D01*
X22523Y115211D01*
X22512Y115222D01*
X22370Y115353D01*
X22228Y115451D01*
X22162Y115495D01*
X22107Y115517D01*
X22075Y115539D01*
X22064D01*
Y115560D01*
X22315Y115648D01*
X22534Y115746D01*
X22720Y115866D01*
X22884Y115998D01*
X23026Y116129D01*
X23135Y116282D01*
X23233Y116424D01*
X23310Y116566D01*
X23365Y116708D01*
X23408Y116839D01*
X23441Y116960D01*
X23463Y117069D01*
X23474Y117156D01*
X23485Y117222D01*
Y117265D01*
Y117277D01*
X23474Y117419D01*
X23463Y117561D01*
X23408Y117801D01*
X23321Y118009D01*
X23222Y118195D01*
X23124Y118326D01*
X23047Y118435D01*
X22982Y118490D01*
X22971Y118512D01*
X22960D01*
X22752Y118665D01*
X22523Y118774D01*
X22293Y118861D01*
X22075Y118916D01*
X21878Y118949D01*
X21791Y118960D01*
X21714D01*
X21659Y118971D01*
D02*
G37*
G36*
X18676D02*
X14303D01*
Y118326D01*
X16129D01*
Y112598D01*
X16839D01*
Y118326D01*
X18676D01*
Y118971D01*
D02*
G37*
G36*
X-3359D02*
X-4070D01*
X-6518Y112598D01*
X-5742D01*
X-5097Y114402D01*
X-2354D01*
X-1665Y112598D01*
X-889D01*
X-3359Y118971D01*
D02*
G37*
G36*
X-11109D02*
X-11808D01*
Y112598D01*
X-11109D01*
Y118971D01*
D02*
G37*
%LPD*%
G36*
X21659Y118304D02*
X21856Y118271D01*
X22020Y118217D01*
X22162Y118173D01*
X22261Y118118D01*
X22337Y118063D01*
X22392Y118031D01*
X22403Y118020D01*
X22512Y117900D01*
X22599Y117779D01*
X22654Y117648D01*
X22698Y117517D01*
X22720Y117397D01*
X22741Y117309D01*
Y117244D01*
Y117233D01*
Y117222D01*
X22730Y117025D01*
X22687Y116850D01*
X22632Y116686D01*
X22567Y116555D01*
X22490Y116457D01*
X22435Y116380D01*
X22392Y116337D01*
X22381Y116315D01*
X22239Y116205D01*
X22086Y116118D01*
X21922Y116063D01*
X21769Y116019D01*
X21637Y115998D01*
X21528Y115987D01*
X21485Y115976D01*
X20391D01*
Y118315D01*
X21441D01*
X21659Y118304D01*
D02*
G37*
G36*
X-3687Y118129D02*
X-3676Y118042D01*
X-3655Y117976D01*
X-3644Y117910D01*
X-3633Y117867D01*
X-3622Y117834D01*
X-3611Y117812D01*
Y117801D01*
X-2594Y115047D01*
X-4846D01*
X-3840Y117801D01*
X-3818Y117856D01*
X-3797Y117921D01*
X-3764Y118063D01*
X-3753Y118129D01*
X-3742Y118173D01*
X-3731Y118217D01*
Y118227D01*
X-3709D01*
X-3687Y118129D01*
D02*
G37*
D10*
X61432Y175081D02*
X62342Y175494D01*
X63211Y175989D01*
X64030Y176561D01*
X64795Y177206D01*
X65497Y177917D01*
X66131Y178690D01*
X66692Y179517D01*
X67175Y180392D01*
X67576Y181308D01*
X67892Y182256D01*
X68120Y183230D01*
X68258Y184220D01*
X68305Y185218D01*
X68261Y186217D01*
X68125Y187207D01*
X67900Y188181D01*
X67587Y189130D01*
X67189Y190047D01*
X66708Y190924D01*
X66150Y191753D01*
X65518Y192527D01*
X64818Y193241D01*
X64056Y193887D01*
X63238Y194462D01*
X62370Y194959D01*
X61462Y195375D01*
X52506Y194896D02*
X51591Y194482D01*
X50718Y193987D01*
X49895Y193413D01*
X49127Y192767D01*
X48422Y192052D01*
X47785Y191276D01*
X47222Y190445D01*
X46737Y189566D01*
X46336Y188646D01*
X46020Y187693D01*
X45793Y186715D01*
X45656Y185721D01*
X45612Y184718D01*
X45659Y183715D01*
X45799Y182721D01*
X46028Y181744D01*
X46347Y180792D01*
X46751Y179874D01*
X47238Y178996D01*
X47804Y178166D01*
X48443Y177392D01*
X49150Y176680D01*
X49920Y176035D01*
X50745Y175464D01*
X51619Y174971D01*
X52535Y174561D01*
X54904Y146442D02*
X55317Y145532D01*
X55812Y144663D01*
X56384Y143843D01*
X57029Y143079D01*
X57740Y142377D01*
X58513Y141743D01*
X59340Y141182D01*
X60215Y140699D01*
X61131Y140298D01*
X62079Y139982D01*
X63052Y139754D01*
X64042Y139616D01*
X65041Y139569D01*
X66039Y139613D01*
X67030Y139749D01*
X68004Y139974D01*
X68953Y140287D01*
X69870Y140685D01*
X70746Y141166D01*
X71575Y141724D01*
X72350Y142356D01*
X73063Y143056D01*
X73710Y143818D01*
X74284Y144636D01*
X74782Y145504D01*
X75198Y146412D01*
X74718Y155368D02*
X74305Y156282D01*
X73809Y157156D01*
X73236Y157979D01*
X72589Y158747D01*
X71875Y159452D01*
X71099Y160089D01*
X70268Y160652D01*
X69389Y161137D01*
X68469Y161538D01*
X67516Y161854D01*
X66538Y162081D01*
X65544Y162218D01*
X64541Y162262D01*
X63538Y162215D01*
X62544Y162075D01*
X61567Y161846D01*
X60615Y161527D01*
X59696Y161123D01*
X58819Y160636D01*
X57989Y160071D01*
X57215Y159431D01*
X56503Y158724D01*
X55858Y157955D01*
X55287Y157129D01*
X54794Y156255D01*
X54383Y155339D01*
X98836Y81216D02*
X98423Y82126D01*
X97928Y82994D01*
X97356Y83814D01*
X96712Y84578D01*
X96000Y85280D01*
X95227Y85914D01*
X94400Y86475D01*
X93525Y86958D01*
X92609Y87359D01*
X91661Y87675D01*
X90688Y87903D01*
X89698Y88041D01*
X88699Y88088D01*
X87701Y88044D01*
X86710Y87909D01*
X85736Y87684D01*
X84787Y87371D01*
X83870Y86972D01*
X82994Y86492D01*
X82165Y85933D01*
X81390Y85301D01*
X80677Y84601D01*
X80030Y83839D01*
X79456Y83021D01*
X78958Y82154D01*
X78542Y81245D01*
X79022Y72290D02*
X79435Y71375D01*
X79931Y70502D01*
X80504Y69678D01*
X81151Y68910D01*
X81865Y68205D01*
X82641Y67568D01*
X83472Y67005D01*
X84351Y66521D01*
X85271Y66119D01*
X86224Y65803D01*
X87202Y65576D01*
X88196Y65440D01*
X89199Y65395D01*
X90202Y65443D01*
X91196Y65582D01*
X92173Y65812D01*
X93125Y66130D01*
X94044Y66535D01*
X94922Y67022D01*
X95751Y67587D01*
X96525Y68226D01*
X97237Y68933D01*
X97882Y69703D01*
X98453Y70529D01*
X98946Y71403D01*
X99357Y72319D01*
X57892Y80724D02*
X57478Y81634D01*
X56983Y82502D01*
X56411Y83322D01*
X55767Y84086D01*
X55055Y84788D01*
X54283Y85422D01*
X53455Y85983D01*
X52580Y86466D01*
X51665Y86867D01*
X50716Y87183D01*
X49743Y87411D01*
X48753Y87549D01*
X47754Y87596D01*
X46756Y87552D01*
X45765Y87417D01*
X44791Y87191D01*
X43842Y86878D01*
X42926Y86480D01*
X42049Y86000D01*
X41220Y85441D01*
X40446Y84809D01*
X39732Y84109D01*
X39085Y83347D01*
X38511Y82529D01*
X38013Y81662D01*
X37597Y80753D01*
X38077Y71798D02*
X38490Y70883D01*
X38986Y70010D01*
X39559Y69186D01*
X40206Y68418D01*
X40920Y67713D01*
X41696Y67076D01*
X42527Y66513D01*
X43406Y66029D01*
X44326Y65627D01*
X45279Y65311D01*
X46257Y65084D01*
X47251Y64948D01*
X48254Y64903D01*
X49257Y64951D01*
X50251Y65090D01*
X51228Y65320D01*
X52180Y65638D01*
X53099Y66043D01*
X53977Y66530D01*
X54806Y67095D01*
X55580Y67734D01*
X56292Y68441D01*
X56937Y69211D01*
X57508Y70036D01*
X58001Y70911D01*
X58412Y71827D01*
X61488Y172441D02*
X69488D01*
X61488Y197441D02*
X62988D01*
X50988D02*
X52488D01*
X44488Y172441D02*
X52488D01*
X69488D02*
Y190941D01*
X62988Y197441D02*
X69488Y190941D01*
X44488D02*
X50988Y197441D01*
X44488Y172441D02*
Y190941D01*
X52264Y138386D02*
Y146386D01*
X77264Y144886D02*
Y146386D01*
Y155386D02*
Y156886D01*
X52264Y155386D02*
Y163386D01*
Y138386D02*
X70764D01*
X77264Y144886D01*
X70764Y163386D02*
X77264Y156886D01*
X52264Y163386D02*
X70764D01*
X101476Y81272D02*
Y89272D01*
X76476Y81272D02*
Y82772D01*
Y70772D02*
Y72272D01*
X101476Y64272D02*
Y72272D01*
X82976Y89272D02*
X101476D01*
X76476Y82772D02*
X82976Y89272D01*
X76476Y70772D02*
X82976Y64272D01*
X101476D01*
X60532Y80779D02*
Y88779D01*
X35531Y80779D02*
Y82279D01*
Y70280D02*
Y71780D01*
X60532Y63779D02*
Y71780D01*
X42031Y88779D02*
X60532D01*
X35531Y82279D02*
X42031Y88779D01*
X35531Y70280D02*
X42031Y63779D01*
X60532D01*
D11*
X95079Y37874D02*
X94340Y38300D01*
Y37448D01*
X95079Y37874D01*
X30531Y63079D02*
X29793Y63505D01*
Y62652D01*
X30531Y63079D01*
X75000Y174311D02*
X74262Y174737D01*
Y173885D01*
X75000Y174311D01*
D12*
X107847Y90030D02*
Y149930D01*
X84047D02*
X107847D01*
X84047Y90030D02*
Y149930D01*
Y90030D02*
X107847D01*
D13*
X88090Y39075D02*
Y58760D01*
X81791Y39075D02*
Y58760D01*
Y39075D02*
X88090D01*
X81791Y58760D02*
X88090D01*
X54626Y35150D02*
X61126Y41650D01*
X48126D02*
X54626Y35150D01*
X48126Y41650D02*
X61126D01*
X-61996Y10039D02*
X32539D01*
X-61996D02*
Y51968D01*
X32539D01*
Y33665D02*
Y51968D01*
X30539Y33665D02*
X32539D01*
X30539Y28343D02*
Y33665D01*
Y28343D02*
X32539D01*
Y10039D02*
Y28343D01*
X26299Y91358D02*
Y101358D01*
X-35197Y91358D02*
X26299D01*
X-35197D02*
Y101358D01*
X26299D01*
X100886Y180807D02*
Y191043D01*
X74508Y180807D02*
Y191043D01*
X100886Y191043D01*
X74508Y180807D02*
X100886D01*
X32402Y142500D02*
Y203996D01*
Y142500D02*
X42402D01*
Y203996D01*
X32402D02*
X42402D01*
D14*
X68622Y1083D02*
X103622D01*
X68622D02*
Y24705D01*
X103622Y1083D02*
Y18894D01*
X97811Y24705D02*
X103622Y18894D01*
X68622Y24705D02*
X97811D01*
X97868Y196850D02*
Y194226D01*
X98393Y193701D01*
X99443D01*
X99967Y194226D01*
Y196850D01*
X103116Y193701D02*
X101017D01*
X103116Y195800D01*
Y196325D01*
X102591Y196850D01*
X101542D01*
X101017Y196325D01*
X-49245Y130807D02*
Y128183D01*
X-48720Y127658D01*
X-47670D01*
X-47146Y128183D01*
Y130807D01*
X-46096Y127658D02*
X-45047D01*
X-45571D01*
Y130807D01*
X-46096Y130282D01*
X-61679Y161418D02*
Y164566D01*
X-60104D01*
X-59580Y164042D01*
Y162992D01*
X-60104Y162467D01*
X-61679D01*
X-60629D02*
X-59580Y161418D01*
X-58530D02*
X-57481D01*
X-58005D01*
Y164566D01*
X-58530Y164042D01*
X-55906Y161418D02*
X-54857D01*
X-55382D01*
Y164566D01*
X-55906Y164042D01*
X29168Y129922D02*
Y133070D01*
X30742D01*
X31267Y132546D01*
Y131496D01*
X30742Y130971D01*
X29168D01*
X30217D02*
X31267Y129922D01*
X32316Y132546D02*
X32841Y133070D01*
X33890D01*
X34415Y132546D01*
Y132021D01*
X33890Y131496D01*
X34415Y130971D01*
Y130447D01*
X33890Y129922D01*
X32841D01*
X32316Y130447D01*
Y130971D01*
X32841Y131496D01*
X32316Y132021D01*
Y132546D01*
X32841Y131496D02*
X33890D01*
X24443Y163583D02*
Y166732D01*
X26017D01*
X26542Y166207D01*
Y165157D01*
X26017Y164633D01*
X24443D01*
X25493D02*
X26542Y163583D01*
X29691Y166732D02*
X27592D01*
Y165157D01*
X28641Y165682D01*
X29166D01*
X29691Y165157D01*
Y164108D01*
X29166Y163583D01*
X28117D01*
X27592Y164108D01*
X-61580Y167028D02*
Y170177D01*
X-60006D01*
X-59481Y169652D01*
Y168602D01*
X-60006Y168078D01*
X-61580D01*
X-60531D02*
X-59481Y167028D01*
X-56333D02*
X-58432D01*
X-56333Y169127D01*
Y169652D01*
X-56858Y170177D01*
X-57907D01*
X-58432Y169652D01*
X-61745Y177461D02*
Y180610D01*
X-60170D01*
X-59646Y180085D01*
Y179035D01*
X-60170Y178511D01*
X-61745D01*
X-60695D02*
X-59646Y177461D01*
X-58596D02*
X-57547D01*
X-58071D01*
Y180610D01*
X-58596Y180085D01*
X30086Y97440D02*
X29036D01*
X29561D01*
Y94817D01*
X29036Y94292D01*
X28511D01*
X27986Y94817D01*
X31135Y96916D02*
X31660Y97440D01*
X32709D01*
X33234Y96916D01*
Y96391D01*
X32709Y95866D01*
X32184D01*
X32709D01*
X33234Y95341D01*
Y94817D01*
X32709Y94292D01*
X31660D01*
X31135Y94817D01*
X40846Y140255D02*
X39797D01*
X40322D01*
Y137632D01*
X39797Y137107D01*
X39272D01*
X38747Y137632D01*
X41896Y137107D02*
X42946D01*
X42421D01*
Y140255D01*
X41896Y139731D01*
X-39501Y107546D02*
X-40026Y108070D01*
X-41075D01*
X-41600Y107546D01*
Y105447D01*
X-41075Y104922D01*
X-40026D01*
X-39501Y105447D01*
X-38452Y108070D02*
X-36353D01*
Y107546D01*
X-38452Y105447D01*
Y104922D01*
X68078Y200754D02*
X67553Y201279D01*
X66503D01*
X65978Y200754D01*
Y198655D01*
X66503Y198130D01*
X67553D01*
X68078Y198655D01*
X71226Y201279D02*
X70177Y200754D01*
X69127Y199705D01*
Y198655D01*
X69652Y198130D01*
X70701D01*
X71226Y198655D01*
Y199180D01*
X70701Y199705D01*
X69127D01*
X54692Y135991D02*
X54167Y136515D01*
X53118D01*
X52593Y135991D01*
Y133891D01*
X53118Y133367D01*
X54167D01*
X54692Y133891D01*
X57840Y136515D02*
X55741D01*
Y134941D01*
X56791Y135466D01*
X57316D01*
X57840Y134941D01*
Y133891D01*
X57316Y133367D01*
X56266D01*
X55741Y133891D01*
X82349Y164337D02*
X81824Y164862D01*
X80775D01*
X80250Y164337D01*
Y162238D01*
X80775Y161713D01*
X81824D01*
X82349Y162238D01*
X84973Y161713D02*
Y164862D01*
X83399Y163287D01*
X85498D01*
X-50328Y196785D02*
X-49804Y197309D01*
Y198359D01*
X-50328Y198884D01*
X-52428D01*
X-52952Y198359D01*
Y197309D01*
X-52428Y196785D01*
X-50328Y195735D02*
X-49804Y195210D01*
Y194161D01*
X-50328Y193636D01*
X-50853D01*
X-51378Y194161D01*
Y194685D01*
Y194161D01*
X-51903Y193636D01*
X-52428D01*
X-52952Y194161D01*
Y195210D01*
X-52428Y195735D01*
X-54560Y121522D02*
X-55085Y122047D01*
X-56134D01*
X-56659Y121522D01*
Y119423D01*
X-56134Y118898D01*
X-55085D01*
X-54560Y119423D01*
X-51412Y118898D02*
X-53511D01*
X-51412Y120997D01*
Y121522D01*
X-51936Y122047D01*
X-52986D01*
X-53511Y121522D01*
X-54134Y114337D02*
X-54659Y114862D01*
X-55708D01*
X-56233Y114337D01*
Y112238D01*
X-55708Y111713D01*
X-54659D01*
X-54134Y112238D01*
X-53084Y111713D02*
X-52035D01*
X-52560D01*
Y114862D01*
X-53084Y114337D01*
D15*
X40846Y19783D02*
Y61516D01*
X68405Y19783D02*
Y61516D01*
X40846Y19783D02*
X68405D01*
X40846Y61516D02*
X68405D01*
D16*
X-58529Y38977D02*
Y42125D01*
X-56955D01*
X-56430Y41601D01*
Y40551D01*
X-56955Y40026D01*
X-58529D01*
X-57480D02*
X-56430Y38977D01*
X-55381Y41601D02*
X-54856Y42125D01*
X-53806D01*
X-53282Y41601D01*
Y41076D01*
X-53806Y40551D01*
X-54331D01*
X-53806D01*
X-53282Y40026D01*
Y39502D01*
X-53806Y38977D01*
X-54856D01*
X-55381Y39502D01*
X41110Y18602D02*
Y15453D01*
X42684D01*
X43209Y15978D01*
Y18077D01*
X42684Y18602D01*
X41110D01*
X44258Y15453D02*
X45308D01*
X44783D01*
Y18602D01*
X44258Y18077D01*
X65289Y87073D02*
X64764Y87598D01*
X63715D01*
X63190Y87073D01*
Y84974D01*
X63715Y84449D01*
X64764D01*
X65289Y84974D01*
X66339Y84449D02*
X67388D01*
X66864D01*
Y87598D01*
X66339Y87073D01*
X68963D02*
X69487Y87598D01*
X70537D01*
X71062Y87073D01*
Y84974D01*
X70537Y84449D01*
X69487D01*
X68963Y84974D01*
Y87073D01*
X72900Y33530D02*
X72376Y34055D01*
X71326D01*
X70801Y33530D01*
Y31431D01*
X71326Y30906D01*
X72376D01*
X72900Y31431D01*
X73950D02*
X74475Y30906D01*
X75524D01*
X76049Y31431D01*
Y33530D01*
X75524Y34055D01*
X74475D01*
X73950Y33530D01*
Y33005D01*
X74475Y32480D01*
X76049D01*
X62173Y12598D02*
Y9449D01*
X64272D01*
X65321D02*
X66371D01*
X65846D01*
Y12598D01*
X65321Y12073D01*
X73786Y65617D02*
X73261Y66141D01*
X72212D01*
X71687Y65617D01*
Y63517D01*
X72212Y62993D01*
X73261D01*
X73786Y63517D01*
X74836Y65617D02*
X75361Y66141D01*
X76410D01*
X76935Y65617D01*
Y65092D01*
X76410Y64567D01*
X76935Y64042D01*
Y63517D01*
X76410Y62993D01*
X75361D01*
X74836Y63517D01*
Y64042D01*
X75361Y64567D01*
X74836Y65092D01*
Y65617D01*
X75361Y64567D02*
X76410D01*
X21195Y65846D02*
Y63222D01*
X21720Y62697D01*
X22769D01*
X23294Y63222D01*
Y65846D01*
X25918Y62697D02*
Y65846D01*
X24344Y64272D01*
X26443D01*
X93931Y35039D02*
Y32415D01*
X94456Y31890D01*
X95506D01*
X96030Y32415D01*
Y35039D01*
X97080Y34514D02*
X97605Y35039D01*
X98654D01*
X99179Y34514D01*
Y33989D01*
X98654Y33465D01*
X98129D01*
X98654D01*
X99179Y32940D01*
Y32415D01*
X98654Y31890D01*
X97605D01*
X97080Y32415D01*
X79593Y96259D02*
X78544D01*
X79069D01*
Y93635D01*
X78544Y93111D01*
X78019D01*
X77494Y93635D01*
X82742Y93111D02*
X80643D01*
X82742Y95210D01*
Y95735D01*
X82217Y96259D01*
X81168D01*
X80643Y95735D01*
M02*
