M48
;Layer_Color=9474304
;FILE_FORMAT=2:4
INCH,TZ
;TYPE=PLATED
T1F00S00C0.0118
T2F00S00C0.0335
T3F00S00C0.0390
T4F00S00C0.0402
T5F00S00C0.1575
T6F00S00C0.1772
%
T01
X-5512Y787
X-4724
Y2362
X-5512
X-5118Y3150
X-4331
X-3543
X-3150Y2362
X-2362
X-1969Y1575
X-2362Y787
X-1575
X394Y1575
X1575Y2362
X1969Y3150
X1575Y3937
X1969Y4724
X1181
X394
X-787Y3937
X-1575
X-2362
X-1969Y4724
X-1181Y3150
X-3937Y3937
X-4724
X-5512
X-4902Y4596
X-3937Y2362
X3150
Y3937
X4724
X4331Y3150
X3937Y787
X2362
X1575
X5512Y3937
X6299
X8661
X8268Y4724
X8661Y2362
Y5512
X9055Y6299
X8268
X8661Y7087
X7874
X7087
X5915Y6929
X5906Y8313
X5512Y8661
X6299
X7087
X7480Y9449
Y11024
X7087Y11811
X7480Y12598
X8268
X9055
X9449Y13386
X10236
Y14961
Y16535
Y18110
X9843Y18898
X10236Y19685
X7874
X7087
X6299
X6693Y18898
X7480
X8268
X7087Y18110
X7244Y17530
X6693Y17323
X7087Y16535
X7874
X8268Y15748
X9006Y15758
X7480Y15748
X6693
X5906
X5719Y16329
X6299Y16535
Y18110
Y14961
Y13386
X7087
X7874
X8268Y14173
X7480
X6693Y12598
X5906
X8661Y10236
X9055Y9449
X9843
X9449Y8661
X8661
X9055Y7874
X9449Y7087
X10148Y6909
X9843Y6299
X10079Y8396
X6607Y5408
X4724Y7087
Y8661
X3150
Y10236
X1575
X787
X-787
X-1575
Y11811
X-2362
X-3150
X-3366Y11388
X-4134Y12648
X-5512Y13386
X-4961Y14311
X-4724Y14961
X-5512
X-5374Y15561
X-5512Y16535
X-5108Y17898
X-3150Y18110
X-2362
X-1575
X-1181Y18898
X-1969
X-2756
Y17323
X-1969
X-1181
X-394
X394
X787Y18110
X1181Y18898
X3150Y19685
X4724
X5118Y18898
X4331
X5118Y17323
Y15748
X5364Y14331
X4331Y14173
X4724Y13386
X3150
X2559Y13150
X2756Y12598
X1969
X2362Y11811
X1575
X787
X-787
X-1181Y14173
X-1969
X-2756
Y15748
X-1969
X-1181
X-394
X-787Y16535
X-1575
X-2362
X-3366Y16695
X0Y16535
Y14961
X787
X3150
X1575Y8661
X787
X0
X-787
X-1575
X-2362
X-1969Y7874
X-2756
X-2362Y7087
X-1575
X-787
X0
X394Y6299
X-394
X-1181
X-1969
X-1575Y5512
X-1181Y7874
X-394
X394
X1575Y7087
Y5512
X-5512
X-5118Y6299
X-5512Y7087
X-5118Y7874
X-4331
X-3937Y7087
Y8661
X-4331Y9449
X-4724Y10236
X-5512
Y8661
Y11811
T02
X-5996Y384
X-4996
X-3996
X-2996
X-1996
X-996
X4
X1004
X2004
X3004
Y5817
X2004
X1004
X4
X-996
X-1996
X-2996
X-3996
X-4996
X-5996
T03
X9813Y10020
Y11004
Y11988
Y12972
Y13957
T04
X-2945Y9636
X-1945
X-945
X55
X1055
X2055
X3740Y14825
Y15825
Y16825
Y17825
Y18825
Y19825
T05
X-187Y2746
Y18494
T06
X5522Y10620
M30
