G04*
G04 #@! TF.GenerationSoftware,Altium Limited,Altium Designer,23.6.0 (18)*
G04*
G04 Layer_Color=16711935*
%FSLAX25Y25*%
%MOIN*%
G70*
G04*
G04 #@! TF.SameCoordinates,7954F5F0-22A1-4131-B6F7-0AC426F17986*
G04*
G04*
G04 #@! TF.FilePolarity,Negative*
G04*
G01*
G75*
%ADD32C,0.05900*%
%ADD33C,0.05315*%
%ADD34R,0.05315X0.05315*%
%ADD35C,0.32296*%
%ADD36C,0.00800*%
%ADD37R,0.06902X0.06902*%
%ADD38C,0.06902*%
%ADD39R,0.06902X0.06902*%
%ADD40C,0.03359*%
D32*
X98130Y100197D02*
D03*
Y110039D02*
D03*
Y119882D02*
D03*
Y129724D02*
D03*
Y139567D02*
D03*
D33*
X30039Y3839D02*
D03*
X20039D02*
D03*
X10039D02*
D03*
X39D02*
D03*
X-9961D02*
D03*
X-19961D02*
D03*
X-29961D02*
D03*
X-39961D02*
D03*
X-49961D02*
D03*
X-59961D02*
D03*
Y58169D02*
D03*
X-49961D02*
D03*
X-39961D02*
D03*
X-29961D02*
D03*
X-19961D02*
D03*
X-9961D02*
D03*
X39D02*
D03*
X10039D02*
D03*
X20039D02*
D03*
D34*
X30039D02*
D03*
D35*
X55216Y106201D02*
D03*
D36*
X-1870Y27461D02*
D03*
Y184941D02*
D03*
D37*
X-29449Y96358D02*
D03*
D38*
X-19449D02*
D03*
X-9449D02*
D03*
X551D02*
D03*
X10551D02*
D03*
X20551D02*
D03*
X37402Y198248D02*
D03*
Y188248D02*
D03*
Y178248D02*
D03*
Y168248D02*
D03*
Y158248D02*
D03*
D39*
Y148248D02*
D03*
D40*
X-49606Y143110D02*
D03*
X-33661Y166949D02*
D03*
X-53740Y155610D02*
D03*
M02*
