G04*
G04 #@! TF.GenerationSoftware,Altium Limited,Altium Designer,23.6.0 (18)*
G04*
G04 Layer_Physical_Order=2*
G04 Layer_Color=16711680*
%FSLAX25Y25*%
%MOIN*%
G70*
G04*
G04 #@! TF.SameCoordinates,7954F5F0-22A1-4131-B6F7-0AC426F17986*
G04*
G04*
G04 #@! TF.FilePolarity,Positive*
G04*
G01*
G75*
%ADD32C,0.05900*%
%ADD33C,0.05315*%
%ADD34R,0.05315X0.05315*%
%ADD57C,0.01968*%
%ADD58C,0.31496*%
%ADD59R,0.06102X0.06102*%
%ADD60C,0.06102*%
%ADD61R,0.06102X0.06102*%
%ADD62C,0.02559*%
%ADD63C,0.01181*%
G36*
X-28850Y61788D02*
X-29089Y61384D01*
X-29125Y61355D01*
X-29961Y61465D01*
X-30814Y61353D01*
X-31609Y61024D01*
X-32291Y60500D01*
X-32815Y59817D01*
X-33144Y59022D01*
X-33257Y58169D01*
X-33144Y57316D01*
X-32815Y56521D01*
X-32291Y55839D01*
X-31609Y55315D01*
X-30814Y54986D01*
X-29961Y54873D01*
X-29108Y54986D01*
X-28313Y55315D01*
X-27630Y55839D01*
X-27106Y56521D01*
X-27087Y56568D01*
X-26884Y56612D01*
X-26540Y56582D01*
X-26248Y56144D01*
X-14711Y44607D01*
X-14902Y44145D01*
X-25114D01*
X-34083Y53114D01*
Y66367D01*
X-33621Y66558D01*
X-28850Y61788D01*
D02*
G37*
G36*
X107346Y164839D02*
X106649Y164770D01*
X105198Y164330D01*
X103861Y163616D01*
X102689Y162654D01*
X101727Y161482D01*
X101013Y160145D01*
X100573Y158694D01*
X100424Y157185D01*
X100573Y155676D01*
X101013Y154225D01*
X101727Y152888D01*
X102689Y151716D01*
X103861Y150754D01*
X105198Y150040D01*
X106649Y149600D01*
X107346Y149531D01*
Y36887D01*
X106649Y36818D01*
X105198Y36378D01*
X103861Y35663D01*
X102689Y34701D01*
X101727Y33529D01*
X101013Y32192D01*
X100573Y30741D01*
X100424Y29232D01*
X100573Y27723D01*
X101013Y26273D01*
X101727Y24936D01*
X102689Y23764D01*
X103861Y22802D01*
X105198Y22087D01*
X106649Y21647D01*
X107346Y21578D01*
Y528D01*
X31884D01*
X31753Y831D01*
X31744Y1028D01*
X32370Y1508D01*
X32894Y2191D01*
X33223Y2985D01*
X33335Y3839D01*
X33223Y4692D01*
X32894Y5486D01*
X32370Y6169D01*
X31687Y6693D01*
X30892Y7022D01*
X30039Y7135D01*
X29186Y7022D01*
X28391Y6693D01*
X27709Y6169D01*
X27185Y5486D01*
X26856Y4692D01*
X26744Y3839D01*
X26856Y2985D01*
X27185Y2191D01*
X27709Y1508D01*
X28335Y1028D01*
X28325Y831D01*
X28195Y528D01*
X21884D01*
X21753Y831D01*
X21744Y1028D01*
X22370Y1508D01*
X22894Y2191D01*
X23223Y2985D01*
X23335Y3839D01*
X23223Y4692D01*
X22894Y5486D01*
X22370Y6169D01*
X21687Y6693D01*
X21665Y6702D01*
Y25832D01*
X21541Y26454D01*
X21189Y26981D01*
X1922Y46248D01*
X1395Y46600D01*
X773Y46724D01*
X-12230D01*
X-19884Y54379D01*
X-19705Y54907D01*
X-19108Y54986D01*
X-18313Y55315D01*
X-17630Y55839D01*
X-17106Y56521D01*
X-16777Y57316D01*
X-16665Y58169D01*
X-16777Y59022D01*
X-17106Y59817D01*
X-17630Y60500D01*
X-18313Y61024D01*
X-19108Y61353D01*
X-19961Y61465D01*
X-20814Y61353D01*
X-21609Y61024D01*
X-22291Y60500D01*
X-22815Y59817D01*
X-22973Y59437D01*
X-23473Y59536D01*
Y60335D01*
X-23596Y60957D01*
X-23949Y61484D01*
X-31504Y69039D01*
Y89657D01*
X-31628Y90279D01*
X-31980Y90807D01*
X-36130Y94956D01*
Y121019D01*
X-32512Y124638D01*
X-32159Y125165D01*
X-32036Y125787D01*
Y165980D01*
X-31881Y166211D01*
X-31735Y166949D01*
X-31881Y167686D01*
X-32299Y168311D01*
X-32924Y168729D01*
X-33661Y168876D01*
X-34399Y168729D01*
X-35024Y168311D01*
X-35441Y167686D01*
X-35588Y166949D01*
X-35441Y166211D01*
X-35287Y165980D01*
Y126461D01*
X-38906Y122843D01*
X-39258Y122315D01*
X-39382Y121693D01*
Y94283D01*
X-39258Y93661D01*
X-38906Y93133D01*
X-34756Y88984D01*
Y80031D01*
X-35218Y79839D01*
X-49851Y94473D01*
Y140764D01*
X-49387Y141227D01*
X-48869Y141330D01*
X-48244Y141748D01*
X-47826Y142373D01*
X-47679Y143110D01*
X-47826Y143848D01*
X-48244Y144473D01*
X-48869Y144890D01*
X-49606Y145037D01*
X-50344Y144890D01*
X-50969Y144473D01*
X-51386Y143848D01*
X-51392Y143821D01*
X-52626Y142587D01*
X-52978Y142059D01*
X-53102Y141437D01*
Y93799D01*
X-52978Y93177D01*
X-52626Y92650D01*
X-37334Y77358D01*
Y60903D01*
X-37834Y60657D01*
X-38313Y61024D01*
X-39108Y61353D01*
X-39961Y61465D01*
X-40814Y61353D01*
X-41609Y61024D01*
X-42291Y60500D01*
X-42658Y60022D01*
X-43158Y60192D01*
Y67618D01*
X-43281Y68240D01*
X-43634Y68768D01*
X-56544Y81677D01*
Y150508D01*
X-53275Y153776D01*
X-53003Y153830D01*
X-52378Y154248D01*
X-51960Y154873D01*
X-51813Y155610D01*
X-51960Y156348D01*
X-52378Y156973D01*
X-53003Y157390D01*
X-53740Y157537D01*
X-54478Y157390D01*
X-55103Y156973D01*
X-55520Y156348D01*
X-55575Y156075D01*
X-59319Y152331D01*
X-59671Y151803D01*
X-59795Y151181D01*
Y81004D01*
X-59671Y80382D01*
X-59319Y79854D01*
X-46409Y66945D01*
Y59441D01*
X-46909Y59341D01*
X-47106Y59817D01*
X-47630Y60500D01*
X-48313Y61024D01*
X-49108Y61353D01*
X-49961Y61465D01*
X-50814Y61353D01*
X-51609Y61024D01*
X-52291Y60500D01*
X-52815Y59817D01*
X-53144Y59022D01*
X-53257Y58169D01*
X-53144Y57316D01*
X-52815Y56521D01*
X-52291Y55839D01*
X-51609Y55315D01*
X-50814Y54986D01*
X-49961Y54873D01*
X-49108Y54986D01*
X-48313Y55315D01*
X-47630Y55839D01*
X-47106Y56521D01*
X-46909Y56997D01*
X-46409Y56898D01*
Y52854D01*
X-46285Y52232D01*
X-45933Y51705D01*
X-1645Y7417D01*
Y6665D01*
X-2291Y6169D01*
X-2815Y5486D01*
X-3144Y4692D01*
X-3257Y3839D01*
X-3144Y2985D01*
X-2815Y2191D01*
X-2291Y1508D01*
X-1665Y1028D01*
X-1675Y831D01*
X-1805Y528D01*
X-8116D01*
X-8247Y831D01*
X-8256Y1028D01*
X-7630Y1508D01*
X-7106Y2191D01*
X-6777Y2985D01*
X-6665Y3839D01*
X-6777Y4692D01*
X-7106Y5486D01*
X-7630Y6169D01*
X-8313Y6693D01*
X-9108Y7022D01*
X-9961Y7135D01*
X-10814Y7022D01*
X-11609Y6693D01*
X-12291Y6169D01*
X-12815Y5486D01*
X-13144Y4692D01*
X-13257Y3839D01*
X-13144Y2985D01*
X-12815Y2191D01*
X-12291Y1508D01*
X-11665Y1028D01*
X-11675Y831D01*
X-11805Y528D01*
X-18116D01*
X-18247Y831D01*
X-18256Y1028D01*
X-17630Y1508D01*
X-17106Y2191D01*
X-16777Y2985D01*
X-16665Y3839D01*
X-16777Y4692D01*
X-17106Y5486D01*
X-17630Y6169D01*
X-18313Y6693D01*
X-19108Y7022D01*
X-19961Y7135D01*
X-20814Y7022D01*
X-21609Y6693D01*
X-22291Y6169D01*
X-22815Y5486D01*
X-23144Y4692D01*
X-23257Y3839D01*
X-23144Y2985D01*
X-22815Y2191D01*
X-22291Y1508D01*
X-21665Y1028D01*
X-21675Y831D01*
X-21805Y528D01*
X-28116D01*
X-28247Y831D01*
X-28256Y1028D01*
X-27630Y1508D01*
X-27106Y2191D01*
X-26777Y2985D01*
X-26665Y3839D01*
X-26777Y4692D01*
X-27106Y5486D01*
X-27630Y6169D01*
X-28313Y6693D01*
X-29108Y7022D01*
X-29961Y7135D01*
X-30814Y7022D01*
X-31609Y6693D01*
X-32291Y6169D01*
X-32815Y5486D01*
X-33144Y4692D01*
X-33257Y3839D01*
X-33144Y2985D01*
X-32815Y2191D01*
X-32291Y1508D01*
X-31665Y1028D01*
X-31675Y831D01*
X-31805Y528D01*
X-38116D01*
X-38247Y831D01*
X-38256Y1028D01*
X-37630Y1508D01*
X-37106Y2191D01*
X-36777Y2985D01*
X-36665Y3839D01*
X-36777Y4692D01*
X-37106Y5486D01*
X-37630Y6169D01*
X-38313Y6693D01*
X-39108Y7022D01*
X-39961Y7135D01*
X-40814Y7022D01*
X-41609Y6693D01*
X-42291Y6169D01*
X-42815Y5486D01*
X-43144Y4692D01*
X-43257Y3839D01*
X-43144Y2985D01*
X-42815Y2191D01*
X-42291Y1508D01*
X-41665Y1028D01*
X-41675Y831D01*
X-41805Y528D01*
X-48116D01*
X-48247Y831D01*
X-48256Y1028D01*
X-47630Y1508D01*
X-47106Y2191D01*
X-46777Y2985D01*
X-46665Y3839D01*
X-46777Y4692D01*
X-47106Y5486D01*
X-47630Y6169D01*
X-48313Y6693D01*
X-49108Y7022D01*
X-49961Y7135D01*
X-50814Y7022D01*
X-51609Y6693D01*
X-52291Y6169D01*
X-52815Y5486D01*
X-53144Y4692D01*
X-53257Y3839D01*
X-53144Y2985D01*
X-52815Y2191D01*
X-52291Y1508D01*
X-51665Y1028D01*
X-51675Y831D01*
X-51805Y528D01*
X-57446D01*
X-57616Y1028D01*
X-57352Y1230D01*
X-56766Y1994D01*
X-56397Y2884D01*
X-56337Y3339D01*
X-59961D01*
X-63584D01*
X-63524Y2884D01*
X-63155Y1994D01*
X-62569Y1230D01*
X-62305Y1028D01*
X-62475Y528D01*
X-64236D01*
Y194783D01*
X20965D01*
X29787Y203606D01*
X107346D01*
Y164839D01*
D02*
G37*
G36*
X18414Y25159D02*
Y6702D01*
X18391Y6693D01*
X17709Y6169D01*
X17185Y5486D01*
X16856Y4692D01*
X16744Y3839D01*
X16856Y2985D01*
X17185Y2191D01*
X17709Y1508D01*
X18335Y1028D01*
X18325Y831D01*
X18195Y528D01*
X11884D01*
X11753Y831D01*
X11744Y1028D01*
X12370Y1508D01*
X12894Y2191D01*
X13223Y2985D01*
X13335Y3839D01*
X13223Y4692D01*
X12894Y5486D01*
X12370Y6169D01*
X11687Y6693D01*
X11665Y6702D01*
Y31254D01*
X12127Y31445D01*
X18414Y25159D01*
D02*
G37*
G36*
X-42291Y55839D02*
X-41609Y55315D01*
X-40814Y54986D01*
X-39961Y54873D01*
X-39108Y54986D01*
X-38313Y55315D01*
X-37834Y55682D01*
X-37334Y55435D01*
Y52441D01*
X-37211Y51819D01*
X-36858Y51291D01*
X-26937Y41370D01*
X-26410Y41018D01*
X-25787Y40894D01*
X-969D01*
X8414Y31512D01*
Y6702D01*
X8391Y6693D01*
X7709Y6169D01*
X7185Y5486D01*
X6856Y4692D01*
X6743Y3839D01*
X6856Y2985D01*
X7185Y2191D01*
X7709Y1508D01*
X8335Y1028D01*
X8325Y831D01*
X8195Y528D01*
X1884D01*
X1753Y831D01*
X1744Y1028D01*
X2370Y1508D01*
X2894Y2191D01*
X3223Y2985D01*
X3335Y3839D01*
X3223Y4692D01*
X2894Y5486D01*
X2370Y6169D01*
X1687Y6693D01*
X1606Y6727D01*
Y8091D01*
X1482Y8713D01*
X1130Y9240D01*
X-43158Y53528D01*
Y56147D01*
X-42658Y56316D01*
X-42291Y55839D01*
D02*
G37*
%LPC*%
G36*
X37902Y202268D02*
Y198748D01*
X41422D01*
X41348Y199306D01*
X40940Y200291D01*
X40291Y201137D01*
X39445Y201787D01*
X38459Y202195D01*
X37902Y202268D01*
D02*
G37*
G36*
X36902Y202268D02*
X36344Y202195D01*
X35359Y201787D01*
X34512Y201137D01*
X33863Y200291D01*
X33455Y199306D01*
X33381Y198748D01*
X36902D01*
Y202268D01*
D02*
G37*
G36*
X41422Y197748D02*
X37902D01*
Y194228D01*
X38459Y194301D01*
X39445Y194709D01*
X40291Y195359D01*
X40940Y196205D01*
X41348Y197190D01*
X41422Y197748D01*
D02*
G37*
G36*
X36902D02*
X33381D01*
X33455Y197190D01*
X33863Y196205D01*
X34512Y195359D01*
X35359Y194709D01*
X36344Y194301D01*
X36902Y194228D01*
Y197748D01*
D02*
G37*
G36*
X37402Y191941D02*
X36446Y191815D01*
X35555Y191446D01*
X34790Y190859D01*
X34203Y190094D01*
X33834Y189204D01*
X33709Y188248D01*
X33834Y187292D01*
X34203Y186401D01*
X34790Y185637D01*
X35555Y185050D01*
X36446Y184681D01*
X37402Y184555D01*
X38357Y184681D01*
X39248Y185050D01*
X40013Y185637D01*
X40600Y186401D01*
X40969Y187292D01*
X41095Y188248D01*
X40969Y189204D01*
X40600Y190094D01*
X40013Y190859D01*
X39248Y191446D01*
X38357Y191815D01*
X37402Y191941D01*
D02*
G37*
G36*
X37902Y182268D02*
Y178748D01*
X41422D01*
X41348Y179306D01*
X40940Y180291D01*
X40291Y181137D01*
X39445Y181787D01*
X38459Y182195D01*
X37902Y182268D01*
D02*
G37*
G36*
X36902Y182268D02*
X36344Y182195D01*
X35359Y181787D01*
X34512Y181137D01*
X33863Y180291D01*
X33455Y179306D01*
X33381Y178748D01*
X36902D01*
Y182268D01*
D02*
G37*
G36*
X-1870Y193466D02*
X-3533Y193302D01*
X-5133Y192817D01*
X-6606Y192030D01*
X-7898Y190969D01*
X-8959Y189677D01*
X-9746Y188203D01*
X-10232Y186604D01*
X-10395Y184941D01*
X-10232Y183278D01*
X-9746Y181678D01*
X-8959Y180204D01*
X-7898Y178913D01*
X-6606Y177852D01*
X-5133Y177065D01*
X-3533Y176579D01*
X-1870Y176416D01*
X-207Y176579D01*
X1392Y177065D01*
X2866Y177852D01*
X4158Y178913D01*
X5218Y180204D01*
X6006Y181678D01*
X6491Y183278D01*
X6655Y184941D01*
X6491Y186604D01*
X6006Y188203D01*
X5218Y189677D01*
X4158Y190969D01*
X2866Y192030D01*
X1392Y192817D01*
X-207Y193302D01*
X-1870Y193466D01*
D02*
G37*
G36*
X41422Y177748D02*
X37902D01*
Y174228D01*
X38459Y174301D01*
X39445Y174709D01*
X40291Y175359D01*
X40940Y176205D01*
X41348Y177190D01*
X41422Y177748D01*
D02*
G37*
G36*
X36902D02*
X33381D01*
X33455Y177190D01*
X33863Y176205D01*
X34512Y175359D01*
X35359Y174709D01*
X36344Y174301D01*
X36902Y174228D01*
Y177748D01*
D02*
G37*
G36*
X37402Y171941D02*
X36446Y171815D01*
X35555Y171446D01*
X34790Y170859D01*
X34203Y170095D01*
X33834Y169204D01*
X33709Y168248D01*
X33834Y167292D01*
X34203Y166402D01*
X34790Y165637D01*
X35555Y165050D01*
X36446Y164681D01*
X37402Y164555D01*
X38357Y164681D01*
X39248Y165050D01*
X40013Y165637D01*
X40600Y166402D01*
X40969Y167292D01*
X41095Y168248D01*
X40969Y169204D01*
X40600Y170095D01*
X40013Y170859D01*
X39248Y171446D01*
X38357Y171815D01*
X37402Y171941D01*
D02*
G37*
G36*
Y161941D02*
X36446Y161815D01*
X35555Y161446D01*
X34790Y160859D01*
X34203Y160094D01*
X33834Y159204D01*
X33709Y158248D01*
X33834Y157292D01*
X34203Y156402D01*
X34790Y155637D01*
X35555Y155050D01*
X36446Y154681D01*
X37402Y154555D01*
X38357Y154681D01*
X39248Y155050D01*
X40013Y155637D01*
X40600Y156402D01*
X40969Y157292D01*
X41095Y158248D01*
X40969Y159204D01*
X40600Y160094D01*
X40013Y160859D01*
X39248Y161446D01*
X38357Y161815D01*
X37402Y161941D01*
D02*
G37*
G36*
X98130Y143158D02*
X97201Y143035D01*
X96334Y142677D01*
X95591Y142106D01*
X95020Y141362D01*
X94661Y140496D01*
X94539Y139567D01*
X94661Y138637D01*
X95020Y137771D01*
X95591Y137028D01*
X96334Y136457D01*
X97201Y136098D01*
X98130Y135976D01*
X99059Y136098D01*
X99925Y136457D01*
X100669Y137028D01*
X101240Y137771D01*
X101599Y138637D01*
X101721Y139567D01*
X101599Y140496D01*
X101240Y141362D01*
X100669Y142106D01*
X99925Y142677D01*
X99059Y143035D01*
X98130Y143158D01*
D02*
G37*
G36*
Y133315D02*
X97201Y133193D01*
X96334Y132834D01*
X95591Y132264D01*
X95020Y131520D01*
X94661Y130654D01*
X94539Y129724D01*
X94661Y128795D01*
X94898Y128224D01*
X76792Y110118D01*
X76526Y109721D01*
X76433Y109252D01*
Y84661D01*
X72426Y80653D01*
X14075D01*
X14075Y80653D01*
X13606Y80560D01*
X13209Y80295D01*
X-1082Y66004D01*
X-1348Y65606D01*
X-1441Y65138D01*
Y61093D01*
X-1609Y61024D01*
X-2291Y60500D01*
X-2815Y59817D01*
X-3144Y59022D01*
X-3257Y58169D01*
X-3144Y57316D01*
X-2815Y56521D01*
X-2291Y55839D01*
X-1609Y55315D01*
X-814Y54986D01*
X39Y54873D01*
X892Y54986D01*
X1687Y55315D01*
X2370Y55839D01*
X2894Y56521D01*
X3223Y57316D01*
X3335Y58169D01*
X3223Y59022D01*
X2894Y59817D01*
X2370Y60500D01*
X1687Y61024D01*
X1008Y61305D01*
Y64631D01*
X8097Y71720D01*
X8559Y71529D01*
Y61093D01*
X8391Y61024D01*
X7709Y60500D01*
X7185Y59817D01*
X6856Y59022D01*
X6743Y58169D01*
X6856Y57316D01*
X7185Y56521D01*
X7709Y55839D01*
X8391Y55315D01*
X9186Y54986D01*
X10039Y54873D01*
X10892Y54986D01*
X11687Y55315D01*
X12370Y55839D01*
X12894Y56521D01*
X13223Y57316D01*
X13335Y58169D01*
X13223Y59022D01*
X12894Y59817D01*
X12370Y60500D01*
X11687Y61024D01*
X11008Y61305D01*
Y72097D01*
X15324Y76414D01*
X21174D01*
X21366Y75951D01*
X19115Y73700D01*
X18849Y73303D01*
X18756Y72835D01*
Y61175D01*
X18391Y61024D01*
X17709Y60500D01*
X17185Y59817D01*
X16856Y59022D01*
X16744Y58169D01*
X16856Y57316D01*
X17185Y56521D01*
X17709Y55839D01*
X18391Y55315D01*
X19186Y54986D01*
X20039Y54873D01*
X20892Y54986D01*
X21687Y55315D01*
X22370Y55839D01*
X22894Y56521D01*
X23223Y57316D01*
X23335Y58169D01*
X23223Y59022D01*
X22894Y59817D01*
X22370Y60500D01*
X21687Y61024D01*
X21205Y61224D01*
Y72328D01*
X23499Y74622D01*
X74417D01*
X74886Y74715D01*
X75283Y74981D01*
X82106Y81804D01*
X82106Y81804D01*
X82371Y82201D01*
X82464Y82670D01*
Y107261D01*
X84019Y108815D01*
X94784D01*
X95020Y108244D01*
X95591Y107500D01*
X96334Y106930D01*
X97201Y106571D01*
X98130Y106448D01*
X99059Y106571D01*
X99925Y106930D01*
X100669Y107500D01*
X101240Y108244D01*
X101599Y109110D01*
X101721Y110039D01*
X101599Y110969D01*
X101240Y111835D01*
X100669Y112579D01*
X99925Y113149D01*
X99059Y113508D01*
X98130Y113630D01*
X97201Y113508D01*
X96334Y113149D01*
X95591Y112579D01*
X95020Y111835D01*
X94784Y111264D01*
X84587D01*
X84396Y111726D01*
X91328Y118658D01*
X94784D01*
X95020Y118086D01*
X95591Y117343D01*
X96334Y116772D01*
X97201Y116413D01*
X98130Y116291D01*
X99059Y116413D01*
X99925Y116772D01*
X100669Y117343D01*
X101240Y118086D01*
X101599Y118953D01*
X101721Y119882D01*
X101599Y120811D01*
X101240Y121677D01*
X100669Y122421D01*
X99925Y122992D01*
X99059Y123351D01*
X98130Y123473D01*
X97201Y123351D01*
X96334Y122992D01*
X95591Y122421D01*
X95020Y121677D01*
X94784Y121106D01*
X91896D01*
X91705Y121568D01*
X96629Y126492D01*
X97201Y126256D01*
X98130Y126133D01*
X99059Y126256D01*
X99925Y126615D01*
X100669Y127185D01*
X101240Y127929D01*
X101599Y128795D01*
X101721Y129724D01*
X101599Y130654D01*
X101240Y131520D01*
X100669Y132264D01*
X99925Y132834D01*
X99059Y133193D01*
X98130Y133315D01*
D02*
G37*
G36*
X55717Y122952D02*
Y106701D01*
X71968D01*
X71857Y108391D01*
X71429Y110545D01*
X70723Y112624D01*
X69752Y114593D01*
X68532Y116418D01*
X67085Y118069D01*
X65434Y119516D01*
X63608Y120736D01*
X61639Y121707D01*
X59561Y122413D01*
X57407Y122841D01*
X55717Y122952D01*
D02*
G37*
G36*
X54716D02*
X53026Y122841D01*
X50872Y122413D01*
X48794Y121707D01*
X46825Y120736D01*
X44999Y119516D01*
X43349Y118069D01*
X41901Y116418D01*
X40681Y114593D01*
X39710Y112624D01*
X39004Y110545D01*
X38576Y108391D01*
X38465Y106701D01*
X54716D01*
Y122952D01*
D02*
G37*
G36*
X98630Y104115D02*
Y100697D01*
X102048D01*
X101978Y101228D01*
X101580Y102189D01*
X100947Y103014D01*
X100122Y103647D01*
X99161Y104045D01*
X98630Y104115D01*
D02*
G37*
G36*
X97630D02*
X97099Y104045D01*
X96138Y103647D01*
X95313Y103014D01*
X94680Y102189D01*
X94282Y101228D01*
X94212Y100697D01*
X97630D01*
Y104115D01*
D02*
G37*
G36*
X-18949Y100379D02*
Y96858D01*
X-15428D01*
X-15502Y97416D01*
X-15910Y98401D01*
X-16559Y99248D01*
X-17406Y99897D01*
X-18391Y100305D01*
X-18949Y100379D01*
D02*
G37*
G36*
X-19949D02*
X-20506Y100305D01*
X-21492Y99897D01*
X-22338Y99248D01*
X-22987Y98401D01*
X-23396Y97416D01*
X-23469Y96858D01*
X-19949D01*
Y100379D01*
D02*
G37*
G36*
X102048Y99697D02*
X98630D01*
Y96279D01*
X99161Y96349D01*
X100122Y96747D01*
X100947Y97380D01*
X101580Y98205D01*
X101978Y99166D01*
X102048Y99697D01*
D02*
G37*
G36*
X97630D02*
X94212D01*
X94282Y99166D01*
X94680Y98205D01*
X95313Y97380D01*
X96138Y96747D01*
X97099Y96349D01*
X97630Y96279D01*
Y99697D01*
D02*
G37*
G36*
X41063Y151909D02*
X33740D01*
Y144587D01*
X35776D01*
Y123213D01*
X24917Y112354D01*
X-15079D01*
X-15701Y112230D01*
X-16228Y111878D01*
X-28087Y100020D01*
X-33110D01*
Y92697D01*
X-25787D01*
Y97721D01*
X-14405Y109103D01*
X25591D01*
X26213Y109226D01*
X26740Y109579D01*
X38551Y121390D01*
X38904Y121917D01*
X39027Y122539D01*
Y144587D01*
X41063D01*
Y151909D01*
D02*
G37*
G36*
X20551Y100051D02*
X19595Y99925D01*
X18705Y99556D01*
X17940Y98970D01*
X17353Y98205D01*
X16984Y97314D01*
X16858Y96358D01*
X16984Y95402D01*
X17353Y94512D01*
X17940Y93747D01*
X18705Y93160D01*
X19595Y92791D01*
X20551Y92665D01*
X21507Y92791D01*
X22398Y93160D01*
X23163Y93747D01*
X23749Y94512D01*
X24118Y95402D01*
X24244Y96358D01*
X24118Y97314D01*
X23749Y98205D01*
X23163Y98970D01*
X22398Y99556D01*
X21507Y99925D01*
X20551Y100051D01*
D02*
G37*
G36*
X10551D02*
X9595Y99925D01*
X8705Y99556D01*
X7940Y98970D01*
X7353Y98205D01*
X6984Y97314D01*
X6858Y96358D01*
X6984Y95402D01*
X7353Y94512D01*
X7940Y93747D01*
X8705Y93160D01*
X9595Y92791D01*
X10551Y92665D01*
X11507Y92791D01*
X12398Y93160D01*
X13162Y93747D01*
X13749Y94512D01*
X14118Y95402D01*
X14244Y96358D01*
X14118Y97314D01*
X13749Y98205D01*
X13162Y98970D01*
X12398Y99556D01*
X11507Y99925D01*
X10551Y100051D01*
D02*
G37*
G36*
X551D02*
X-405Y99925D01*
X-1295Y99556D01*
X-2060Y98970D01*
X-2647Y98205D01*
X-3016Y97314D01*
X-3142Y96358D01*
X-3016Y95402D01*
X-2647Y94512D01*
X-2060Y93747D01*
X-1295Y93160D01*
X-405Y92791D01*
X551Y92665D01*
X1507Y92791D01*
X2398Y93160D01*
X3162Y93747D01*
X3749Y94512D01*
X4118Y95402D01*
X4244Y96358D01*
X4118Y97314D01*
X3749Y98205D01*
X3162Y98970D01*
X2398Y99556D01*
X1507Y99925D01*
X551Y100051D01*
D02*
G37*
G36*
X-9449D02*
X-10405Y99925D01*
X-11295Y99556D01*
X-12060Y98970D01*
X-12647Y98205D01*
X-13016Y97314D01*
X-13142Y96358D01*
X-13016Y95402D01*
X-12647Y94512D01*
X-12060Y93747D01*
X-11295Y93160D01*
X-10405Y92791D01*
X-9449Y92665D01*
X-8493Y92791D01*
X-7602Y93160D01*
X-6837Y93747D01*
X-6251Y94512D01*
X-5882Y95402D01*
X-5756Y96358D01*
X-5882Y97314D01*
X-6251Y98205D01*
X-6837Y98970D01*
X-7602Y99556D01*
X-8493Y99925D01*
X-9449Y100051D01*
D02*
G37*
G36*
X-15428Y95858D02*
X-18949D01*
Y92338D01*
X-18391Y92411D01*
X-17406Y92820D01*
X-16559Y93469D01*
X-15910Y94315D01*
X-15502Y95301D01*
X-15428Y95858D01*
D02*
G37*
G36*
X-19949D02*
X-23469D01*
X-23396Y95301D01*
X-22987Y94315D01*
X-22338Y93469D01*
X-21492Y92820D01*
X-20506Y92411D01*
X-19949Y92338D01*
Y95858D01*
D02*
G37*
G36*
X71968Y105701D02*
X55717D01*
Y89450D01*
X57407Y89560D01*
X59561Y89989D01*
X61639Y90694D01*
X63608Y91665D01*
X65434Y92885D01*
X67085Y94333D01*
X68532Y95983D01*
X69752Y97809D01*
X70723Y99778D01*
X71429Y101857D01*
X71857Y104010D01*
X71968Y105701D01*
D02*
G37*
G36*
X54716D02*
X38465D01*
X38576Y104010D01*
X39004Y101857D01*
X39710Y99778D01*
X40681Y97809D01*
X41901Y95983D01*
X43349Y94333D01*
X44999Y92885D01*
X46825Y91665D01*
X48794Y90694D01*
X50872Y89989D01*
X53026Y89560D01*
X54716Y89450D01*
Y105701D01*
D02*
G37*
G36*
X33307Y61437D02*
X26772D01*
Y54902D01*
X33307D01*
Y61437D01*
D02*
G37*
G36*
X-9961Y61465D02*
X-10814Y61353D01*
X-11609Y61024D01*
X-12291Y60500D01*
X-12815Y59817D01*
X-13144Y59022D01*
X-13257Y58169D01*
X-13144Y57316D01*
X-12815Y56521D01*
X-12291Y55839D01*
X-11609Y55315D01*
X-10814Y54986D01*
X-9961Y54873D01*
X-9108Y54986D01*
X-8313Y55315D01*
X-7630Y55839D01*
X-7106Y56521D01*
X-6777Y57316D01*
X-6665Y58169D01*
X-6777Y59022D01*
X-7106Y59817D01*
X-7630Y60500D01*
X-8313Y61024D01*
X-9108Y61353D01*
X-9961Y61465D01*
D02*
G37*
G36*
X-59961D02*
X-60814Y61353D01*
X-61609Y61024D01*
X-62291Y60500D01*
X-62815Y59817D01*
X-63144Y59022D01*
X-63257Y58169D01*
X-63144Y57316D01*
X-62815Y56521D01*
X-62291Y55839D01*
X-61609Y55315D01*
X-60814Y54986D01*
X-59961Y54873D01*
X-59108Y54986D01*
X-58313Y55315D01*
X-57630Y55839D01*
X-57106Y56521D01*
X-56777Y57316D01*
X-56665Y58169D01*
X-56777Y59022D01*
X-57106Y59817D01*
X-57630Y60500D01*
X-58313Y61024D01*
X-59108Y61353D01*
X-59961Y61465D01*
D02*
G37*
G36*
X-24755Y16978D02*
X-63041D01*
Y11369D01*
X-24755D01*
Y16978D01*
D02*
G37*
G36*
X-59461Y7462D02*
Y4339D01*
X-56337D01*
X-56397Y4793D01*
X-56766Y5683D01*
X-57352Y6447D01*
X-58116Y7033D01*
X-59006Y7402D01*
X-59461Y7462D01*
D02*
G37*
G36*
X-60461D02*
X-60915Y7402D01*
X-61805Y7033D01*
X-62569Y6447D01*
X-63155Y5683D01*
X-63524Y4793D01*
X-63584Y4339D01*
X-60461D01*
Y7462D01*
D02*
G37*
%LPD*%
G36*
X-41570Y16361D02*
X-41453Y16349D01*
X-41341Y16324D01*
X-41248Y16299D01*
X-41174Y16275D01*
X-41112Y16250D01*
X-41075Y16238D01*
X-41069Y16231D01*
X-41063D01*
X-40964Y16176D01*
X-40871Y16114D01*
X-40796Y16052D01*
X-40735Y15996D01*
X-40685Y15940D01*
X-40648Y15897D01*
X-40623Y15872D01*
X-40617Y15860D01*
X-40561Y15767D01*
X-40512Y15668D01*
X-40475Y15563D01*
X-40437Y15464D01*
X-40413Y15371D01*
X-40394Y15303D01*
X-40388Y15272D01*
Y15253D01*
X-40382Y15241D01*
Y15235D01*
X-41137Y15111D01*
X-41155Y15210D01*
X-41180Y15297D01*
X-41205Y15371D01*
X-41236Y15427D01*
X-41267Y15476D01*
X-41292Y15513D01*
X-41310Y15532D01*
X-41316Y15538D01*
X-41372Y15588D01*
X-41434Y15625D01*
X-41496Y15650D01*
X-41552Y15668D01*
X-41601Y15680D01*
X-41638Y15687D01*
X-41675D01*
X-41750Y15680D01*
X-41824Y15668D01*
X-41880Y15643D01*
X-41929Y15625D01*
X-41973Y15600D01*
X-41997Y15575D01*
X-42016Y15563D01*
X-42022Y15557D01*
X-42065Y15507D01*
X-42096Y15445D01*
X-42121Y15390D01*
X-42134Y15334D01*
X-42146Y15284D01*
X-42152Y15247D01*
Y15222D01*
Y15210D01*
X-42146Y15117D01*
X-42127Y15037D01*
X-42096Y14969D01*
X-42065Y14913D01*
X-42028Y14863D01*
X-42004Y14832D01*
X-41979Y14808D01*
X-41973Y14802D01*
X-41898Y14752D01*
X-41818Y14715D01*
X-41731Y14690D01*
X-41651Y14672D01*
X-41576Y14665D01*
X-41515Y14659D01*
X-41459D01*
X-41372Y13997D01*
X-41453Y14015D01*
X-41521Y14034D01*
X-41589Y14046D01*
X-41644Y14052D01*
X-41688Y14059D01*
X-41750D01*
X-41836Y14052D01*
X-41911Y14028D01*
X-41979Y14003D01*
X-42041Y13966D01*
X-42084Y13935D01*
X-42121Y13904D01*
X-42146Y13879D01*
X-42152Y13873D01*
X-42208Y13799D01*
X-42251Y13718D01*
X-42282Y13638D01*
X-42307Y13557D01*
X-42319Y13483D01*
X-42325Y13427D01*
Y13390D01*
Y13384D01*
Y13378D01*
X-42319Y13260D01*
X-42301Y13155D01*
X-42270Y13062D01*
X-42239Y12988D01*
X-42202Y12932D01*
X-42177Y12889D01*
X-42152Y12858D01*
X-42146Y12852D01*
X-42078Y12790D01*
X-42004Y12740D01*
X-41935Y12709D01*
X-41867Y12685D01*
X-41805Y12672D01*
X-41762Y12666D01*
X-41731Y12660D01*
X-41719D01*
X-41632Y12666D01*
X-41558Y12685D01*
X-41490Y12709D01*
X-41428Y12740D01*
X-41385Y12765D01*
X-41347Y12790D01*
X-41323Y12808D01*
X-41316Y12814D01*
X-41261Y12883D01*
X-41211Y12957D01*
X-41180Y13037D01*
X-41149Y13112D01*
X-41131Y13180D01*
X-41118Y13236D01*
X-41112Y13273D01*
Y13279D01*
Y13285D01*
X-40320Y13186D01*
X-40332Y13087D01*
X-40357Y12994D01*
X-40413Y12821D01*
X-40481Y12672D01*
X-40524Y12610D01*
X-40561Y12548D01*
X-40598Y12493D01*
X-40635Y12449D01*
X-40666Y12406D01*
X-40697Y12375D01*
X-40722Y12350D01*
X-40741Y12332D01*
X-40753Y12319D01*
X-40759Y12313D01*
X-40834Y12257D01*
X-40914Y12202D01*
X-40988Y12158D01*
X-41075Y12121D01*
X-41236Y12059D01*
X-41385Y12022D01*
X-41459Y12010D01*
X-41521Y11998D01*
X-41576Y11991D01*
X-41626Y11985D01*
X-41669Y11979D01*
X-41725D01*
X-41836Y11985D01*
X-41948Y11998D01*
X-42047Y12016D01*
X-42146Y12041D01*
X-42232Y12072D01*
X-42319Y12103D01*
X-42400Y12140D01*
X-42468Y12177D01*
X-42530Y12214D01*
X-42592Y12251D01*
X-42635Y12282D01*
X-42678Y12313D01*
X-42709Y12338D01*
X-42734Y12357D01*
X-42746Y12369D01*
X-42753Y12375D01*
X-42827Y12449D01*
X-42889Y12530D01*
X-42944Y12610D01*
X-42994Y12691D01*
X-43031Y12777D01*
X-43068Y12858D01*
X-43118Y13006D01*
X-43130Y13074D01*
X-43143Y13143D01*
X-43155Y13198D01*
X-43161Y13248D01*
X-43167Y13285D01*
Y13316D01*
Y13334D01*
Y13341D01*
X-43155Y13483D01*
X-43130Y13607D01*
X-43099Y13724D01*
X-43056Y13817D01*
X-43012Y13898D01*
X-42981Y13953D01*
X-42957Y13991D01*
X-42944Y14003D01*
X-42858Y14096D01*
X-42759Y14176D01*
X-42660Y14238D01*
X-42567Y14288D01*
X-42486Y14325D01*
X-42418Y14344D01*
X-42393Y14356D01*
X-42375D01*
X-42362Y14362D01*
X-42356D01*
X-42468Y14430D01*
X-42561Y14498D01*
X-42641Y14572D01*
X-42715Y14647D01*
X-42777Y14721D01*
X-42827Y14795D01*
X-42864Y14870D01*
X-42901Y14938D01*
X-42926Y15006D01*
X-42944Y15068D01*
X-42957Y15123D01*
X-42963Y15173D01*
X-42969Y15210D01*
X-42975Y15241D01*
Y15260D01*
Y15266D01*
X-42969Y15340D01*
X-42963Y15408D01*
X-42926Y15544D01*
X-42882Y15668D01*
X-42827Y15773D01*
X-42771Y15860D01*
X-42722Y15922D01*
X-42703Y15947D01*
X-42684Y15965D01*
X-42678Y15971D01*
X-42672Y15978D01*
X-42604Y16046D01*
X-42524Y16108D01*
X-42449Y16157D01*
X-42369Y16201D01*
X-42282Y16244D01*
X-42202Y16275D01*
X-42047Y16318D01*
X-41979Y16337D01*
X-41911Y16349D01*
X-41855Y16355D01*
X-41799Y16361D01*
X-41756Y16368D01*
X-41700D01*
X-41570Y16361D01*
D02*
G37*
G36*
X-36723Y16225D02*
X-36643Y16095D01*
X-36556Y15971D01*
X-36470Y15872D01*
X-36395Y15792D01*
X-36327Y15730D01*
X-36303Y15705D01*
X-36284Y15687D01*
X-36272Y15680D01*
X-36265Y15674D01*
X-36129Y15575D01*
X-35999Y15489D01*
X-35882Y15420D01*
X-35776Y15371D01*
X-35690Y15334D01*
X-35628Y15303D01*
X-35603Y15297D01*
X-35585Y15291D01*
X-35578Y15284D01*
X-35572D01*
Y14541D01*
X-35795Y14628D01*
X-35993Y14721D01*
X-36086Y14771D01*
X-36173Y14826D01*
X-36253Y14876D01*
X-36327Y14925D01*
X-36395Y14975D01*
X-36457Y15018D01*
X-36507Y15055D01*
X-36550Y15092D01*
X-36587Y15123D01*
X-36612Y15142D01*
X-36624Y15154D01*
X-36631Y15160D01*
Y12059D01*
X-37454D01*
Y16368D01*
X-36785D01*
X-36723Y16225D01*
D02*
G37*
G36*
X-56705Y16225D02*
X-56624Y16095D01*
X-56538Y15971D01*
X-56451Y15872D01*
X-56377Y15792D01*
X-56309Y15730D01*
X-56284Y15705D01*
X-56265Y15687D01*
X-56253Y15680D01*
X-56247Y15674D01*
X-56111Y15575D01*
X-55980Y15489D01*
X-55863Y15420D01*
X-55758Y15371D01*
X-55671Y15334D01*
X-55609Y15303D01*
X-55584Y15297D01*
X-55566Y15291D01*
X-55560Y15284D01*
X-55553D01*
Y14541D01*
X-55776Y14628D01*
X-55974Y14721D01*
X-56067Y14771D01*
X-56154Y14826D01*
X-56234Y14876D01*
X-56309Y14925D01*
X-56377Y14975D01*
X-56439Y15018D01*
X-56488Y15055D01*
X-56531Y15092D01*
X-56569Y15123D01*
X-56593Y15142D01*
X-56606Y15154D01*
X-56612Y15160D01*
Y12059D01*
X-57435D01*
Y16368D01*
X-56767D01*
X-56705Y16225D01*
D02*
G37*
G36*
X-61700D02*
X-61620Y16095D01*
X-61533Y15971D01*
X-61446Y15872D01*
X-61372Y15792D01*
X-61304Y15730D01*
X-61279Y15705D01*
X-61261Y15687D01*
X-61248Y15680D01*
X-61242Y15674D01*
X-61106Y15575D01*
X-60976Y15489D01*
X-60858Y15420D01*
X-60753Y15371D01*
X-60666Y15334D01*
X-60604Y15303D01*
X-60580Y15297D01*
X-60561Y15291D01*
X-60555Y15284D01*
X-60549D01*
Y14541D01*
X-60772Y14628D01*
X-60970Y14721D01*
X-61063Y14771D01*
X-61149Y14826D01*
X-61230Y14876D01*
X-61304Y14925D01*
X-61372Y14975D01*
X-61434Y15018D01*
X-61483Y15055D01*
X-61527Y15092D01*
X-61564Y15123D01*
X-61589Y15142D01*
X-61601Y15154D01*
X-61607Y15160D01*
Y12059D01*
X-62431D01*
Y16368D01*
X-61762D01*
X-61700Y16225D01*
D02*
G37*
G36*
X-48447Y16361D02*
X-48330Y16343D01*
X-48212Y16318D01*
X-48107Y16287D01*
X-48008Y16244D01*
X-47909Y16201D01*
X-47828Y16151D01*
X-47748Y16108D01*
X-47680Y16058D01*
X-47618Y16009D01*
X-47568Y15965D01*
X-47525Y15922D01*
X-47488Y15891D01*
X-47463Y15866D01*
X-47451Y15848D01*
X-47444Y15841D01*
X-47370Y15736D01*
X-47302Y15619D01*
X-47246Y15489D01*
X-47197Y15359D01*
X-47154Y15216D01*
X-47116Y15074D01*
X-47085Y14931D01*
X-47067Y14795D01*
X-47048Y14665D01*
X-47036Y14541D01*
X-47024Y14430D01*
X-47017Y14331D01*
X-47011Y14251D01*
Y14189D01*
Y14170D01*
Y14152D01*
Y14145D01*
Y14139D01*
X-47017Y13929D01*
X-47030Y13737D01*
X-47048Y13557D01*
X-47079Y13396D01*
X-47110Y13242D01*
X-47141Y13105D01*
X-47178Y12988D01*
X-47222Y12876D01*
X-47259Y12784D01*
X-47296Y12703D01*
X-47327Y12635D01*
X-47364Y12579D01*
X-47389Y12536D01*
X-47407Y12505D01*
X-47420Y12487D01*
X-47426Y12480D01*
X-47506Y12394D01*
X-47593Y12313D01*
X-47680Y12245D01*
X-47773Y12189D01*
X-47859Y12140D01*
X-47952Y12103D01*
X-48039Y12066D01*
X-48119Y12041D01*
X-48200Y12022D01*
X-48268Y12004D01*
X-48336Y11998D01*
X-48392Y11985D01*
X-48435D01*
X-48466Y11979D01*
X-48497D01*
X-48608Y11985D01*
X-48713Y11998D01*
X-48812Y12016D01*
X-48905Y12041D01*
X-48998Y12072D01*
X-49079Y12103D01*
X-49153Y12140D01*
X-49221Y12177D01*
X-49283Y12214D01*
X-49332Y12251D01*
X-49382Y12282D01*
X-49419Y12313D01*
X-49450Y12338D01*
X-49469Y12357D01*
X-49481Y12369D01*
X-49487Y12375D01*
X-49555Y12449D01*
X-49617Y12536D01*
X-49667Y12623D01*
X-49710Y12709D01*
X-49753Y12796D01*
X-49784Y12883D01*
X-49828Y13056D01*
X-49846Y13130D01*
X-49859Y13205D01*
X-49865Y13266D01*
X-49871Y13322D01*
X-49877Y13372D01*
Y13403D01*
Y13427D01*
Y13433D01*
X-49871Y13551D01*
X-49859Y13656D01*
X-49840Y13762D01*
X-49821Y13854D01*
X-49790Y13947D01*
X-49760Y14028D01*
X-49729Y14108D01*
X-49692Y14176D01*
X-49654Y14238D01*
X-49623Y14294D01*
X-49592Y14337D01*
X-49562Y14381D01*
X-49543Y14412D01*
X-49524Y14430D01*
X-49512Y14443D01*
X-49506Y14449D01*
X-49438Y14517D01*
X-49363Y14579D01*
X-49289Y14634D01*
X-49215Y14678D01*
X-49141Y14715D01*
X-49066Y14746D01*
X-48930Y14795D01*
X-48868Y14814D01*
X-48806Y14826D01*
X-48757Y14832D01*
X-48713Y14839D01*
X-48676Y14845D01*
X-48627D01*
X-48540Y14839D01*
X-48460Y14826D01*
X-48385Y14814D01*
X-48311Y14789D01*
X-48181Y14727D01*
X-48070Y14665D01*
X-47983Y14597D01*
X-47946Y14566D01*
X-47915Y14535D01*
X-47890Y14511D01*
X-47872Y14498D01*
X-47865Y14486D01*
X-47859Y14480D01*
X-47872Y14610D01*
X-47884Y14733D01*
X-47896Y14845D01*
X-47915Y14944D01*
X-47934Y15031D01*
X-47952Y15111D01*
X-47971Y15179D01*
X-47995Y15241D01*
X-48014Y15297D01*
X-48026Y15340D01*
X-48045Y15377D01*
X-48057Y15402D01*
X-48070Y15427D01*
X-48082Y15439D01*
X-48088Y15451D01*
X-48156Y15532D01*
X-48231Y15588D01*
X-48305Y15631D01*
X-48373Y15656D01*
X-48435Y15674D01*
X-48484Y15680D01*
X-48515Y15687D01*
X-48528D01*
X-48596Y15680D01*
X-48664Y15668D01*
X-48720Y15650D01*
X-48763Y15631D01*
X-48800Y15606D01*
X-48825Y15588D01*
X-48844Y15575D01*
X-48850Y15569D01*
X-48893Y15520D01*
X-48924Y15464D01*
X-48955Y15402D01*
X-48973Y15346D01*
X-48986Y15291D01*
X-48998Y15247D01*
X-49004Y15222D01*
Y15210D01*
X-49797Y15297D01*
X-49753Y15482D01*
X-49692Y15637D01*
X-49623Y15773D01*
X-49555Y15891D01*
X-49487Y15978D01*
X-49463Y16009D01*
X-49431Y16039D01*
X-49413Y16058D01*
X-49394Y16077D01*
X-49388Y16089D01*
X-49382D01*
X-49320Y16139D01*
X-49258Y16182D01*
X-49122Y16250D01*
X-48986Y16299D01*
X-48862Y16330D01*
X-48751Y16355D01*
X-48701Y16361D01*
X-48658D01*
X-48627Y16368D01*
X-48577D01*
X-48447Y16361D01*
D02*
G37*
G36*
X-25365Y15526D02*
X-27228D01*
X-27024Y15247D01*
X-26844Y14956D01*
X-26757Y14820D01*
X-26683Y14678D01*
X-26615Y14548D01*
X-26553Y14424D01*
X-26498Y14306D01*
X-26448Y14201D01*
X-26405Y14102D01*
X-26368Y14022D01*
X-26343Y13960D01*
X-26324Y13910D01*
X-26312Y13879D01*
X-26306Y13867D01*
X-26244Y13693D01*
X-26188Y13526D01*
X-26145Y13359D01*
X-26101Y13198D01*
X-26070Y13037D01*
X-26039Y12889D01*
X-26015Y12746D01*
X-25996Y12617D01*
X-25978Y12499D01*
X-25965Y12387D01*
X-25953Y12295D01*
X-25947Y12214D01*
Y12146D01*
X-25940Y12096D01*
Y12072D01*
Y12059D01*
X-26733D01*
X-26739Y12276D01*
X-26757Y12499D01*
X-26788Y12716D01*
X-26801Y12814D01*
X-26819Y12914D01*
X-26838Y13000D01*
X-26857Y13087D01*
X-26869Y13155D01*
X-26881Y13217D01*
X-26894Y13273D01*
X-26906Y13310D01*
X-26912Y13334D01*
Y13341D01*
X-26993Y13607D01*
X-27079Y13861D01*
X-27123Y13978D01*
X-27172Y14090D01*
X-27216Y14195D01*
X-27259Y14294D01*
X-27302Y14381D01*
X-27339Y14461D01*
X-27376Y14535D01*
X-27401Y14591D01*
X-27426Y14641D01*
X-27445Y14672D01*
X-27457Y14696D01*
X-27463Y14703D01*
X-27531Y14820D01*
X-27599Y14931D01*
X-27661Y15031D01*
X-27723Y15130D01*
X-27785Y15216D01*
X-27847Y15297D01*
X-27903Y15371D01*
X-27952Y15439D01*
X-28002Y15501D01*
X-28045Y15551D01*
X-28082Y15594D01*
X-28113Y15631D01*
X-28138Y15656D01*
X-28157Y15674D01*
X-28169Y15687D01*
X-28175Y15693D01*
Y16287D01*
X-25365D01*
Y15526D01*
D02*
G37*
G36*
X-28695D02*
X-30558D01*
X-30354Y15247D01*
X-30174Y14956D01*
X-30088Y14820D01*
X-30013Y14678D01*
X-29945Y14548D01*
X-29884Y14424D01*
X-29828Y14306D01*
X-29778Y14201D01*
X-29735Y14102D01*
X-29698Y14022D01*
X-29673Y13960D01*
X-29654Y13910D01*
X-29642Y13879D01*
X-29636Y13867D01*
X-29574Y13693D01*
X-29518Y13526D01*
X-29475Y13359D01*
X-29432Y13198D01*
X-29401Y13037D01*
X-29370Y12889D01*
X-29345Y12746D01*
X-29326Y12617D01*
X-29308Y12499D01*
X-29295Y12387D01*
X-29283Y12295D01*
X-29277Y12214D01*
Y12146D01*
X-29271Y12096D01*
Y12072D01*
Y12059D01*
X-30063D01*
X-30069Y12276D01*
X-30088Y12499D01*
X-30119Y12716D01*
X-30131Y12814D01*
X-30150Y12914D01*
X-30168Y13000D01*
X-30187Y13087D01*
X-30199Y13155D01*
X-30211Y13217D01*
X-30224Y13273D01*
X-30236Y13310D01*
X-30242Y13334D01*
Y13341D01*
X-30323Y13607D01*
X-30410Y13861D01*
X-30453Y13978D01*
X-30503Y14090D01*
X-30546Y14195D01*
X-30589Y14294D01*
X-30632Y14381D01*
X-30670Y14461D01*
X-30707Y14535D01*
X-30731Y14591D01*
X-30756Y14641D01*
X-30775Y14672D01*
X-30787Y14696D01*
X-30793Y14703D01*
X-30861Y14820D01*
X-30930Y14931D01*
X-30992Y15031D01*
X-31053Y15130D01*
X-31115Y15216D01*
X-31177Y15297D01*
X-31233Y15371D01*
X-31282Y15439D01*
X-31332Y15501D01*
X-31375Y15551D01*
X-31412Y15594D01*
X-31443Y15631D01*
X-31468Y15656D01*
X-31487Y15674D01*
X-31499Y15687D01*
X-31505Y15693D01*
Y16287D01*
X-28695D01*
Y15526D01*
D02*
G37*
G36*
X-58840Y12059D02*
X-59664D01*
Y12883D01*
X-58840D01*
Y12059D01*
D02*
G37*
G36*
X-33300Y16361D02*
X-33195Y16349D01*
X-33090Y16324D01*
X-32997Y16299D01*
X-32910Y16262D01*
X-32830Y16225D01*
X-32762Y16188D01*
X-32694Y16145D01*
X-32638Y16101D01*
X-32582Y16064D01*
X-32539Y16027D01*
X-32508Y15990D01*
X-32477Y15965D01*
X-32458Y15940D01*
X-32446Y15928D01*
X-32440Y15922D01*
X-32366Y15817D01*
X-32304Y15693D01*
X-32248Y15563D01*
X-32199Y15427D01*
X-32161Y15284D01*
X-32124Y15136D01*
X-32100Y14993D01*
X-32075Y14851D01*
X-32062Y14715D01*
X-32050Y14591D01*
X-32038Y14473D01*
X-32031Y14374D01*
X-32025Y14294D01*
Y14232D01*
Y14207D01*
Y14189D01*
Y14183D01*
Y14176D01*
X-32031Y13953D01*
X-32044Y13749D01*
X-32062Y13557D01*
X-32087Y13384D01*
X-32112Y13229D01*
X-32143Y13087D01*
X-32180Y12963D01*
X-32217Y12852D01*
X-32248Y12759D01*
X-32285Y12672D01*
X-32316Y12604D01*
X-32347Y12548D01*
X-32366Y12511D01*
X-32384Y12480D01*
X-32397Y12462D01*
X-32403Y12455D01*
X-32477Y12369D01*
X-32558Y12301D01*
X-32638Y12233D01*
X-32725Y12183D01*
X-32805Y12134D01*
X-32892Y12096D01*
X-32972Y12066D01*
X-33053Y12041D01*
X-33127Y12016D01*
X-33195Y12004D01*
X-33257Y11991D01*
X-33307Y11985D01*
X-33350D01*
X-33387Y11979D01*
X-33412D01*
X-33523Y11985D01*
X-33628Y11998D01*
X-33734Y12022D01*
X-33827Y12047D01*
X-33913Y12078D01*
X-33994Y12115D01*
X-34062Y12158D01*
X-34130Y12202D01*
X-34185Y12239D01*
X-34241Y12282D01*
X-34285Y12319D01*
X-34322Y12350D01*
X-34347Y12375D01*
X-34365Y12400D01*
X-34377Y12412D01*
X-34384Y12418D01*
X-34458Y12524D01*
X-34520Y12647D01*
X-34582Y12777D01*
X-34625Y12920D01*
X-34668Y13062D01*
X-34699Y13205D01*
X-34730Y13353D01*
X-34755Y13495D01*
X-34767Y13632D01*
X-34780Y13755D01*
X-34792Y13873D01*
X-34798Y13972D01*
X-34804Y14052D01*
Y14114D01*
Y14139D01*
Y14158D01*
Y14164D01*
Y14170D01*
X-34798Y14393D01*
X-34786Y14597D01*
X-34767Y14783D01*
X-34736Y14956D01*
X-34705Y15117D01*
X-34675Y15260D01*
X-34631Y15390D01*
X-34594Y15501D01*
X-34557Y15606D01*
X-34520Y15687D01*
X-34483Y15761D01*
X-34452Y15823D01*
X-34421Y15866D01*
X-34402Y15897D01*
X-34390Y15916D01*
X-34384Y15922D01*
X-34315Y16002D01*
X-34241Y16071D01*
X-34161Y16126D01*
X-34080Y16182D01*
X-34000Y16225D01*
X-33919Y16256D01*
X-33845Y16287D01*
X-33765Y16312D01*
X-33690Y16330D01*
X-33628Y16343D01*
X-33566Y16355D01*
X-33517Y16361D01*
X-33474Y16368D01*
X-33412D01*
X-33300Y16361D01*
D02*
G37*
G36*
X-44956D02*
X-44851Y16349D01*
X-44746Y16324D01*
X-44653Y16299D01*
X-44566Y16262D01*
X-44486Y16225D01*
X-44418Y16188D01*
X-44350Y16145D01*
X-44294Y16101D01*
X-44238Y16064D01*
X-44195Y16027D01*
X-44164Y15990D01*
X-44133Y15965D01*
X-44114Y15940D01*
X-44102Y15928D01*
X-44096Y15922D01*
X-44021Y15817D01*
X-43960Y15693D01*
X-43904Y15563D01*
X-43854Y15427D01*
X-43817Y15284D01*
X-43780Y15136D01*
X-43755Y14993D01*
X-43731Y14851D01*
X-43718Y14715D01*
X-43706Y14591D01*
X-43693Y14473D01*
X-43687Y14374D01*
X-43681Y14294D01*
Y14232D01*
Y14207D01*
Y14189D01*
Y14183D01*
Y14176D01*
X-43687Y13953D01*
X-43700Y13749D01*
X-43718Y13557D01*
X-43743Y13384D01*
X-43768Y13229D01*
X-43799Y13087D01*
X-43836Y12963D01*
X-43873Y12852D01*
X-43904Y12759D01*
X-43941Y12672D01*
X-43972Y12604D01*
X-44003Y12548D01*
X-44021Y12511D01*
X-44040Y12480D01*
X-44052Y12462D01*
X-44059Y12455D01*
X-44133Y12369D01*
X-44213Y12301D01*
X-44294Y12233D01*
X-44381Y12183D01*
X-44461Y12134D01*
X-44548Y12096D01*
X-44628Y12066D01*
X-44708Y12041D01*
X-44783Y12016D01*
X-44851Y12004D01*
X-44913Y11991D01*
X-44962Y11985D01*
X-45006D01*
X-45043Y11979D01*
X-45068D01*
X-45179Y11985D01*
X-45284Y11998D01*
X-45389Y12022D01*
X-45482Y12047D01*
X-45569Y12078D01*
X-45649Y12115D01*
X-45717Y12158D01*
X-45786Y12202D01*
X-45841Y12239D01*
X-45897Y12282D01*
X-45940Y12319D01*
X-45978Y12350D01*
X-46002Y12375D01*
X-46021Y12400D01*
X-46033Y12412D01*
X-46039Y12418D01*
X-46114Y12524D01*
X-46176Y12647D01*
X-46237Y12777D01*
X-46281Y12920D01*
X-46324Y13062D01*
X-46355Y13205D01*
X-46386Y13353D01*
X-46411Y13495D01*
X-46423Y13632D01*
X-46435Y13755D01*
X-46448Y13873D01*
X-46454Y13972D01*
X-46460Y14052D01*
Y14114D01*
Y14139D01*
Y14158D01*
Y14164D01*
Y14170D01*
X-46454Y14393D01*
X-46442Y14597D01*
X-46423Y14783D01*
X-46392Y14956D01*
X-46361Y15117D01*
X-46330Y15260D01*
X-46287Y15390D01*
X-46250Y15501D01*
X-46213Y15606D01*
X-46176Y15687D01*
X-46138Y15761D01*
X-46108Y15823D01*
X-46077Y15866D01*
X-46058Y15897D01*
X-46046Y15916D01*
X-46039Y15922D01*
X-45971Y16002D01*
X-45897Y16071D01*
X-45816Y16126D01*
X-45736Y16182D01*
X-45656Y16225D01*
X-45575Y16256D01*
X-45501Y16287D01*
X-45420Y16312D01*
X-45346Y16330D01*
X-45284Y16343D01*
X-45222Y16355D01*
X-45173Y16361D01*
X-45129Y16368D01*
X-45068D01*
X-44956Y16361D01*
D02*
G37*
G36*
X-53282D02*
X-53176Y16349D01*
X-53071Y16324D01*
X-52978Y16299D01*
X-52892Y16262D01*
X-52811Y16225D01*
X-52743Y16188D01*
X-52675Y16145D01*
X-52619Y16101D01*
X-52564Y16064D01*
X-52520Y16027D01*
X-52489Y15990D01*
X-52458Y15965D01*
X-52440Y15940D01*
X-52428Y15928D01*
X-52421Y15922D01*
X-52347Y15817D01*
X-52285Y15693D01*
X-52229Y15563D01*
X-52180Y15427D01*
X-52143Y15284D01*
X-52106Y15136D01*
X-52081Y14993D01*
X-52056Y14851D01*
X-52044Y14715D01*
X-52031Y14591D01*
X-52019Y14473D01*
X-52013Y14374D01*
X-52007Y14294D01*
Y14232D01*
Y14207D01*
Y14189D01*
Y14183D01*
Y14176D01*
X-52013Y13953D01*
X-52025Y13749D01*
X-52044Y13557D01*
X-52068Y13384D01*
X-52093Y13229D01*
X-52124Y13087D01*
X-52161Y12963D01*
X-52198Y12852D01*
X-52229Y12759D01*
X-52267Y12672D01*
X-52298Y12604D01*
X-52328Y12548D01*
X-52347Y12511D01*
X-52366Y12480D01*
X-52378Y12462D01*
X-52384Y12455D01*
X-52458Y12369D01*
X-52539Y12301D01*
X-52619Y12233D01*
X-52706Y12183D01*
X-52786Y12134D01*
X-52873Y12096D01*
X-52954Y12066D01*
X-53034Y12041D01*
X-53108Y12016D01*
X-53176Y12004D01*
X-53238Y11991D01*
X-53288Y11985D01*
X-53331D01*
X-53368Y11979D01*
X-53393D01*
X-53505Y11985D01*
X-53610Y11998D01*
X-53715Y12022D01*
X-53808Y12047D01*
X-53895Y12078D01*
X-53975Y12115D01*
X-54043Y12158D01*
X-54111Y12202D01*
X-54167Y12239D01*
X-54223Y12282D01*
X-54266Y12319D01*
X-54303Y12350D01*
X-54328Y12375D01*
X-54346Y12400D01*
X-54359Y12412D01*
X-54365Y12418D01*
X-54439Y12524D01*
X-54501Y12647D01*
X-54563Y12777D01*
X-54606Y12920D01*
X-54650Y13062D01*
X-54681Y13205D01*
X-54712Y13353D01*
X-54736Y13495D01*
X-54749Y13632D01*
X-54761Y13755D01*
X-54773Y13873D01*
X-54780Y13972D01*
X-54786Y14052D01*
Y14114D01*
Y14139D01*
Y14158D01*
Y14164D01*
Y14170D01*
X-54780Y14393D01*
X-54767Y14597D01*
X-54749Y14783D01*
X-54718Y14956D01*
X-54687Y15117D01*
X-54656Y15260D01*
X-54612Y15390D01*
X-54575Y15501D01*
X-54538Y15606D01*
X-54501Y15687D01*
X-54464Y15761D01*
X-54433Y15823D01*
X-54402Y15866D01*
X-54383Y15897D01*
X-54371Y15916D01*
X-54365Y15922D01*
X-54297Y16002D01*
X-54223Y16071D01*
X-54142Y16126D01*
X-54062Y16182D01*
X-53981Y16225D01*
X-53901Y16256D01*
X-53826Y16287D01*
X-53746Y16312D01*
X-53672Y16330D01*
X-53610Y16343D01*
X-53548Y16355D01*
X-53498Y16361D01*
X-53455Y16368D01*
X-53393D01*
X-53282Y16361D01*
D02*
G37*
%LPC*%
G36*
X-48460Y14238D02*
X-48497D01*
X-48583Y14232D01*
X-48664Y14207D01*
X-48732Y14176D01*
X-48794Y14139D01*
X-48844Y14102D01*
X-48874Y14071D01*
X-48899Y14046D01*
X-48905Y14040D01*
X-48961Y13960D01*
X-49004Y13861D01*
X-49029Y13755D01*
X-49054Y13656D01*
X-49066Y13564D01*
X-49073Y13489D01*
Y13465D01*
Y13440D01*
Y13427D01*
Y13421D01*
X-49066Y13279D01*
X-49048Y13155D01*
X-49023Y13056D01*
X-48998Y12976D01*
X-48967Y12914D01*
X-48943Y12870D01*
X-48924Y12839D01*
X-48918Y12833D01*
X-48856Y12777D01*
X-48794Y12734D01*
X-48726Y12703D01*
X-48670Y12685D01*
X-48614Y12672D01*
X-48571Y12660D01*
X-48534D01*
X-48447Y12672D01*
X-48367Y12697D01*
X-48299Y12728D01*
X-48237Y12771D01*
X-48187Y12808D01*
X-48144Y12845D01*
X-48119Y12870D01*
X-48113Y12876D01*
X-48051Y12963D01*
X-48008Y13062D01*
X-47977Y13167D01*
X-47958Y13266D01*
X-47946Y13359D01*
X-47934Y13427D01*
Y13458D01*
Y13477D01*
Y13489D01*
Y13495D01*
X-47940Y13625D01*
X-47958Y13737D01*
X-47983Y13830D01*
X-48014Y13910D01*
X-48045Y13966D01*
X-48070Y14009D01*
X-48088Y14040D01*
X-48094Y14046D01*
X-48156Y14108D01*
X-48224Y14158D01*
X-48292Y14189D01*
X-48354Y14213D01*
X-48410Y14226D01*
X-48460Y14238D01*
D02*
G37*
G36*
X-33387Y15687D02*
X-33412D01*
X-33468Y15680D01*
X-33517Y15674D01*
X-33560Y15656D01*
X-33597Y15637D01*
X-33628Y15619D01*
X-33653Y15606D01*
X-33666Y15594D01*
X-33672Y15588D01*
X-33709Y15544D01*
X-33746Y15489D01*
X-33777Y15427D01*
X-33808Y15365D01*
X-33827Y15303D01*
X-33845Y15253D01*
X-33851Y15222D01*
X-33858Y15216D01*
Y15210D01*
X-33870Y15154D01*
X-33882Y15086D01*
X-33895Y15006D01*
X-33907Y14925D01*
X-33919Y14758D01*
X-33926Y14585D01*
X-33932Y14504D01*
Y14424D01*
X-33938Y14356D01*
Y14294D01*
Y14244D01*
Y14201D01*
Y14176D01*
Y14170D01*
Y14034D01*
X-33932Y13904D01*
Y13786D01*
X-33926Y13681D01*
X-33919Y13582D01*
X-33913Y13495D01*
X-33901Y13415D01*
X-33895Y13347D01*
X-33888Y13285D01*
X-33876Y13236D01*
X-33870Y13192D01*
X-33864Y13155D01*
X-33858Y13130D01*
Y13105D01*
X-33851Y13099D01*
Y13093D01*
X-33827Y13006D01*
X-33796Y12938D01*
X-33765Y12876D01*
X-33740Y12833D01*
X-33715Y12796D01*
X-33690Y12771D01*
X-33678Y12759D01*
X-33672Y12753D01*
X-33628Y12722D01*
X-33585Y12697D01*
X-33542Y12685D01*
X-33498Y12672D01*
X-33468Y12666D01*
X-33437Y12660D01*
X-33412D01*
X-33356Y12666D01*
X-33307Y12672D01*
X-33263Y12691D01*
X-33226Y12709D01*
X-33195Y12722D01*
X-33170Y12740D01*
X-33158Y12746D01*
X-33152Y12753D01*
X-33115Y12796D01*
X-33077Y12852D01*
X-33047Y12914D01*
X-33016Y12976D01*
X-32997Y13031D01*
X-32978Y13081D01*
X-32972Y13112D01*
X-32966Y13124D01*
X-32954Y13186D01*
X-32941Y13254D01*
X-32929Y13328D01*
X-32923Y13409D01*
X-32910Y13582D01*
X-32904Y13755D01*
X-32898Y13836D01*
Y13916D01*
X-32892Y13984D01*
Y14046D01*
Y14096D01*
Y14139D01*
Y14164D01*
Y14170D01*
Y14306D01*
X-32898Y14436D01*
Y14548D01*
X-32904Y14659D01*
X-32910Y14752D01*
X-32917Y14845D01*
X-32923Y14919D01*
X-32935Y14993D01*
X-32941Y15055D01*
X-32947Y15105D01*
X-32954Y15148D01*
X-32960Y15185D01*
X-32966Y15210D01*
Y15235D01*
X-32972Y15241D01*
Y15247D01*
X-32997Y15334D01*
X-33028Y15408D01*
X-33053Y15464D01*
X-33084Y15513D01*
X-33108Y15544D01*
X-33127Y15569D01*
X-33139Y15582D01*
X-33146Y15588D01*
X-33189Y15619D01*
X-33239Y15643D01*
X-33282Y15662D01*
X-33325Y15674D01*
X-33356Y15680D01*
X-33387Y15687D01*
D02*
G37*
G36*
X-45043D02*
X-45068D01*
X-45123Y15680D01*
X-45173Y15674D01*
X-45216Y15656D01*
X-45253Y15637D01*
X-45284Y15619D01*
X-45309Y15606D01*
X-45321Y15594D01*
X-45327Y15588D01*
X-45365Y15544D01*
X-45402Y15489D01*
X-45433Y15427D01*
X-45464Y15365D01*
X-45482Y15303D01*
X-45501Y15253D01*
X-45507Y15222D01*
X-45513Y15216D01*
Y15210D01*
X-45526Y15154D01*
X-45538Y15086D01*
X-45550Y15006D01*
X-45563Y14925D01*
X-45575Y14758D01*
X-45581Y14585D01*
X-45588Y14504D01*
Y14424D01*
X-45594Y14356D01*
Y14294D01*
Y14244D01*
Y14201D01*
Y14176D01*
Y14170D01*
Y14034D01*
X-45588Y13904D01*
Y13786D01*
X-45581Y13681D01*
X-45575Y13582D01*
X-45569Y13495D01*
X-45557Y13415D01*
X-45550Y13347D01*
X-45544Y13285D01*
X-45532Y13236D01*
X-45526Y13192D01*
X-45519Y13155D01*
X-45513Y13130D01*
Y13105D01*
X-45507Y13099D01*
Y13093D01*
X-45482Y13006D01*
X-45451Y12938D01*
X-45420Y12876D01*
X-45396Y12833D01*
X-45371Y12796D01*
X-45346Y12771D01*
X-45334Y12759D01*
X-45327Y12753D01*
X-45284Y12722D01*
X-45241Y12697D01*
X-45197Y12685D01*
X-45154Y12672D01*
X-45123Y12666D01*
X-45092Y12660D01*
X-45068D01*
X-45012Y12666D01*
X-44962Y12672D01*
X-44919Y12691D01*
X-44882Y12709D01*
X-44851Y12722D01*
X-44826Y12740D01*
X-44814Y12746D01*
X-44808Y12753D01*
X-44770Y12796D01*
X-44733Y12852D01*
X-44702Y12914D01*
X-44671Y12976D01*
X-44653Y13031D01*
X-44634Y13081D01*
X-44628Y13112D01*
X-44622Y13124D01*
X-44609Y13186D01*
X-44597Y13254D01*
X-44585Y13328D01*
X-44578Y13409D01*
X-44566Y13582D01*
X-44560Y13755D01*
X-44554Y13836D01*
Y13916D01*
X-44548Y13984D01*
Y14046D01*
Y14096D01*
Y14139D01*
Y14164D01*
Y14170D01*
Y14306D01*
X-44554Y14436D01*
Y14548D01*
X-44560Y14659D01*
X-44566Y14752D01*
X-44572Y14845D01*
X-44578Y14919D01*
X-44591Y14993D01*
X-44597Y15055D01*
X-44603Y15105D01*
X-44609Y15148D01*
X-44616Y15185D01*
X-44622Y15210D01*
Y15235D01*
X-44628Y15241D01*
Y15247D01*
X-44653Y15334D01*
X-44684Y15408D01*
X-44708Y15464D01*
X-44739Y15513D01*
X-44764Y15544D01*
X-44783Y15569D01*
X-44795Y15582D01*
X-44801Y15588D01*
X-44845Y15619D01*
X-44894Y15643D01*
X-44938Y15662D01*
X-44981Y15674D01*
X-45012Y15680D01*
X-45043Y15687D01*
D02*
G37*
G36*
X-53368D02*
X-53393D01*
X-53449Y15680D01*
X-53498Y15674D01*
X-53542Y15656D01*
X-53579Y15637D01*
X-53610Y15619D01*
X-53635Y15606D01*
X-53647Y15594D01*
X-53653Y15588D01*
X-53690Y15544D01*
X-53727Y15489D01*
X-53758Y15427D01*
X-53789Y15365D01*
X-53808Y15303D01*
X-53826Y15253D01*
X-53833Y15222D01*
X-53839Y15216D01*
Y15210D01*
X-53851Y15154D01*
X-53864Y15086D01*
X-53876Y15006D01*
X-53888Y14925D01*
X-53901Y14758D01*
X-53907Y14585D01*
X-53913Y14504D01*
Y14424D01*
X-53919Y14356D01*
Y14294D01*
Y14244D01*
Y14201D01*
Y14176D01*
Y14170D01*
Y14034D01*
X-53913Y13904D01*
Y13786D01*
X-53907Y13681D01*
X-53901Y13582D01*
X-53895Y13495D01*
X-53882Y13415D01*
X-53876Y13347D01*
X-53870Y13285D01*
X-53857Y13236D01*
X-53851Y13192D01*
X-53845Y13155D01*
X-53839Y13130D01*
Y13105D01*
X-53833Y13099D01*
Y13093D01*
X-53808Y13006D01*
X-53777Y12938D01*
X-53746Y12876D01*
X-53721Y12833D01*
X-53696Y12796D01*
X-53672Y12771D01*
X-53659Y12759D01*
X-53653Y12753D01*
X-53610Y12722D01*
X-53566Y12697D01*
X-53523Y12685D01*
X-53480Y12672D01*
X-53449Y12666D01*
X-53418Y12660D01*
X-53393D01*
X-53337Y12666D01*
X-53288Y12672D01*
X-53245Y12691D01*
X-53207Y12709D01*
X-53176Y12722D01*
X-53152Y12740D01*
X-53139Y12746D01*
X-53133Y12753D01*
X-53096Y12796D01*
X-53059Y12852D01*
X-53028Y12914D01*
X-52997Y12976D01*
X-52978Y13031D01*
X-52960Y13081D01*
X-52954Y13112D01*
X-52947Y13124D01*
X-52935Y13186D01*
X-52923Y13254D01*
X-52910Y13328D01*
X-52904Y13409D01*
X-52892Y13582D01*
X-52886Y13755D01*
X-52879Y13836D01*
Y13916D01*
X-52873Y13984D01*
Y14046D01*
Y14096D01*
Y14139D01*
Y14164D01*
Y14170D01*
Y14306D01*
X-52879Y14436D01*
Y14548D01*
X-52886Y14659D01*
X-52892Y14752D01*
X-52898Y14845D01*
X-52904Y14919D01*
X-52917Y14993D01*
X-52923Y15055D01*
X-52929Y15105D01*
X-52935Y15148D01*
X-52941Y15185D01*
X-52947Y15210D01*
Y15235D01*
X-52954Y15241D01*
Y15247D01*
X-52978Y15334D01*
X-53009Y15408D01*
X-53034Y15464D01*
X-53065Y15513D01*
X-53090Y15544D01*
X-53108Y15569D01*
X-53121Y15582D01*
X-53127Y15588D01*
X-53170Y15619D01*
X-53220Y15643D01*
X-53263Y15662D01*
X-53306Y15674D01*
X-53337Y15680D01*
X-53368Y15687D01*
D02*
G37*
G36*
X-1870Y35986D02*
X-3533Y35822D01*
X-5133Y35337D01*
X-6606Y34549D01*
X-7898Y33489D01*
X-8959Y32197D01*
X-9746Y30723D01*
X-10232Y29124D01*
X-10395Y27461D01*
X-10232Y25797D01*
X-9746Y24198D01*
X-8959Y22724D01*
X-7898Y21432D01*
X-6606Y20372D01*
X-5133Y19584D01*
X-3533Y19099D01*
X-1870Y18935D01*
X-207Y19099D01*
X1392Y19584D01*
X2866Y20372D01*
X4158Y21432D01*
X5218Y22724D01*
X6006Y24198D01*
X6491Y25797D01*
X6655Y27461D01*
X6491Y29124D01*
X6006Y30723D01*
X5218Y32197D01*
X4158Y33489D01*
X2866Y34549D01*
X1392Y35337D01*
X-207Y35822D01*
X-1870Y35986D01*
D02*
G37*
%LPD*%
D32*
X98130Y100197D02*
D03*
Y110039D02*
D03*
Y119882D02*
D03*
Y129724D02*
D03*
Y139567D02*
D03*
D33*
X30039Y3839D02*
D03*
X20039D02*
D03*
X10039D02*
D03*
X39D02*
D03*
X-9961D02*
D03*
X-19961D02*
D03*
X-29961D02*
D03*
X-39961D02*
D03*
X-49961D02*
D03*
X-59961D02*
D03*
Y58169D02*
D03*
X-49961D02*
D03*
X-39961D02*
D03*
X-29961D02*
D03*
X-19961D02*
D03*
X-9961D02*
D03*
X39D02*
D03*
X10039D02*
D03*
X20039D02*
D03*
D34*
X30039D02*
D03*
D57*
X-33661Y125787D02*
Y166949D01*
X-58169Y151181D02*
X-53740Y155610D01*
X-58169Y81004D02*
Y151181D01*
X-51476Y93799D02*
Y141437D01*
X-49902Y143012D01*
X-37756Y94283D02*
Y121693D01*
X-33661Y125787D01*
X-37756Y94283D02*
X-33130Y89657D01*
Y68366D02*
X-25098Y60335D01*
X-33130Y68366D02*
Y89657D01*
X-12903Y45098D02*
X773D01*
X20039Y25832D01*
X-25098Y57294D02*
Y60335D01*
X20039Y3839D02*
Y25832D01*
X-25098Y57294D02*
X-12903Y45098D01*
X-51476Y93799D02*
X-35709Y78031D01*
Y52441D02*
Y78031D01*
X-25787Y42520D02*
X-295D01*
X-35709Y52441D02*
X-25787Y42520D01*
X10039Y3839D02*
Y32185D01*
X-295Y42520D02*
X10039Y32185D01*
X-58169Y81004D02*
X-44783Y67618D01*
Y52854D02*
Y67618D01*
X-20Y3898D02*
X39Y3839D01*
X-20Y3898D02*
Y8091D01*
X-44783Y52854D02*
X-20Y8091D01*
X37402Y122539D02*
Y148248D01*
X25591Y110728D02*
X37402Y122539D01*
X-15079Y110728D02*
X25591D01*
X-29449Y96358D02*
X-15079Y110728D01*
D58*
X55216Y106201D02*
D03*
D59*
X-29449Y96358D02*
D03*
D60*
X-19449D02*
D03*
X-9449D02*
D03*
X551D02*
D03*
X10551D02*
D03*
X20551D02*
D03*
X37402Y198248D02*
D03*
Y188248D02*
D03*
Y178248D02*
D03*
Y168248D02*
D03*
Y158248D02*
D03*
D61*
Y148248D02*
D03*
D62*
X53642Y143307D02*
D03*
X57185Y163287D02*
D03*
X72441Y175295D02*
D03*
X66067Y54077D02*
D03*
X59153Y69291D02*
D03*
X59055Y83130D02*
D03*
X101476Y69095D02*
D03*
X100787Y83957D02*
D03*
X-41339Y126476D02*
D03*
X-49016Y45965D02*
D03*
X43307Y141732D02*
D03*
Y31496D02*
D03*
X39370Y7874D02*
D03*
X31496Y196851D02*
D03*
Y149606D02*
D03*
Y133858D02*
D03*
Y102362D02*
D03*
Y86614D02*
D03*
Y39370D02*
D03*
Y23622D02*
D03*
X27559Y125984D02*
D03*
X23622Y118110D02*
D03*
Y7874D02*
D03*
X19685Y125984D02*
D03*
X15748Y118110D02*
D03*
Y102362D02*
D03*
Y86614D02*
D03*
Y70866D02*
D03*
X90059Y157579D02*
D03*
X-33661Y113878D02*
D03*
X-51083Y178976D02*
D03*
X25591Y131496D02*
D03*
X90551Y78740D02*
D03*
X86614Y70866D02*
D03*
X90551Y62992D02*
D03*
X86614Y55118D02*
D03*
Y39370D02*
D03*
Y23622D02*
D03*
X78740Y196851D02*
D03*
X82677Y188977D02*
D03*
X78740Y165355D02*
D03*
X82677Y157481D02*
D03*
Y141732D02*
D03*
X78740Y133858D02*
D03*
X82677Y125984D02*
D03*
X78740Y70866D02*
D03*
X82677Y62992D02*
D03*
Y47244D02*
D03*
X70866Y196851D02*
D03*
X74803Y188977D02*
D03*
X70866Y181103D02*
D03*
Y165355D02*
D03*
X74803Y157481D02*
D03*
Y141732D02*
D03*
X70866Y133858D02*
D03*
X74803Y125984D02*
D03*
X70866Y118110D02*
D03*
X74803Y110236D02*
D03*
Y94488D02*
D03*
X70866Y86614D02*
D03*
Y70866D02*
D03*
X62992Y196851D02*
D03*
X66929Y188977D02*
D03*
X62992Y181103D02*
D03*
X66929Y173229D02*
D03*
X62992Y165355D02*
D03*
X66929Y157481D02*
D03*
X-23622Y118110D02*
D03*
Y86614D02*
D03*
X-19685Y78740D02*
D03*
X-23622Y70866D02*
D03*
X-19685Y62992D02*
D03*
Y47244D02*
D03*
X-23622Y39370D02*
D03*
Y23622D02*
D03*
X-27559Y78740D02*
D03*
X-31496Y181103D02*
D03*
X-23622Y7874D02*
D03*
X-19685Y15748D02*
D03*
X-27559Y188977D02*
D03*
Y173229D02*
D03*
X-31496Y118110D02*
D03*
X-27559Y141732D02*
D03*
Y157481D02*
D03*
X0Y70866D02*
D03*
X3937Y62992D02*
D03*
Y47244D02*
D03*
Y15748D02*
D03*
X-3937Y173229D02*
D03*
X-7874Y165355D02*
D03*
X-3937Y157481D02*
D03*
X-7874Y118110D02*
D03*
Y102362D02*
D03*
Y86614D02*
D03*
X-3937Y78740D02*
D03*
X-7874Y70866D02*
D03*
X-3937Y62992D02*
D03*
X-7874Y39370D02*
D03*
X-11811Y188977D02*
D03*
X-15748Y181103D02*
D03*
X-11811Y173229D02*
D03*
X-15748Y165355D02*
D03*
X-55118Y86614D02*
D03*
Y7874D02*
D03*
Y70866D02*
D03*
Y133858D02*
D03*
Y102362D02*
D03*
Y118110D02*
D03*
Y39370D02*
D03*
Y55118D02*
D03*
X-51181Y62992D02*
D03*
X-55118Y23622D02*
D03*
X-51181Y31496D02*
D03*
Y78740D02*
D03*
X-39370Y70866D02*
D03*
X-31496Y23622D02*
D03*
X-47244Y102362D02*
D03*
X-35433Y31496D02*
D03*
X-39370Y39370D02*
D03*
X-47244Y149606D02*
D03*
X-39370Y23622D02*
D03*
Y86614D02*
D03*
X-55118Y165355D02*
D03*
X-47244Y7874D02*
D03*
Y23622D02*
D03*
X-55118Y149606D02*
D03*
X-43307Y78740D02*
D03*
Y31496D02*
D03*
X-47244Y39370D02*
D03*
X-43307Y94488D02*
D03*
X15748Y55118D02*
D03*
X19685Y47244D02*
D03*
X15748Y39370D02*
D03*
X19685Y31496D02*
D03*
X15748Y23622D02*
D03*
Y7874D02*
D03*
X11811Y188977D02*
D03*
X7874Y181103D02*
D03*
Y149606D02*
D03*
Y118110D02*
D03*
Y102362D02*
D03*
Y86614D02*
D03*
X11811Y47244D02*
D03*
X3937Y173229D02*
D03*
X0Y165355D02*
D03*
Y149606D02*
D03*
Y86614D02*
D03*
X3937Y78740D02*
D03*
X62992Y149606D02*
D03*
Y133858D02*
D03*
X66929Y125984D02*
D03*
X62992Y86614D02*
D03*
Y39370D02*
D03*
X59055Y157481D02*
D03*
Y125984D02*
D03*
X55118Y86614D02*
D03*
Y39370D02*
D03*
X47244Y196851D02*
D03*
X51181Y188977D02*
D03*
Y173229D02*
D03*
Y157481D02*
D03*
X47244Y133858D02*
D03*
Y86614D02*
D03*
Y70866D02*
D03*
Y39370D02*
D03*
X43307Y188977D02*
D03*
X-11811Y157481D02*
D03*
Y141732D02*
D03*
X-15748Y118110D02*
D03*
Y102362D02*
D03*
Y86614D02*
D03*
X-11811Y78740D02*
D03*
X-15748Y70866D02*
D03*
X-11811Y62992D02*
D03*
X-15748Y55118D02*
D03*
Y39370D02*
D03*
X-11811Y31496D02*
D03*
X-15748Y7874D02*
D03*
X-19685Y188977D02*
D03*
X-23622Y181103D02*
D03*
X-19685Y173229D02*
D03*
X-23622Y165355D02*
D03*
X-19685Y157481D02*
D03*
Y141732D02*
D03*
X102362Y196851D02*
D03*
Y181103D02*
D03*
Y165355D02*
D03*
Y149606D02*
D03*
Y133858D02*
D03*
X98425Y188977D02*
D03*
X94488Y133858D02*
D03*
X98425Y94488D02*
D03*
X94488Y86614D02*
D03*
Y70866D02*
D03*
X98425Y62992D02*
D03*
X90551Y125984D02*
D03*
X86614Y102362D02*
D03*
X90551Y94488D02*
D03*
X86614Y86614D02*
D03*
X-49606Y143110D02*
D03*
X-33661Y166949D02*
D03*
X-53740Y155610D02*
D03*
D63*
X19783Y57382D02*
X19980Y57579D01*
Y72835D01*
X22992Y75846D01*
X81240Y82670D02*
Y107768D01*
X74417Y75846D02*
X81240Y82670D01*
X22992Y75846D02*
X74417D01*
X81240Y107768D02*
X83512Y110039D01*
X98130D01*
X90821Y119882D02*
X98130D01*
X79449Y108510D02*
X90821Y119882D01*
X79449Y83412D02*
Y108510D01*
X14817Y77638D02*
X73675D01*
X79449Y83412D01*
X9783Y72605D02*
X14817Y77638D01*
X9783Y57382D02*
Y72605D01*
X-216Y57382D02*
Y65138D01*
X14075Y79429D01*
X72933D02*
X77658Y84153D01*
X14075Y79429D02*
X72933D01*
X77658Y109252D02*
X98130Y129724D01*
X77658Y84153D02*
Y109252D01*
M02*
