G04*
G04 #@! TF.GenerationSoftware,Altium Limited,Altium Designer,23.6.0 (18)*
G04*
G04 Layer_Color=8388736*
%FSLAX25Y25*%
%MOIN*%
G70*
G04*
G04 #@! TF.SameCoordinates,7954F5F0-22A1-4131-B6F7-0AC426F17986*
G04*
G04*
G04 #@! TF.FilePolarity,Negative*
G04*
G01*
G75*
%ADD17R,0.08674X0.04737*%
%ADD18R,0.04737X0.08674*%
%ADD19R,0.07099X0.14580*%
%ADD20R,0.14580X0.07099*%
%ADD21R,0.04343X0.04934*%
%ADD22O,0.10642X0.03556*%
%ADD23R,0.06115X0.06509*%
%ADD24R,0.10642X0.10642*%
%ADD25R,0.15800X0.11784*%
%ADD26R,0.05918X0.06509*%
%ADD27R,0.04540X0.04934*%
%ADD28R,0.04934X0.04343*%
%ADD29R,0.13792X0.11430*%
%ADD30R,0.04737X0.11430*%
%ADD31R,0.04934X0.04540*%
%ADD32C,0.05900*%
%ADD33C,0.05315*%
%ADD34R,0.05315X0.05315*%
%ADD35C,0.32296*%
%ADD36C,0.00800*%
%ADD37R,0.06902X0.06902*%
%ADD38C,0.06902*%
%ADD39R,0.06902X0.06902*%
%ADD40C,0.03359*%
D17*
X18012Y190354D02*
D03*
Y182480D02*
D03*
Y174606D02*
D03*
Y166732D02*
D03*
Y158858D02*
D03*
Y150984D02*
D03*
X18012Y143110D02*
D03*
X18012Y135236D02*
D03*
X-41043Y135236D02*
D03*
Y143110D02*
D03*
Y150984D02*
D03*
X-41043Y158858D02*
D03*
X-41043Y166732D02*
D03*
X-41043Y174606D02*
D03*
X-41043Y182480D02*
D03*
Y190354D02*
D03*
D18*
X8169Y130118D02*
D03*
X295Y130118D02*
D03*
X-7579D02*
D03*
X-15453D02*
D03*
X-23327Y130118D02*
D03*
X-31201Y130118D02*
D03*
D19*
X56988Y195965D02*
D03*
Y173917D02*
D03*
D20*
X75787Y150886D02*
D03*
X53740D02*
D03*
X77953Y76772D02*
D03*
X100000D02*
D03*
X37008Y76279D02*
D03*
X59055D02*
D03*
D21*
X-53642Y46063D02*
D03*
X-58957D02*
D03*
X-54626Y173721D02*
D03*
X-59941D02*
D03*
D22*
X94587Y41417D02*
D03*
Y46417D02*
D03*
Y51417D02*
D03*
Y56417D02*
D03*
X75295Y41417D02*
D03*
Y46417D02*
D03*
Y51417D02*
D03*
Y56417D02*
D03*
D23*
X81988Y32579D02*
D03*
X88484D02*
D03*
D24*
X75122Y12894D02*
D03*
X97122D02*
D03*
D25*
X54626Y26594D02*
D03*
Y54705D02*
D03*
D26*
X-40846Y113386D02*
D03*
X-47146D02*
D03*
D27*
X-23720Y106398D02*
D03*
X-29429D02*
D03*
X95571Y163484D02*
D03*
X89862D02*
D03*
X-47343Y120669D02*
D03*
X-41634D02*
D03*
D28*
X-50591Y160433D02*
D03*
Y165748D02*
D03*
X27264Y158661D02*
D03*
Y153347D02*
D03*
Y137500D02*
D03*
Y142815D02*
D03*
X-59842Y189567D02*
D03*
Y184252D02*
D03*
D29*
X87697Y197539D02*
D03*
D30*
X96752Y174311D02*
D03*
X87697D02*
D03*
X78642D02*
D03*
D31*
X-51279Y189665D02*
D03*
Y183957D02*
D03*
D32*
X98130Y100197D02*
D03*
Y110039D02*
D03*
Y119882D02*
D03*
Y129724D02*
D03*
Y139567D02*
D03*
D33*
X30039Y3839D02*
D03*
X20039D02*
D03*
X10039D02*
D03*
X39D02*
D03*
X-9961D02*
D03*
X-19961D02*
D03*
X-29961D02*
D03*
X-39961D02*
D03*
X-49961D02*
D03*
X-59961D02*
D03*
Y58169D02*
D03*
X-49961D02*
D03*
X-39961D02*
D03*
X-29961D02*
D03*
X-19961D02*
D03*
X-9961D02*
D03*
X39D02*
D03*
X10039D02*
D03*
X20039D02*
D03*
D34*
X30039D02*
D03*
D35*
X55216Y106201D02*
D03*
D36*
X-1870Y27461D02*
D03*
Y184941D02*
D03*
D37*
X-29449Y96358D02*
D03*
D38*
X-19449D02*
D03*
X-9449D02*
D03*
X551D02*
D03*
X10551D02*
D03*
X20551D02*
D03*
X37402Y198248D02*
D03*
Y188248D02*
D03*
Y178248D02*
D03*
Y168248D02*
D03*
Y158248D02*
D03*
D39*
Y148248D02*
D03*
D40*
X-49606Y143110D02*
D03*
X-33661Y166949D02*
D03*
X-53740Y155610D02*
D03*
M02*
